<svg width="52" height="52" viewBox="0 0 52 52" fill="none" xmlns="http://www.w3.org/2000/svg">
<g clip-path="url(#clip0)">
<path d="M36.4859 12.899L31.3969 12.48L33.2809 7.73403C33.5889 6.95903 33.9769 6.23503 34.4199 5.55703C31.4649 4.25703 28.2009 3.53003 24.7649 3.53003C11.5099 3.53003 0.764893 14.275 0.764893 27.53C0.764893 40.785 11.5099 51.53 24.7649 51.53C38.0199 51.53 48.7649 40.785 48.7649 27.53C48.7649 21.471 46.5149 15.94 42.8109 11.717C40.8889 12.643 38.7189 13.083 36.4859 12.899Z" fill="#ED8F20"/>
<path d="M38.5369 20.496C39.6414 20.496 40.5369 19.6006 40.5369 18.496C40.5369 17.3915 39.6414 16.496 38.5369 16.496C37.4323 16.496 36.5369 17.3915 36.5369 18.496C36.5369 19.6006 37.4323 20.496 38.5369 20.496Z" fill="#EF771D"/>
<path d="M43.8569 31.651C44.9615 31.651 45.8569 30.7556 45.8569 29.651C45.8569 28.5464 44.9615 27.651 43.8569 27.651C42.7524 27.651 41.8569 28.5464 41.8569 29.651C41.8569 30.7556 42.7524 31.651 43.8569 31.651Z" fill="#EF771D"/>
<path d="M43.5369 25.496C44.6414 25.496 45.5369 24.6006 45.5369 23.496C45.5369 22.3915 44.6414 21.496 43.5369 21.496C42.4323 21.496 41.5369 22.3915 41.5369 23.496C41.5369 24.6006 42.4323 25.496 43.5369 25.496Z" fill="#EF771D"/>
<path d="M37.4929 29.529C38.5975 29.529 39.4929 28.6336 39.4929 27.529C39.4929 26.4244 38.5975 25.529 37.4929 25.529C36.3884 25.529 35.4929 26.4244 35.4929 27.529C35.4929 28.6336 36.3884 29.529 37.4929 29.529Z" fill="#EF771D"/>
<path d="M38.5369 36.496C39.6414 36.496 40.5369 35.6006 40.5369 34.496C40.5369 33.3915 39.6414 32.496 38.5369 32.496C37.4323 32.496 36.5369 33.3915 36.5369 34.496C36.5369 35.6006 37.4323 36.496 38.5369 36.496Z" fill="#EF771D"/>
<path d="M20.5369 12.496C21.6414 12.496 22.5369 11.6006 22.5369 10.496C22.5369 9.39146 21.6414 8.49603 20.5369 8.49603C19.4323 8.49603 18.5369 9.39146 18.5369 10.496C18.5369 11.6006 19.4323 12.496 20.5369 12.496Z" fill="#EF771D"/>
<path d="M13.5369 15.496C14.6414 15.496 15.5369 14.6006 15.5369 13.496C15.5369 12.3915 14.6414 11.496 13.5369 11.496C12.4323 11.496 11.5369 12.3915 11.5369 13.496C11.5369 14.6006 12.4323 15.496 13.5369 15.496Z" fill="#EF771D"/>
<path d="M27.7649 11.529C27.7649 11.529 32.0149 12.229 33.1649 15.129L27.7649 11.529Z" fill="#ED8F20"/>
<path d="M33.165 16.13C32.768 16.13 32.392 15.891 32.235 15.498C31.31 13.167 27.636 12.522 27.6 12.516C27.056 12.424 26.688 11.91 26.779 11.365C26.869 10.822 27.382 10.453 27.926 10.543C28.123 10.575 32.75 11.374 34.094 14.761C34.297 15.274 34.046 15.856 33.533 16.059C33.413 16.107 33.288 16.13 33.165 16.13Z" fill="#9B6026"/>
<path d="M28.3647 14.529C29.4017 13.389 30.7097 12.504 32.1517 11.962L28.3647 14.529Z" fill="#ED8F20"/>
<path d="M28.3639 15.529C28.1239 15.529 27.8829 15.443 27.6909 15.269C27.2829 14.897 27.2529 14.265 27.6249 13.856C28.7669 12.601 30.2099 11.623 31.8009 11.025C32.3179 10.833 32.8939 11.092 33.0889 11.609C33.2819 12.126 33.0209 12.703 32.5039 12.897C31.2089 13.383 30.0329 14.18 29.1039 15.201C28.9059 15.419 28.6359 15.529 28.3639 15.529Z" fill="#9B6026"/>
<path d="M50.765 0.46002L45.676 0.0410204C40.301 -0.40098 35.27 2.72202 33.281 7.73402L31.397 12.48L36.486 12.899C41.86 13.341 46.892 10.218 48.881 5.20602L50.765 0.46002Z" fill="#659C35"/>
<path d="M31.958 11.068L31.397 12.481L32.115 12.54C38.373 6.42902 45.174 4.42302 45.918 4.37602L45.953 3.81702L46.366 4.23002L46.524 3.63702L46.08 3.21202C45.482 3.08002 38.497 5.00902 31.958 11.068Z" fill="#88C057"/>
</g>
<defs>
<clipPath id="clip0">
<rect width="51.529" height="51.529" fill="white"/>
</clipPath>
</defs>
</svg>
