<svg width="386" height="85" viewBox="0 0 386 85" fill="none" xmlns="http://www.w3.org/2000/svg">
<g filter="url(#filter0_d)">
<rect x="16" y="16" width="276" height="44" rx="20" fill="white"/>
</g>
<path d="M37.536 41.736L37.528 43H30.464V31.536H37.528V32.8H32.016V36.608H36.48V37.824H32.016V41.736H37.536ZM43.9574 36.232C43.8934 36.3493 43.7947 36.408 43.6614 36.408C43.5814 36.408 43.4907 36.3787 43.3894 36.32C43.288 36.2613 43.1627 36.1973 43.0134 36.128C42.8694 36.0533 42.696 35.9867 42.4934 35.928C42.2907 35.864 42.0507 35.832 41.7734 35.832C41.5334 35.832 41.3174 35.864 41.1254 35.928C40.9334 35.9867 40.768 36.0693 40.6294 36.176C40.496 36.2827 40.392 36.408 40.3174 36.552C40.248 36.6907 40.2134 36.8427 40.2134 37.008C40.2134 37.216 40.272 37.3893 40.3894 37.528C40.512 37.6667 40.672 37.7867 40.8694 37.888C41.0667 37.9893 41.2907 38.08 41.5414 38.16C41.792 38.2347 42.048 38.3173 42.3094 38.408C42.576 38.4933 42.8347 38.5893 43.0854 38.696C43.336 38.8027 43.56 38.936 43.7574 39.096C43.9547 39.256 44.112 39.4533 44.2294 39.688C44.352 39.9173 44.4134 40.1947 44.4134 40.52C44.4134 40.8933 44.3467 41.24 44.2134 41.56C44.08 41.8747 43.8827 42.1493 43.6214 42.384C43.36 42.6133 43.04 42.7947 42.6614 42.928C42.2827 43.0613 41.8454 43.128 41.3494 43.128C40.784 43.128 40.272 43.0373 39.8134 42.856C39.3547 42.6693 38.9654 42.432 38.6454 42.144L38.9814 41.6C39.024 41.5307 39.0747 41.4773 39.1334 41.44C39.192 41.4027 39.2667 41.384 39.3574 41.384C39.4534 41.384 39.5547 41.4213 39.6614 41.496C39.768 41.5707 39.896 41.6533 40.0454 41.744C40.2 41.8347 40.3867 41.9173 40.6054 41.992C40.824 42.0667 41.096 42.104 41.4214 42.104C41.6987 42.104 41.9414 42.0693 42.1494 42C42.3574 41.9253 42.5307 41.8267 42.6694 41.704C42.808 41.5813 42.9094 41.44 42.9734 41.28C43.0427 41.12 43.0774 40.9493 43.0774 40.768C43.0774 40.544 43.016 40.36 42.8934 40.216C42.776 40.0667 42.6187 39.9413 42.4214 39.84C42.224 39.7333 41.9974 39.6427 41.7414 39.568C41.4907 39.488 41.232 39.4053 40.9654 39.32C40.704 39.2347 40.4454 39.1387 40.1894 39.032C39.9387 38.92 39.7147 38.7813 39.5174 38.616C39.32 38.4507 39.16 38.248 39.0374 38.008C38.92 37.7627 38.8614 37.4667 38.8614 37.12C38.8614 36.8107 38.9254 36.5147 39.0534 36.232C39.1814 35.944 39.368 35.6933 39.6134 35.48C39.8587 35.2613 40.16 35.088 40.5174 34.96C40.8747 34.832 41.2827 34.768 41.7414 34.768C42.2747 34.768 42.752 34.8533 43.1734 35.024C43.6 35.1893 43.968 35.4187 44.2774 35.712L43.9574 36.232ZM51.7993 36.336C51.7566 36.3947 51.7139 36.44 51.6713 36.472C51.6286 36.504 51.5699 36.52 51.4953 36.52C51.4153 36.52 51.3273 36.488 51.2313 36.424C51.1353 36.3547 51.0153 36.28 50.8713 36.2C50.7326 36.12 50.5593 36.048 50.3513 35.984C50.1486 35.9147 49.8979 35.88 49.5993 35.88C49.1993 35.88 48.8473 35.952 48.5433 36.096C48.2393 36.2347 47.9833 36.4373 47.7753 36.704C47.5726 36.9707 47.4179 37.2933 47.3113 37.672C47.2099 38.0507 47.1593 38.4747 47.1593 38.944C47.1593 39.4347 47.2153 39.872 47.3273 40.256C47.4393 40.6347 47.5966 40.9547 47.7993 41.216C48.0073 41.472 48.2553 41.6693 48.5433 41.808C48.8366 41.9413 49.1646 42.008 49.5273 42.008C49.8739 42.008 50.1593 41.968 50.3833 41.888C50.6073 41.8027 50.7913 41.7093 50.9353 41.608C51.0846 41.5067 51.2073 41.416 51.3033 41.336C51.4046 41.2507 51.5033 41.208 51.5993 41.208C51.7166 41.208 51.8073 41.2533 51.8713 41.344L52.2713 41.864C52.0953 42.0827 51.8953 42.2693 51.6713 42.424C51.4473 42.5787 51.2046 42.7093 50.9433 42.816C50.6873 42.9173 50.4179 42.992 50.1353 43.04C49.8526 43.088 49.5646 43.112 49.2713 43.112C48.7646 43.112 48.2926 43.0187 47.8553 42.832C47.4233 42.6453 47.0473 42.376 46.7273 42.024C46.4073 41.6667 46.1566 41.2293 45.9753 40.712C45.7939 40.1947 45.7033 39.6053 45.7033 38.944C45.7033 38.3413 45.7859 37.784 45.9513 37.272C46.1219 36.76 46.3673 36.32 46.6873 35.952C47.0126 35.5787 47.4099 35.288 47.8793 35.08C48.3539 34.872 48.8979 34.768 49.5113 34.768C50.0819 34.768 50.5833 34.8613 51.0153 35.048C51.4526 35.2293 51.8393 35.488 52.1753 35.824L51.7993 36.336ZM55.1519 36.52C55.4079 35.9653 55.7225 35.5333 56.0959 35.224C56.4692 34.9093 56.9252 34.752 57.4639 34.752C57.6345 34.752 57.7972 34.7707 57.9519 34.808C58.1119 34.8453 58.2532 34.904 58.3759 34.984L58.2719 36.048C58.2399 36.1813 58.1599 36.248 58.0319 36.248C57.9572 36.248 57.8479 36.232 57.7039 36.2C57.5599 36.168 57.3972 36.152 57.2159 36.152C56.9599 36.152 56.7305 36.1893 56.5279 36.264C56.3305 36.3387 56.1519 36.4507 55.9919 36.6C55.8372 36.744 55.6959 36.9253 55.5679 37.144C55.4452 37.3573 55.3332 37.6027 55.2319 37.88V43H53.7999V34.896H54.6159C54.7705 34.896 54.8772 34.9253 54.9359 34.984C54.9945 35.0427 55.0345 35.144 55.0559 35.288L55.1519 36.52ZM61.132 34.896V43H59.708V34.896H61.132ZM61.436 32.352C61.436 32.4907 61.4067 32.6213 61.348 32.744C61.2947 32.8613 61.22 32.968 61.124 33.064C61.0333 33.1547 60.924 33.2267 60.796 33.28C60.6733 33.3333 60.5427 33.36 60.404 33.36C60.2653 33.36 60.1347 33.3333 60.012 33.28C59.8947 33.2267 59.7907 33.1547 59.7 33.064C59.6093 32.968 59.5373 32.8613 59.484 32.744C59.4307 32.6213 59.404 32.4907 59.404 32.352C59.404 32.2133 59.4307 32.0827 59.484 31.96C59.5373 31.832 59.6093 31.7227 59.7 31.632C59.7907 31.536 59.8947 31.4613 60.012 31.408C60.1347 31.3547 60.2653 31.328 60.404 31.328C60.5427 31.328 60.6733 31.3547 60.796 31.408C60.924 31.4613 61.0333 31.536 61.124 31.632C61.22 31.7227 61.2947 31.832 61.348 31.96C61.4067 32.0827 61.436 32.2133 61.436 32.352ZM64.9038 41.048C65.1651 41.4 65.4504 41.648 65.7598 41.792C66.0744 41.936 66.4184 42.008 66.7918 42.008C67.5544 42.008 68.1384 41.7387 68.5438 41.2C68.9491 40.6613 69.1518 39.8587 69.1518 38.792C69.1518 37.8 68.9704 37.072 68.6078 36.608C68.2504 36.1387 67.7384 35.904 67.0718 35.904C66.6078 35.904 66.2024 36.0107 65.8558 36.224C65.5144 36.4373 65.1971 36.7387 64.9038 37.128V41.048ZM64.9038 36.064C65.2451 35.6693 65.6291 35.3547 66.0558 35.12C66.4878 34.8853 66.9838 34.768 67.5438 34.768C68.0184 34.768 68.4451 34.8587 68.8238 35.04C69.2078 35.2213 69.5331 35.4853 69.7998 35.832C70.0664 36.1733 70.2691 36.5893 70.4078 37.08C70.5518 37.5707 70.6238 38.1227 70.6238 38.736C70.6238 39.392 70.5438 39.9893 70.3837 40.528C70.2238 41.0667 69.9918 41.528 69.6878 41.912C69.3891 42.2907 69.0238 42.5867 68.5918 42.8C68.1598 43.008 67.6744 43.112 67.1358 43.112C66.6024 43.112 66.1518 43.0133 65.7838 42.816C65.4211 42.6133 65.1038 42.328 64.8318 41.96L64.7598 42.696C64.7171 42.8987 64.5944 43 64.3918 43H63.4718V31.216H64.9038V36.064ZM77.8489 38.064C77.8489 37.7333 77.8009 37.432 77.7049 37.16C77.6142 36.8827 77.4782 36.6453 77.2969 36.448C77.1209 36.2453 76.9049 36.0907 76.6489 35.984C76.3929 35.872 76.1022 35.816 75.7769 35.816C75.0942 35.816 74.5529 36.016 74.1529 36.416C73.7582 36.8107 73.5129 37.36 73.4169 38.064H77.8489ZM79.0009 41.864C78.8249 42.0773 78.6142 42.264 78.3689 42.424C78.1235 42.5787 77.8595 42.7067 77.5769 42.808C77.2995 42.9093 77.0115 42.984 76.7129 43.032C76.4142 43.0853 76.1182 43.112 75.8249 43.112C75.2649 43.112 74.7475 43.0187 74.2729 42.832C73.8035 42.64 73.3955 42.3627 73.0489 42C72.7075 41.632 72.4409 41.1787 72.2489 40.64C72.0569 40.1013 71.9609 39.4827 71.9609 38.784C71.9609 38.2187 72.0462 37.6907 72.2169 37.2C72.3929 36.7093 72.6435 36.2853 72.9689 35.928C73.2942 35.5653 73.6915 35.2827 74.1609 35.08C74.6302 34.872 75.1582 34.768 75.7449 34.768C76.2302 34.768 76.6782 34.8507 77.0889 35.016C77.5049 35.176 77.8622 35.4107 78.1609 35.72C78.4649 36.024 78.7022 36.4027 78.8729 36.856C79.0435 37.304 79.1289 37.816 79.1289 38.392C79.1289 38.616 79.1049 38.7653 79.0569 38.84C79.0089 38.9147 78.9182 38.952 78.7849 38.952H73.3689C73.3849 39.464 73.4542 39.9093 73.5769 40.288C73.7049 40.6667 73.8809 40.984 74.1049 41.24C74.3289 41.4907 74.5955 41.68 74.9049 41.808C75.2142 41.9307 75.5609 41.992 75.9449 41.992C76.3022 41.992 76.6089 41.952 76.8649 41.872C77.1262 41.7867 77.3502 41.696 77.5369 41.6C77.7235 41.504 77.8782 41.416 78.0009 41.336C78.1289 41.2507 78.2382 41.208 78.3289 41.208C78.4462 41.208 78.5369 41.2533 78.6009 41.344L79.0009 41.864ZM89.3638 39.352C88.7078 39.3733 88.1478 39.4267 87.6838 39.512C87.2251 39.592 86.8491 39.6987 86.5558 39.832C86.2678 39.9653 86.0571 40.1227 85.9238 40.304C85.7958 40.4853 85.7318 40.688 85.7318 40.912C85.7318 41.1253 85.7664 41.3093 85.8358 41.464C85.9051 41.6187 85.9984 41.7467 86.1158 41.848C86.2384 41.944 86.3798 42.016 86.5398 42.064C86.7051 42.1067 86.8811 42.128 87.0678 42.128C87.3184 42.128 87.5478 42.104 87.7558 42.056C87.9638 42.0027 88.1584 41.928 88.3398 41.832C88.5264 41.736 88.7024 41.6213 88.8678 41.488C89.0384 41.3547 89.2038 41.2027 89.3638 41.032V39.352ZM84.7638 36.04C85.2118 35.608 85.6944 35.2853 86.2118 35.072C86.7291 34.8587 87.3024 34.752 87.9318 34.752C88.3851 34.752 88.7878 34.8267 89.1398 34.976C89.4918 35.1253 89.7878 35.3333 90.0278 35.6C90.2678 35.8667 90.4491 36.1893 90.5718 36.568C90.6944 36.9467 90.7558 37.3627 90.7558 37.816V43H90.1238C89.9851 43 89.8784 42.9787 89.8038 42.936C89.7291 42.888 89.6704 42.7973 89.6278 42.664L89.4678 41.896C89.2544 42.0933 89.0464 42.2693 88.8438 42.424C88.6411 42.5733 88.4278 42.7013 88.2038 42.808C87.9798 42.9093 87.7398 42.9867 87.4838 43.04C87.2331 43.0987 86.9531 43.128 86.6438 43.128C86.3291 43.128 86.0331 43.0853 85.7558 43C85.4784 42.9093 85.2358 42.776 85.0278 42.6C84.8251 42.424 84.6624 42.2027 84.5398 41.936C84.4224 41.664 84.3638 41.344 84.3638 40.976C84.3638 40.656 84.4518 40.3493 84.6278 40.056C84.8038 39.7573 85.0891 39.4933 85.4838 39.264C85.8784 39.0347 86.3931 38.848 87.0278 38.704C87.6624 38.5547 88.4411 38.4693 89.3638 38.448V37.816C89.3638 37.1867 89.2278 36.712 88.9558 36.392C88.6838 36.0667 88.2864 35.904 87.7638 35.904C87.4118 35.904 87.1158 35.9493 86.8758 36.04C86.6411 36.1253 86.4358 36.224 86.2598 36.336C86.0891 36.4427 85.9398 36.5413 85.8118 36.632C85.6891 36.7173 85.5664 36.76 85.4438 36.76C85.3478 36.76 85.2651 36.736 85.1958 36.688C85.1264 36.6347 85.0678 36.5707 85.0197 36.496L84.7638 36.04ZM98.2049 36.816C97.9489 36.4747 97.6635 36.232 97.3489 36.088C97.0342 35.9387 96.6849 35.864 96.3009 35.864C95.5489 35.864 94.9702 36.1333 94.5649 36.672C94.1595 37.2107 93.9569 37.9787 93.9569 38.976C93.9569 39.504 94.0022 39.9573 94.0929 40.336C94.1835 40.7093 94.3169 41.0187 94.4929 41.264C94.6689 41.504 94.8849 41.68 95.1409 41.792C95.3969 41.904 95.6875 41.96 96.0129 41.96C96.4822 41.96 96.8902 41.8533 97.2369 41.64C97.5889 41.4267 97.9115 41.1253 98.2049 40.736V36.816ZM99.6289 34.896V45.744H98.2049V41.792C97.8689 42.1867 97.4822 42.5067 97.0449 42.752C96.6075 42.992 96.1089 43.112 95.5489 43.112C95.0849 43.112 94.6635 43.024 94.2849 42.848C93.9062 42.6667 93.5835 42.4027 93.3169 42.056C93.0502 41.7093 92.8449 41.2773 92.7009 40.76C92.5569 40.2427 92.4849 39.648 92.4849 38.976C92.4849 38.3787 92.5649 37.824 92.7249 37.312C92.8849 36.7947 93.1142 36.3467 93.4129 35.968C93.7115 35.5893 94.0769 35.2933 94.5089 35.08C94.9462 34.8613 95.4369 34.752 95.9809 34.752C96.5089 34.752 96.9569 34.8453 97.3249 35.032C97.6929 35.2187 98.0182 35.48 98.3009 35.816L98.3969 35.192C98.4502 34.9947 98.5782 34.896 98.7809 34.896H99.6289ZM108.542 34.896V43H107.694C107.491 43 107.363 42.9013 107.31 42.704L107.198 41.832C106.846 42.2213 106.451 42.536 106.014 42.776C105.577 43.0107 105.075 43.128 104.51 43.128C104.067 43.128 103.675 43.056 103.334 42.912C102.998 42.7627 102.715 42.5547 102.486 42.288C102.257 42.0213 102.083 41.6987 101.966 41.32C101.854 40.9413 101.798 40.5227 101.798 40.064V34.896H103.222V40.064C103.222 40.6773 103.361 41.152 103.638 41.488C103.921 41.824 104.35 41.992 104.926 41.992C105.347 41.992 105.739 41.8933 106.102 41.696C106.47 41.4933 106.809 41.216 107.118 40.864V34.896H108.542ZM112.312 34.896V43H110.88V34.896H112.312ZM113.96 31.408L112.096 33.472C112.021 33.552 111.947 33.6107 111.872 33.648C111.803 33.68 111.712 33.696 111.6 33.696H110.752L111.936 31.76C112.011 31.6373 112.091 31.5493 112.176 31.496C112.267 31.4373 112.397 31.408 112.568 31.408H113.96ZM121.225 43.128C120.585 43.128 120.092 42.9493 119.745 42.592C119.404 42.2347 119.233 41.72 119.233 41.048V36.088H118.257C118.172 36.088 118.1 36.064 118.041 36.016C117.983 35.9627 117.953 35.8827 117.953 35.776V35.208L119.281 35.04L119.609 32.536C119.625 32.456 119.66 32.392 119.713 32.344C119.772 32.2907 119.847 32.264 119.937 32.264H120.657V35.056H123.001V36.088H120.657V40.952C120.657 41.2933 120.74 41.5467 120.905 41.712C121.071 41.8773 121.284 41.96 121.545 41.96C121.695 41.96 121.823 41.9413 121.929 41.904C122.041 41.8613 122.137 41.816 122.217 41.768C122.297 41.72 122.364 41.6773 122.417 41.64C122.476 41.5973 122.527 41.576 122.569 41.576C122.644 41.576 122.711 41.6213 122.769 41.712L123.185 42.392C122.94 42.6213 122.644 42.8027 122.297 42.936C121.951 43.064 121.593 43.128 121.225 43.128ZM131.136 34.896V43H130.288C130.085 43 129.957 42.9013 129.904 42.704L129.792 41.832C129.44 42.2213 129.045 42.536 128.608 42.776C128.17 43.0107 127.669 43.128 127.104 43.128C126.661 43.128 126.269 43.056 125.928 42.912C125.592 42.7627 125.309 42.5547 125.08 42.288C124.85 42.0213 124.677 41.6987 124.56 41.32C124.448 40.9413 124.392 40.5227 124.392 40.064V34.896H125.816V40.064C125.816 40.6773 125.954 41.152 126.232 41.488C126.514 41.824 126.944 41.992 127.52 41.992C127.941 41.992 128.333 41.8933 128.696 41.696C129.064 41.4933 129.402 41.216 129.712 40.864V34.896H131.136ZM138.114 36.232C138.05 36.3493 137.951 36.408 137.818 36.408C137.738 36.408 137.647 36.3787 137.546 36.32C137.444 36.2613 137.319 36.1973 137.17 36.128C137.026 36.0533 136.852 35.9867 136.65 35.928C136.447 35.864 136.207 35.832 135.93 35.832C135.69 35.832 135.474 35.864 135.282 35.928C135.09 35.9867 134.924 36.0693 134.786 36.176C134.652 36.2827 134.548 36.408 134.474 36.552C134.404 36.6907 134.37 36.8427 134.37 37.008C134.37 37.216 134.428 37.3893 134.546 37.528C134.668 37.6667 134.828 37.7867 135.026 37.888C135.223 37.9893 135.447 38.08 135.698 38.16C135.948 38.2347 136.204 38.3173 136.466 38.408C136.732 38.4933 136.991 38.5893 137.242 38.696C137.492 38.8027 137.716 38.936 137.914 39.096C138.111 39.256 138.268 39.4533 138.386 39.688C138.508 39.9173 138.57 40.1947 138.57 40.52C138.57 40.8933 138.503 41.24 138.37 41.56C138.236 41.8747 138.039 42.1493 137.778 42.384C137.516 42.6133 137.196 42.7947 136.818 42.928C136.439 43.0613 136.002 43.128 135.506 43.128C134.94 43.128 134.428 43.0373 133.97 42.856C133.511 42.6693 133.122 42.432 132.802 42.144L133.138 41.6C133.18 41.5307 133.231 41.4773 133.29 41.44C133.348 41.4027 133.423 41.384 133.514 41.384C133.61 41.384 133.711 41.4213 133.818 41.496C133.924 41.5707 134.052 41.6533 134.202 41.744C134.356 41.8347 134.543 41.9173 134.762 41.992C134.98 42.0667 135.252 42.104 135.578 42.104C135.855 42.104 136.098 42.0693 136.306 42C136.514 41.9253 136.687 41.8267 136.826 41.704C136.964 41.5813 137.066 41.44 137.13 41.28C137.199 41.12 137.234 40.9493 137.234 40.768C137.234 40.544 137.172 40.36 137.05 40.216C136.932 40.0667 136.775 39.9413 136.578 39.84C136.38 39.7333 136.154 39.6427 135.898 39.568C135.647 39.488 135.388 39.4053 135.122 39.32C134.86 39.2347 134.602 39.1387 134.346 39.032C134.095 38.92 133.871 38.7813 133.674 38.616C133.476 38.4507 133.316 38.248 133.194 38.008C133.076 37.7627 133.018 37.4667 133.018 37.12C133.018 36.8107 133.082 36.5147 133.21 36.232C133.338 35.944 133.524 35.6933 133.77 35.48C134.015 35.2613 134.316 35.088 134.674 34.96C135.031 34.832 135.439 34.768 135.898 34.768C136.431 34.768 136.908 34.8533 137.33 35.024C137.756 35.1893 138.124 35.4187 138.434 35.712L138.114 36.232ZM145.913 34.896V43H144.489V34.896H145.913ZM146.217 32.352C146.217 32.4907 146.188 32.6213 146.129 32.744C146.076 32.8613 146.001 32.968 145.905 33.064C145.815 33.1547 145.705 33.2267 145.577 33.28C145.455 33.3333 145.324 33.36 145.185 33.36C145.047 33.36 144.916 33.3333 144.793 33.28C144.676 33.2267 144.572 33.1547 144.481 33.064C144.391 32.968 144.319 32.8613 144.265 32.744C144.212 32.6213 144.185 32.4907 144.185 32.352C144.185 32.2133 144.212 32.0827 144.265 31.96C144.319 31.832 144.391 31.7227 144.481 31.632C144.572 31.536 144.676 31.4613 144.793 31.408C144.916 31.3547 145.047 31.328 145.185 31.328C145.324 31.328 145.455 31.3547 145.577 31.408C145.705 31.4613 145.815 31.536 145.905 31.632C146.001 31.7227 146.076 31.832 146.129 31.96C146.188 32.0827 146.217 32.2133 146.217 32.352ZM149.597 36.072C149.773 35.8747 149.96 35.696 150.157 35.536C150.354 35.376 150.562 35.24 150.781 35.128C151.005 35.0107 151.24 34.9227 151.485 34.864C151.736 34.8 152.005 34.768 152.293 34.768C152.736 34.768 153.125 34.8427 153.461 34.992C153.802 35.136 154.085 35.344 154.309 35.616C154.538 35.8827 154.712 36.2053 154.829 36.584C154.946 36.9627 155.005 37.3813 155.005 37.84V43H153.573V37.84C153.573 37.2267 153.432 36.752 153.149 36.416C152.872 36.0747 152.448 35.904 151.877 35.904C151.456 35.904 151.061 36.0053 150.693 36.208C150.33 36.4107 149.994 36.6853 149.685 37.032V43H148.253V34.896H149.109C149.312 34.896 149.437 34.9947 149.485 35.192L149.597 36.072ZM159.999 39.04C160.287 39.04 160.54 39 160.759 38.92C160.978 38.84 161.162 38.728 161.311 38.584C161.46 38.44 161.572 38.2693 161.647 38.072C161.722 37.8693 161.759 37.648 161.759 37.408C161.759 36.912 161.607 36.5173 161.303 36.224C161.004 35.9307 160.57 35.784 159.999 35.784C159.423 35.784 158.983 35.9307 158.679 36.224C158.38 36.5173 158.231 36.912 158.231 37.408C158.231 37.648 158.268 37.8693 158.343 38.072C158.423 38.2693 158.538 38.44 158.687 38.584C158.836 38.728 159.02 38.84 159.239 38.92C159.458 39 159.711 39.04 159.999 39.04ZM162.567 43.44C162.567 43.2427 162.511 43.0827 162.399 42.96C162.287 42.8373 162.135 42.7413 161.943 42.672C161.756 42.6027 161.538 42.5547 161.287 42.528C161.036 42.496 160.77 42.472 160.487 42.456C160.21 42.44 159.927 42.424 159.639 42.408C159.351 42.392 159.074 42.3653 158.807 42.328C158.508 42.4667 158.263 42.6427 158.071 42.856C157.884 43.064 157.791 43.3093 157.791 43.592C157.791 43.7733 157.836 43.9413 157.927 44.096C158.023 44.256 158.167 44.392 158.359 44.504C158.551 44.6213 158.791 44.712 159.079 44.776C159.372 44.8453 159.716 44.88 160.111 44.88C160.495 44.88 160.839 44.8453 161.143 44.776C161.447 44.7067 161.703 44.608 161.911 44.48C162.124 44.352 162.287 44.2 162.399 44.024C162.511 43.848 162.567 43.6533 162.567 43.44ZM164.015 35.216V35.744C164.015 35.92 163.903 36.032 163.679 36.08L162.759 36.2C162.94 36.552 163.031 36.9413 163.031 37.368C163.031 37.7627 162.954 38.1227 162.799 38.448C162.65 38.768 162.442 39.0427 162.175 39.272C161.908 39.5013 161.588 39.6773 161.215 39.8C160.842 39.9227 160.436 39.984 159.999 39.984C159.62 39.984 159.263 39.9387 158.927 39.848C158.756 39.9547 158.626 40.0693 158.535 40.192C158.444 40.3093 158.399 40.4293 158.399 40.552C158.399 40.744 158.476 40.8907 158.631 40.992C158.791 41.088 158.999 41.1573 159.255 41.2C159.511 41.2427 159.802 41.2693 160.127 41.28C160.458 41.2907 160.794 41.3093 161.135 41.336C161.482 41.3573 161.818 41.3973 162.143 41.456C162.474 41.5147 162.767 41.6107 163.023 41.744C163.279 41.8773 163.484 42.0613 163.639 42.296C163.799 42.5307 163.879 42.8347 163.879 43.208C163.879 43.5547 163.791 43.8907 163.615 44.216C163.444 44.5413 163.196 44.8293 162.871 45.08C162.546 45.336 162.146 45.5387 161.671 45.688C161.202 45.8427 160.671 45.92 160.079 45.92C159.487 45.92 158.97 45.8613 158.527 45.744C158.084 45.6267 157.716 45.4693 157.423 45.272C157.13 45.0747 156.908 44.8453 156.759 44.584C156.615 44.328 156.543 44.0587 156.543 43.776C156.543 43.376 156.668 43.0373 156.919 42.76C157.17 42.4827 157.514 42.2613 157.951 42.096C157.711 41.9893 157.519 41.848 157.375 41.672C157.236 41.4907 157.167 41.248 157.167 40.944C157.167 40.8267 157.188 40.7067 157.231 40.584C157.274 40.456 157.338 40.3307 157.423 40.208C157.514 40.08 157.623 39.96 157.751 39.848C157.879 39.736 158.028 39.6373 158.199 39.552C157.799 39.328 157.487 39.032 157.263 38.664C157.039 38.2907 156.927 37.8587 156.927 37.368C156.927 36.9733 157.002 36.616 157.151 36.296C157.306 35.9707 157.519 35.696 157.791 35.472C158.063 35.2427 158.386 35.0667 158.759 34.944C159.138 34.8213 159.551 34.76 159.999 34.76C160.351 34.76 160.679 34.8 160.983 34.88C161.287 34.9547 161.564 35.0667 161.815 35.216H164.015ZM166.839 36.52C167.095 35.9653 167.41 35.5333 167.783 35.224C168.157 34.9093 168.613 34.752 169.151 34.752C169.322 34.752 169.485 34.7707 169.639 34.808C169.799 34.8453 169.941 34.904 170.063 34.984L169.959 36.048C169.927 36.1813 169.847 36.248 169.719 36.248C169.645 36.248 169.535 36.232 169.391 36.2C169.247 36.168 169.085 36.152 168.903 36.152C168.647 36.152 168.418 36.1893 168.215 36.264C168.018 36.3387 167.839 36.4507 167.679 36.6C167.525 36.744 167.383 36.9253 167.255 37.144C167.133 37.3573 167.021 37.6027 166.919 37.88V43H165.487V34.896H166.303C166.458 34.896 166.565 34.9253 166.623 34.984C166.682 35.0427 166.722 35.144 166.743 35.288L166.839 36.52ZM176.411 38.064C176.411 37.7333 176.363 37.432 176.267 37.16C176.177 36.8827 176.041 36.6453 175.859 36.448C175.683 36.2453 175.467 36.0907 175.211 35.984C174.955 35.872 174.665 35.816 174.339 35.816C173.657 35.816 173.115 36.016 172.715 36.416C172.321 36.8107 172.075 37.36 171.979 38.064H176.411ZM177.563 41.864C177.387 42.0773 177.177 42.264 176.931 42.424C176.686 42.5787 176.422 42.7067 176.139 42.808C175.862 42.9093 175.574 42.984 175.275 43.032C174.977 43.0853 174.681 43.112 174.387 43.112C173.827 43.112 173.31 43.0187 172.835 42.832C172.366 42.64 171.958 42.3627 171.611 42C171.27 41.632 171.003 41.1787 170.811 40.64C170.619 40.1013 170.523 39.4827 170.523 38.784C170.523 38.2187 170.609 37.6907 170.779 37.2C170.955 36.7093 171.206 36.2853 171.531 35.928C171.857 35.5653 172.254 35.2827 172.723 35.08C173.193 34.872 173.721 34.768 174.307 34.768C174.793 34.768 175.241 34.8507 175.651 35.016C176.067 35.176 176.425 35.4107 176.723 35.72C177.027 36.024 177.265 36.4027 177.435 36.856C177.606 37.304 177.691 37.816 177.691 38.392C177.691 38.616 177.667 38.7653 177.619 38.84C177.571 38.9147 177.481 38.952 177.347 38.952H171.931C171.947 39.464 172.017 39.9093 172.139 40.288C172.267 40.6667 172.443 40.984 172.667 41.24C172.891 41.4907 173.158 41.68 173.467 41.808C173.777 41.9307 174.123 41.992 174.507 41.992C174.865 41.992 175.171 41.952 175.427 41.872C175.689 41.7867 175.913 41.696 176.099 41.6C176.286 41.504 176.441 41.416 176.563 41.336C176.691 41.2507 176.801 41.208 176.891 41.208C177.009 41.208 177.099 41.2533 177.163 41.344L177.563 41.864ZM184.721 36.824C184.454 36.4667 184.166 36.2187 183.857 36.08C183.547 35.936 183.201 35.864 182.817 35.864C182.065 35.864 181.486 36.1333 181.081 36.672C180.675 37.2107 180.473 37.9787 180.473 38.976C180.473 39.504 180.518 39.9573 180.609 40.336C180.699 40.7093 180.833 41.0187 181.009 41.264C181.185 41.504 181.401 41.68 181.657 41.792C181.913 41.904 182.203 41.96 182.529 41.96C182.998 41.96 183.406 41.8533 183.753 41.64C184.105 41.4267 184.427 41.1253 184.721 40.736V36.824ZM186.145 31.216V43H185.297C185.094 43 184.966 42.9013 184.913 42.704L184.785 41.72C184.438 42.136 184.043 42.472 183.601 42.728C183.158 42.984 182.646 43.112 182.065 43.112C181.601 43.112 181.179 43.024 180.801 42.848C180.422 42.6667 180.099 42.4027 179.833 42.056C179.566 41.7093 179.361 41.2773 179.217 40.76C179.073 40.2427 179.001 39.648 179.001 38.976C179.001 38.3787 179.081 37.824 179.241 37.312C179.401 36.7947 179.63 36.3467 179.929 35.968C180.227 35.5893 180.593 35.2933 181.025 35.08C181.462 34.8613 181.953 34.752 182.497 34.752C182.993 34.752 183.417 34.8373 183.769 35.008C184.126 35.1733 184.443 35.4053 184.721 35.704V31.216H186.145ZM189.898 34.896V43H188.474V34.896H189.898ZM190.202 32.352C190.202 32.4907 190.172 32.6213 190.114 32.744C190.06 32.8613 189.986 32.968 189.89 33.064C189.799 33.1547 189.69 33.2267 189.562 33.28C189.439 33.3333 189.308 33.36 189.17 33.36C189.031 33.36 188.9 33.3333 188.778 33.28C188.66 33.2267 188.556 33.1547 188.466 33.064C188.375 32.968 188.303 32.8613 188.25 32.744C188.196 32.6213 188.17 32.4907 188.17 32.352C188.17 32.2133 188.196 32.0827 188.25 31.96C188.303 31.832 188.375 31.7227 188.466 31.632C188.556 31.536 188.66 31.4613 188.778 31.408C188.9 31.3547 189.031 31.328 189.17 31.328C189.308 31.328 189.439 31.3547 189.562 31.408C189.69 31.4613 189.799 31.536 189.89 31.632C189.986 31.7227 190.06 31.832 190.114 31.96C190.172 32.0827 190.202 32.2133 190.202 32.352ZM197.661 38.064C197.661 37.7333 197.613 37.432 197.517 37.16C197.427 36.8827 197.291 36.6453 197.109 36.448C196.933 36.2453 196.717 36.0907 196.461 35.984C196.205 35.872 195.915 35.816 195.589 35.816C194.907 35.816 194.365 36.016 193.965 36.416C193.571 36.8107 193.325 37.36 193.229 38.064H197.661ZM198.813 41.864C198.637 42.0773 198.427 42.264 198.181 42.424C197.936 42.5787 197.672 42.7067 197.389 42.808C197.112 42.9093 196.824 42.984 196.525 43.032C196.227 43.0853 195.931 43.112 195.637 43.112C195.077 43.112 194.56 43.0187 194.085 42.832C193.616 42.64 193.208 42.3627 192.861 42C192.52 41.632 192.253 41.1787 192.061 40.64C191.869 40.1013 191.773 39.4827 191.773 38.784C191.773 38.2187 191.859 37.6907 192.029 37.2C192.205 36.7093 192.456 36.2853 192.781 35.928C193.107 35.5653 193.504 35.2827 193.973 35.08C194.443 34.872 194.971 34.768 195.557 34.768C196.043 34.768 196.491 34.8507 196.901 35.016C197.317 35.176 197.675 35.4107 197.973 35.72C198.277 36.024 198.515 36.4027 198.685 36.856C198.856 37.304 198.941 37.816 198.941 38.392C198.941 38.616 198.917 38.7653 198.869 38.84C198.821 38.9147 198.731 38.952 198.597 38.952H193.181C193.197 39.464 193.267 39.9093 193.389 40.288C193.517 40.6667 193.693 40.984 193.917 41.24C194.141 41.4907 194.408 41.68 194.717 41.808C195.027 41.9307 195.373 41.992 195.757 41.992C196.115 41.992 196.421 41.952 196.677 41.872C196.939 41.7867 197.163 41.696 197.349 41.6C197.536 41.504 197.691 41.416 197.813 41.336C197.941 41.2507 198.051 41.208 198.141 41.208C198.259 41.208 198.349 41.2533 198.413 41.344L198.813 41.864ZM202.035 36.072C202.211 35.8747 202.397 35.696 202.595 35.536C202.792 35.376 203 35.24 203.219 35.128C203.443 35.0107 203.677 34.9227 203.923 34.864C204.173 34.8 204.443 34.768 204.731 34.768C205.173 34.768 205.563 34.8427 205.899 34.992C206.24 35.136 206.523 35.344 206.747 35.616C206.976 35.8827 207.149 36.2053 207.267 36.584C207.384 36.9627 207.443 37.3813 207.443 37.84V43H206.011V37.84C206.011 37.2267 205.869 36.752 205.587 36.416C205.309 36.0747 204.885 35.904 204.315 35.904C203.893 35.904 203.499 36.0053 203.131 36.208C202.768 36.4107 202.432 36.6853 202.123 37.032V43H200.691V34.896H201.547C201.749 34.896 201.875 34.9947 201.923 35.192L202.035 36.072ZM211.991 43.128C211.351 43.128 210.858 42.9493 210.511 42.592C210.17 42.2347 209.999 41.72 209.999 41.048V36.088H209.023C208.938 36.088 208.866 36.064 208.807 36.016C208.748 35.9627 208.719 35.8827 208.719 35.776V35.208L210.047 35.04L210.375 32.536C210.391 32.456 210.426 32.392 210.479 32.344C210.538 32.2907 210.612 32.264 210.703 32.264H211.423V35.056H213.767V36.088H211.423V40.952C211.423 41.2933 211.506 41.5467 211.671 41.712C211.836 41.8773 212.05 41.96 212.311 41.96C212.46 41.96 212.588 41.9413 212.695 41.904C212.807 41.8613 212.903 41.816 212.983 41.768C213.063 41.72 213.13 41.6773 213.183 41.64C213.242 41.5973 213.292 41.576 213.335 41.576C213.41 41.576 213.476 41.6213 213.535 41.712L213.951 42.392C213.706 42.6213 213.41 42.8027 213.063 42.936C212.716 43.064 212.359 43.128 211.991 43.128ZM220.615 38.064C220.615 37.7333 220.567 37.432 220.471 37.16C220.38 36.8827 220.244 36.6453 220.063 36.448C219.887 36.2453 219.671 36.0907 219.415 35.984C219.159 35.872 218.868 35.816 218.543 35.816C217.86 35.816 217.319 36.016 216.919 36.416C216.524 36.8107 216.279 37.36 216.183 38.064H220.615ZM221.767 41.864C221.591 42.0773 221.38 42.264 221.135 42.424C220.889 42.5787 220.625 42.7067 220.343 42.808C220.065 42.9093 219.777 42.984 219.479 43.032C219.18 43.0853 218.884 43.112 218.591 43.112C218.031 43.112 217.513 43.0187 217.039 42.832C216.569 42.64 216.161 42.3627 215.815 42C215.473 41.632 215.207 41.1787 215.015 40.64C214.823 40.1013 214.727 39.4827 214.727 38.784C214.727 38.2187 214.812 37.6907 214.983 37.2C215.159 36.7093 215.409 36.2853 215.735 35.928C216.06 35.5653 216.457 35.2827 216.927 35.08C217.396 34.872 217.924 34.768 218.511 34.768C218.996 34.768 219.444 34.8507 219.855 35.016C220.271 35.176 220.628 35.4107 220.927 35.72C221.231 36.024 221.468 36.4027 221.639 36.856C221.809 37.304 221.895 37.816 221.895 38.392C221.895 38.616 221.871 38.7653 221.823 38.84C221.775 38.9147 221.684 38.952 221.551 38.952H216.135C216.151 39.464 216.22 39.9093 216.343 40.288C216.471 40.6667 216.647 40.984 216.871 41.24C217.095 41.4907 217.361 41.68 217.671 41.808C217.98 41.9307 218.327 41.992 218.711 41.992C219.068 41.992 219.375 41.952 219.631 41.872C219.892 41.7867 220.116 41.696 220.303 41.6C220.489 41.504 220.644 41.416 220.767 41.336C220.895 41.2507 221.004 41.208 221.095 41.208C221.212 41.208 221.303 41.2533 221.367 41.344L221.767 41.864ZM228.364 36.232C228.3 36.3493 228.201 36.408 228.068 36.408C227.988 36.408 227.897 36.3787 227.796 36.32C227.694 36.2613 227.569 36.1973 227.42 36.128C227.276 36.0533 227.102 35.9867 226.9 35.928C226.697 35.864 226.457 35.832 226.18 35.832C225.94 35.832 225.724 35.864 225.532 35.928C225.34 35.9867 225.174 36.0693 225.036 36.176C224.902 36.2827 224.798 36.408 224.724 36.552C224.654 36.6907 224.62 36.8427 224.62 37.008C224.62 37.216 224.678 37.3893 224.796 37.528C224.918 37.6667 225.078 37.7867 225.276 37.888C225.473 37.9893 225.697 38.08 225.948 38.16C226.198 38.2347 226.454 38.3173 226.716 38.408C226.982 38.4933 227.241 38.5893 227.492 38.696C227.742 38.8027 227.966 38.936 228.164 39.096C228.361 39.256 228.518 39.4533 228.636 39.688C228.758 39.9173 228.82 40.1947 228.82 40.52C228.82 40.8933 228.753 41.24 228.62 41.56C228.486 41.8747 228.289 42.1493 228.028 42.384C227.766 42.6133 227.446 42.7947 227.068 42.928C226.689 43.0613 226.252 43.128 225.756 43.128C225.19 43.128 224.678 43.0373 224.22 42.856C223.761 42.6693 223.372 42.432 223.052 42.144L223.388 41.6C223.43 41.5307 223.481 41.4773 223.54 41.44C223.598 41.4027 223.673 41.384 223.764 41.384C223.86 41.384 223.961 41.4213 224.068 41.496C224.174 41.5707 224.302 41.6533 224.452 41.744C224.606 41.8347 224.793 41.9173 225.012 41.992C225.23 42.0667 225.502 42.104 225.828 42.104C226.105 42.104 226.348 42.0693 226.556 42C226.764 41.9253 226.937 41.8267 227.076 41.704C227.214 41.5813 227.316 41.44 227.38 41.28C227.449 41.12 227.484 40.9493 227.484 40.768C227.484 40.544 227.422 40.36 227.3 40.216C227.182 40.0667 227.025 39.9413 226.828 39.84C226.63 39.7333 226.404 39.6427 226.148 39.568C225.897 39.488 225.638 39.4053 225.372 39.32C225.11 39.2347 224.852 39.1387 224.596 39.032C224.345 38.92 224.121 38.7813 223.924 38.616C223.726 38.4507 223.566 38.248 223.444 38.008C223.326 37.7627 223.268 37.4667 223.268 37.12C223.268 36.8107 223.332 36.5147 223.46 36.232C223.588 35.944 223.774 35.6933 224.02 35.48C224.265 35.2613 224.566 35.088 224.924 34.96C225.281 34.832 225.689 34.768 226.148 34.768C226.681 34.768 227.158 34.8533 227.58 35.024C228.006 35.1893 228.374 35.4187 228.684 35.712L228.364 36.232Z" fill="#333333" fill-opacity="0.5"/>
<path d="M263 29C259.146 29 256 32.1459 256 36C256 39.8541 259.146 43 263 43C264.748 43 266.345 42.348 267.574 41.2812L268 41.707V43L274 49L276 47L270 41H268.707L268.281 40.5742C269.348 39.345 270 37.748 270 36C270 32.1459 266.854 29 263 29ZM263 31C265.773 31 268 33.2267 268 36C268 38.7733 265.773 41 263 41C260.227 41 258 38.7733 258 36C258 33.2267 260.227 31 263 31Z" fill="#333333"/>
<g filter="url(#filter1_d)">
<rect x="312" y="17" width="50" height="44" rx="10" fill="white"/>
</g>
<path d="M330 41L330 33" stroke="#333333" stroke-linecap="round"/>
<path d="M344 49L344 46" stroke="#333333" stroke-linecap="round"/>
<path d="M330 49L330 45" stroke="#333333" stroke-linecap="round"/>
<path d="M344 42L344 33" stroke="#333333" stroke-linecap="round"/>
<path d="M337 36L337 33" stroke="#333333" stroke-linecap="round"/>
<path d="M337 49L337 40" stroke="#333333" stroke-linecap="round"/>
<circle cx="330" cy="43" r="2" stroke="#333333" stroke-linecap="round"/>
<circle cx="337" cy="38" r="2" stroke="#333333" stroke-linecap="round"/>
<circle cx="344" cy="44" r="2" stroke="#333333" stroke-linecap="round"/>
<defs>
<filter id="filter0_d" x="0" y="0" width="316" height="84" filterUnits="userSpaceOnUse" color-interpolation-filters="sRGB">
<feFlood flood-opacity="0" result="BackgroundImageFix"/>
<feColorMatrix in="SourceAlpha" type="matrix" values="0 0 0 0 0 0 0 0 0 0 0 0 0 0 0 0 0 0 127 0"/>
<feOffset dx="4" dy="4"/>
<feGaussianBlur stdDeviation="10"/>
<feColorMatrix type="matrix" values="0 0 0 0 0 0 0 0 0 0 0 0 0 0 0 0 0 0 0.15 0"/>
<feBlend mode="normal" in2="BackgroundImageFix" result="effect1_dropShadow"/>
<feBlend mode="normal" in="SourceGraphic" in2="effect1_dropShadow" result="shape"/>
</filter>
<filter id="filter1_d" x="296" y="1" width="90" height="84" filterUnits="userSpaceOnUse" color-interpolation-filters="sRGB">
<feFlood flood-opacity="0" result="BackgroundImageFix"/>
<feColorMatrix in="SourceAlpha" type="matrix" values="0 0 0 0 0 0 0 0 0 0 0 0 0 0 0 0 0 0 127 0"/>
<feOffset dx="4" dy="4"/>
<feGaussianBlur stdDeviation="10"/>
<feColorMatrix type="matrix" values="0 0 0 0 0 0 0 0 0 0 0 0 0 0 0 0 0 0 0.15 0"/>
<feBlend mode="normal" in2="BackgroundImageFix" result="effect1_dropShadow"/>
<feBlend mode="normal" in="SourceGraphic" in2="effect1_dropShadow" result="shape"/>
</filter>
</defs>
</svg>
