
<svg width="36" height="35" viewBox="0 0 36 35" fill="none" xmlns="http://www.w3.org/2000/svg">
<g filter="url(#filter0_d)">
<path d="M22.5 4C20.76 4 19.09 4.81 18 6.09C16.91 4.81 15.24 4 13.5 4C10.42 4 8 6.42 8 9.5C8 13.28 11.4 16.36 16.55 21.04L18 22.35L19.45 21.03C24.6 16.36 28 13.28 28 9.5C28 6.42 25.58 4 22.5 4ZM18.1 19.55L18 19.65L17.9 19.55C13.14 15.24 10 12.39 10 9.5C10 7.5 11.5 6 13.5 6C15.04 6 16.54 6.99 17.07 8.36H18.94C19.46 6.99 20.96 6 22.5 6C24.5 6 26 7.5 26 9.5C26 12.39 22.86 15.24 18.1 19.55Z" fill="#628F22"/>
</g>
<defs>
<filter id="filter0_d" x="-2" y="-3" width="40" height="40" filterUnits="userSpaceOnUse" color-interpolation-filters="sRGB">
<feFlood flood-opacity="0" result="BackgroundImageFix"/>
<feColorMatrix in="SourceAlpha" type="matrix" values="0 0 0 0 0 0 0 0 0 0 0 0 0 0 0 0 0 0 127 0"/>
<feOffset dy="4"/>
<feGaussianBlur stdDeviation="4"/>
<feColorMatrix type="matrix" values="0 0 0 0 0 0 0 0 0 0 0 0 0 0 0 0 0 0 0.15 0"/>
<feBlend mode="normal" in2="BackgroundImageFix" result="effect1_dropShadow"/>
<feBlend mode="normal" in="SourceGraphic" in2="effect1_dropShadow" result="shape"/>
</filter>
</defs>
</svg>
