<svg width="374" height="84" viewBox="0 0 374 84" fill="none" xmlns="http://www.w3.org/2000/svg">
<g filter="url(#filter0_d)">
<rect x="16" y="16" width="334" height="44" rx="20" fill="white"/>
</g>
<path d="M45.536 41.736L45.528 43H38.464V31.536H45.528V32.8H40.016V36.608H44.48V37.824H40.016V41.736H45.536ZM51.9574 36.232C51.8934 36.3493 51.7947 36.408 51.6614 36.408C51.5814 36.408 51.4907 36.3787 51.3894 36.32C51.288 36.2613 51.1627 36.1973 51.0134 36.128C50.8694 36.0533 50.696 35.9867 50.4934 35.928C50.2907 35.864 50.0507 35.832 49.7734 35.832C49.5334 35.832 49.3174 35.864 49.1254 35.928C48.9334 35.9867 48.768 36.0693 48.6294 36.176C48.496 36.2827 48.392 36.408 48.3174 36.552C48.248 36.6907 48.2134 36.8427 48.2134 37.008C48.2134 37.216 48.272 37.3893 48.3894 37.528C48.512 37.6667 48.672 37.7867 48.8694 37.888C49.0667 37.9893 49.2907 38.08 49.5414 38.16C49.792 38.2347 50.048 38.3173 50.3094 38.408C50.576 38.4933 50.8347 38.5893 51.0854 38.696C51.336 38.8027 51.56 38.936 51.7574 39.096C51.9547 39.256 52.112 39.4533 52.2294 39.688C52.352 39.9173 52.4134 40.1947 52.4134 40.52C52.4134 40.8933 52.3467 41.24 52.2134 41.56C52.08 41.8747 51.8827 42.1493 51.6214 42.384C51.36 42.6133 51.04 42.7947 50.6614 42.928C50.2827 43.0613 49.8454 43.128 49.3494 43.128C48.784 43.128 48.272 43.0373 47.8134 42.856C47.3547 42.6693 46.9654 42.432 46.6454 42.144L46.9814 41.6C47.024 41.5307 47.0747 41.4773 47.1334 41.44C47.192 41.4027 47.2667 41.384 47.3574 41.384C47.4534 41.384 47.5547 41.4213 47.6614 41.496C47.768 41.5707 47.896 41.6533 48.0454 41.744C48.2 41.8347 48.3867 41.9173 48.6054 41.992C48.824 42.0667 49.096 42.104 49.4214 42.104C49.6987 42.104 49.9414 42.0693 50.1494 42C50.3574 41.9253 50.5307 41.8267 50.6694 41.704C50.808 41.5813 50.9094 41.44 50.9734 41.28C51.0427 41.12 51.0774 40.9493 51.0774 40.768C51.0774 40.544 51.016 40.36 50.8934 40.216C50.776 40.0667 50.6187 39.9413 50.4214 39.84C50.224 39.7333 49.9974 39.6427 49.7414 39.568C49.4907 39.488 49.232 39.4053 48.9654 39.32C48.704 39.2347 48.4454 39.1387 48.1894 39.032C47.9387 38.92 47.7147 38.7813 47.5174 38.616C47.32 38.4507 47.16 38.248 47.0374 38.008C46.92 37.7627 46.8614 37.4667 46.8614 37.12C46.8614 36.8107 46.9254 36.5147 47.0534 36.232C47.1814 35.944 47.368 35.6933 47.6134 35.48C47.8587 35.2613 48.16 35.088 48.5174 34.96C48.8747 34.832 49.2827 34.768 49.7414 34.768C50.2747 34.768 50.752 34.8533 51.1734 35.024C51.6 35.1893 51.968 35.4187 52.2774 35.712L51.9574 36.232ZM59.7993 36.336C59.7566 36.3947 59.7139 36.44 59.6713 36.472C59.6286 36.504 59.5699 36.52 59.4953 36.52C59.4153 36.52 59.3273 36.488 59.2313 36.424C59.1353 36.3547 59.0153 36.28 58.8713 36.2C58.7326 36.12 58.5593 36.048 58.3513 35.984C58.1486 35.9147 57.8979 35.88 57.5993 35.88C57.1993 35.88 56.8473 35.952 56.5433 36.096C56.2393 36.2347 55.9833 36.4373 55.7753 36.704C55.5726 36.9707 55.4179 37.2933 55.3113 37.672C55.2099 38.0507 55.1593 38.4747 55.1593 38.944C55.1593 39.4347 55.2153 39.872 55.3273 40.256C55.4393 40.6347 55.5966 40.9547 55.7993 41.216C56.0073 41.472 56.2553 41.6693 56.5433 41.808C56.8366 41.9413 57.1646 42.008 57.5273 42.008C57.8739 42.008 58.1593 41.968 58.3833 41.888C58.6073 41.8027 58.7913 41.7093 58.9353 41.608C59.0846 41.5067 59.2073 41.416 59.3033 41.336C59.4046 41.2507 59.5033 41.208 59.5993 41.208C59.7166 41.208 59.8073 41.2533 59.8713 41.344L60.2713 41.864C60.0953 42.0827 59.8953 42.2693 59.6713 42.424C59.4473 42.5787 59.2046 42.7093 58.9433 42.816C58.6873 42.9173 58.4179 42.992 58.1353 43.04C57.8526 43.088 57.5646 43.112 57.2713 43.112C56.7646 43.112 56.2926 43.0187 55.8553 42.832C55.4233 42.6453 55.0473 42.376 54.7273 42.024C54.4073 41.6667 54.1566 41.2293 53.9753 40.712C53.7939 40.1947 53.7033 39.6053 53.7033 38.944C53.7033 38.3413 53.7859 37.784 53.9513 37.272C54.1219 36.76 54.3673 36.32 54.6873 35.952C55.0126 35.5787 55.4099 35.288 55.8793 35.08C56.3539 34.872 56.8979 34.768 57.5113 34.768C58.0819 34.768 58.5833 34.8613 59.0153 35.048C59.4526 35.2293 59.8393 35.488 60.1753 35.824L59.7993 36.336ZM63.1519 36.52C63.4079 35.9653 63.7225 35.5333 64.0959 35.224C64.4692 34.9093 64.9252 34.752 65.4639 34.752C65.6345 34.752 65.7972 34.7707 65.9519 34.808C66.1119 34.8453 66.2532 34.904 66.3759 34.984L66.2719 36.048C66.2399 36.1813 66.1599 36.248 66.0319 36.248C65.9572 36.248 65.8479 36.232 65.7039 36.2C65.5599 36.168 65.3972 36.152 65.2159 36.152C64.9599 36.152 64.7305 36.1893 64.5279 36.264C64.3305 36.3387 64.1519 36.4507 63.9919 36.6C63.8372 36.744 63.6959 36.9253 63.5679 37.144C63.4452 37.3573 63.3332 37.6027 63.2319 37.88V43H61.7999V34.896H62.6159C62.7705 34.896 62.8772 34.9253 62.9359 34.984C62.9945 35.0427 63.0345 35.144 63.0559 35.288L63.1519 36.52ZM69.132 34.896V43H67.708V34.896H69.132ZM69.436 32.352C69.436 32.4907 69.4067 32.6213 69.348 32.744C69.2947 32.8613 69.22 32.968 69.124 33.064C69.0333 33.1547 68.924 33.2267 68.796 33.28C68.6733 33.3333 68.5427 33.36 68.404 33.36C68.2653 33.36 68.1347 33.3333 68.012 33.28C67.8947 33.2267 67.7907 33.1547 67.7 33.064C67.6093 32.968 67.5373 32.8613 67.484 32.744C67.4307 32.6213 67.404 32.4907 67.404 32.352C67.404 32.2133 67.4307 32.0827 67.484 31.96C67.5373 31.832 67.6093 31.7227 67.7 31.632C67.7907 31.536 67.8947 31.4613 68.012 31.408C68.1347 31.3547 68.2653 31.328 68.404 31.328C68.5427 31.328 68.6733 31.3547 68.796 31.408C68.924 31.4613 69.0333 31.536 69.124 31.632C69.22 31.7227 69.2947 31.832 69.348 31.96C69.4067 32.0827 69.436 32.2133 69.436 32.352ZM72.9038 41.048C73.1651 41.4 73.4504 41.648 73.7598 41.792C74.0744 41.936 74.4184 42.008 74.7918 42.008C75.5544 42.008 76.1384 41.7387 76.5438 41.2C76.9491 40.6613 77.1518 39.8587 77.1518 38.792C77.1518 37.8 76.9704 37.072 76.6078 36.608C76.2504 36.1387 75.7384 35.904 75.0718 35.904C74.6078 35.904 74.2024 36.0107 73.8558 36.224C73.5144 36.4373 73.1971 36.7387 72.9038 37.128V41.048ZM72.9038 36.064C73.2451 35.6693 73.6291 35.3547 74.0558 35.12C74.4878 34.8853 74.9838 34.768 75.5438 34.768C76.0184 34.768 76.4451 34.8587 76.8238 35.04C77.2078 35.2213 77.5331 35.4853 77.7998 35.832C78.0664 36.1733 78.2691 36.5893 78.4078 37.08C78.5518 37.5707 78.6238 38.1227 78.6238 38.736C78.6238 39.392 78.5438 39.9893 78.3837 40.528C78.2238 41.0667 77.9918 41.528 77.6878 41.912C77.3891 42.2907 77.0238 42.5867 76.5918 42.8C76.1598 43.008 75.6744 43.112 75.1358 43.112C74.6024 43.112 74.1518 43.0133 73.7838 42.816C73.4211 42.6133 73.1038 42.328 72.8318 41.96L72.7598 42.696C72.7171 42.8987 72.5944 43 72.3918 43H71.4718V31.216H72.9038V36.064ZM85.8489 38.064C85.8489 37.7333 85.8009 37.432 85.7049 37.16C85.6142 36.8827 85.4782 36.6453 85.2969 36.448C85.1209 36.2453 84.9049 36.0907 84.6489 35.984C84.3929 35.872 84.1022 35.816 83.7769 35.816C83.0942 35.816 82.5529 36.016 82.1529 36.416C81.7582 36.8107 81.5129 37.36 81.4169 38.064H85.8489ZM87.0009 41.864C86.8249 42.0773 86.6142 42.264 86.3689 42.424C86.1235 42.5787 85.8595 42.7067 85.5769 42.808C85.2995 42.9093 85.0115 42.984 84.7129 43.032C84.4142 43.0853 84.1182 43.112 83.8249 43.112C83.2649 43.112 82.7475 43.0187 82.2729 42.832C81.8035 42.64 81.3955 42.3627 81.0489 42C80.7075 41.632 80.4409 41.1787 80.2489 40.64C80.0569 40.1013 79.9609 39.4827 79.9609 38.784C79.9609 38.2187 80.0462 37.6907 80.2169 37.2C80.3929 36.7093 80.6435 36.2853 80.9689 35.928C81.2942 35.5653 81.6915 35.2827 82.1609 35.08C82.6302 34.872 83.1582 34.768 83.7449 34.768C84.2302 34.768 84.6782 34.8507 85.0889 35.016C85.5049 35.176 85.8622 35.4107 86.1609 35.72C86.4649 36.024 86.7022 36.4027 86.8729 36.856C87.0435 37.304 87.1289 37.816 87.1289 38.392C87.1289 38.616 87.1049 38.7653 87.0569 38.84C87.0089 38.9147 86.9182 38.952 86.7849 38.952H81.3689C81.3849 39.464 81.4542 39.9093 81.5769 40.288C81.7049 40.6667 81.8809 40.984 82.1049 41.24C82.3289 41.4907 82.5955 41.68 82.9049 41.808C83.2142 41.9307 83.5609 41.992 83.9449 41.992C84.3022 41.992 84.6089 41.952 84.8649 41.872C85.1262 41.7867 85.3502 41.696 85.5369 41.6C85.7235 41.504 85.8782 41.416 86.0009 41.336C86.1289 41.2507 86.2382 41.208 86.3289 41.208C86.4462 41.208 86.5369 41.2533 86.6009 41.344L87.0009 41.864ZM97.3638 39.352C96.7078 39.3733 96.1478 39.4267 95.6838 39.512C95.2251 39.592 94.8491 39.6987 94.5558 39.832C94.2678 39.9653 94.0571 40.1227 93.9238 40.304C93.7958 40.4853 93.7318 40.688 93.7318 40.912C93.7318 41.1253 93.7664 41.3093 93.8358 41.464C93.9051 41.6187 93.9984 41.7467 94.1158 41.848C94.2384 41.944 94.3798 42.016 94.5398 42.064C94.7051 42.1067 94.8811 42.128 95.0678 42.128C95.3184 42.128 95.5478 42.104 95.7558 42.056C95.9638 42.0027 96.1584 41.928 96.3398 41.832C96.5264 41.736 96.7024 41.6213 96.8678 41.488C97.0384 41.3547 97.2038 41.2027 97.3638 41.032V39.352ZM92.7638 36.04C93.2118 35.608 93.6944 35.2853 94.2118 35.072C94.7291 34.8587 95.3024 34.752 95.9318 34.752C96.3851 34.752 96.7878 34.8267 97.1398 34.976C97.4918 35.1253 97.7878 35.3333 98.0278 35.6C98.2678 35.8667 98.4491 36.1893 98.5718 36.568C98.6944 36.9467 98.7558 37.3627 98.7558 37.816V43H98.1238C97.9851 43 97.8784 42.9787 97.8038 42.936C97.7291 42.888 97.6704 42.7973 97.6278 42.664L97.4678 41.896C97.2544 42.0933 97.0464 42.2693 96.8438 42.424C96.6411 42.5733 96.4278 42.7013 96.2038 42.808C95.9798 42.9093 95.7398 42.9867 95.4838 43.04C95.2331 43.0987 94.9531 43.128 94.6438 43.128C94.3291 43.128 94.0331 43.0853 93.7558 43C93.4784 42.9093 93.2358 42.776 93.0278 42.6C92.8251 42.424 92.6624 42.2027 92.5398 41.936C92.4224 41.664 92.3638 41.344 92.3638 40.976C92.3638 40.656 92.4518 40.3493 92.6278 40.056C92.8038 39.7573 93.0891 39.4933 93.4838 39.264C93.8784 39.0347 94.3931 38.848 95.0278 38.704C95.6624 38.5547 96.4411 38.4693 97.3638 38.448V37.816C97.3638 37.1867 97.2278 36.712 96.9558 36.392C96.6838 36.0667 96.2864 35.904 95.7638 35.904C95.4118 35.904 95.1158 35.9493 94.8758 36.04C94.6411 36.1253 94.4358 36.224 94.2598 36.336C94.0891 36.4427 93.9398 36.5413 93.8118 36.632C93.6891 36.7173 93.5664 36.76 93.4438 36.76C93.3478 36.76 93.2651 36.736 93.1958 36.688C93.1264 36.6347 93.0678 36.5707 93.0197 36.496L92.7638 36.04ZM106.205 36.816C105.949 36.4747 105.664 36.232 105.349 36.088C105.034 35.9387 104.685 35.864 104.301 35.864C103.549 35.864 102.97 36.1333 102.565 36.672C102.16 37.2107 101.957 37.9787 101.957 38.976C101.957 39.504 102.002 39.9573 102.093 40.336C102.184 40.7093 102.317 41.0187 102.493 41.264C102.669 41.504 102.885 41.68 103.141 41.792C103.397 41.904 103.688 41.96 104.013 41.96C104.482 41.96 104.89 41.8533 105.237 41.64C105.589 41.4267 105.912 41.1253 106.205 40.736V36.816ZM107.629 34.896V45.744H106.205V41.792C105.869 42.1867 105.482 42.5067 105.045 42.752C104.608 42.992 104.109 43.112 103.549 43.112C103.085 43.112 102.664 43.024 102.285 42.848C101.906 42.6667 101.584 42.4027 101.317 42.056C101.05 41.7093 100.845 41.2773 100.701 40.76C100.557 40.2427 100.485 39.648 100.485 38.976C100.485 38.3787 100.565 37.824 100.725 37.312C100.885 36.7947 101.114 36.3467 101.413 35.968C101.712 35.5893 102.077 35.2933 102.509 35.08C102.946 34.8613 103.437 34.752 103.981 34.752C104.509 34.752 104.957 34.8453 105.325 35.032C105.693 35.2187 106.018 35.48 106.301 35.816L106.397 35.192C106.45 34.9947 106.578 34.896 106.781 34.896H107.629ZM116.542 34.896V43H115.694C115.491 43 115.363 42.9013 115.31 42.704L115.198 41.832C114.846 42.2213 114.451 42.536 114.014 42.776C113.577 43.0107 113.075 43.128 112.51 43.128C112.067 43.128 111.675 43.056 111.334 42.912C110.998 42.7627 110.715 42.5547 110.486 42.288C110.257 42.0213 110.083 41.6987 109.966 41.32C109.854 40.9413 109.798 40.5227 109.798 40.064V34.896H111.222V40.064C111.222 40.6773 111.361 41.152 111.638 41.488C111.921 41.824 112.35 41.992 112.926 41.992C113.347 41.992 113.739 41.8933 114.102 41.696C114.47 41.4933 114.809 41.216 115.118 40.864V34.896H116.542ZM120.312 34.896V43H118.88V34.896H120.312ZM121.96 31.408L120.096 33.472C120.021 33.552 119.947 33.6107 119.872 33.648C119.803 33.68 119.712 33.696 119.6 33.696H118.752L119.936 31.76C120.011 31.6373 120.091 31.5493 120.176 31.496C120.267 31.4373 120.397 31.408 120.568 31.408H121.96ZM129.225 43.128C128.585 43.128 128.092 42.9493 127.745 42.592C127.404 42.2347 127.233 41.72 127.233 41.048V36.088H126.257C126.172 36.088 126.1 36.064 126.041 36.016C125.983 35.9627 125.953 35.8827 125.953 35.776V35.208L127.281 35.04L127.609 32.536C127.625 32.456 127.66 32.392 127.713 32.344C127.772 32.2907 127.847 32.264 127.937 32.264H128.657V35.056H131.001V36.088H128.657V40.952C128.657 41.2933 128.74 41.5467 128.905 41.712C129.071 41.8773 129.284 41.96 129.545 41.96C129.695 41.96 129.823 41.9413 129.929 41.904C130.041 41.8613 130.137 41.816 130.217 41.768C130.297 41.72 130.364 41.6773 130.417 41.64C130.476 41.5973 130.527 41.576 130.569 41.576C130.644 41.576 130.711 41.6213 130.769 41.712L131.185 42.392C130.94 42.6213 130.644 42.8027 130.297 42.936C129.951 43.064 129.593 43.128 129.225 43.128ZM139.136 34.896V43H138.288C138.085 43 137.957 42.9013 137.904 42.704L137.792 41.832C137.44 42.2213 137.045 42.536 136.608 42.776C136.17 43.0107 135.669 43.128 135.104 43.128C134.661 43.128 134.269 43.056 133.928 42.912C133.592 42.7627 133.309 42.5547 133.08 42.288C132.85 42.0213 132.677 41.6987 132.56 41.32C132.448 40.9413 132.392 40.5227 132.392 40.064V34.896H133.816V40.064C133.816 40.6773 133.954 41.152 134.232 41.488C134.514 41.824 134.944 41.992 135.52 41.992C135.941 41.992 136.333 41.8933 136.696 41.696C137.064 41.4933 137.402 41.216 137.712 40.864V34.896H139.136ZM146.114 36.232C146.05 36.3493 145.951 36.408 145.818 36.408C145.738 36.408 145.647 36.3787 145.546 36.32C145.444 36.2613 145.319 36.1973 145.17 36.128C145.026 36.0533 144.852 35.9867 144.65 35.928C144.447 35.864 144.207 35.832 143.93 35.832C143.69 35.832 143.474 35.864 143.282 35.928C143.09 35.9867 142.924 36.0693 142.786 36.176C142.652 36.2827 142.548 36.408 142.474 36.552C142.404 36.6907 142.37 36.8427 142.37 37.008C142.37 37.216 142.428 37.3893 142.546 37.528C142.668 37.6667 142.828 37.7867 143.026 37.888C143.223 37.9893 143.447 38.08 143.698 38.16C143.948 38.2347 144.204 38.3173 144.466 38.408C144.732 38.4933 144.991 38.5893 145.242 38.696C145.492 38.8027 145.716 38.936 145.914 39.096C146.111 39.256 146.268 39.4533 146.386 39.688C146.508 39.9173 146.57 40.1947 146.57 40.52C146.57 40.8933 146.503 41.24 146.37 41.56C146.236 41.8747 146.039 42.1493 145.778 42.384C145.516 42.6133 145.196 42.7947 144.818 42.928C144.439 43.0613 144.002 43.128 143.506 43.128C142.94 43.128 142.428 43.0373 141.97 42.856C141.511 42.6693 141.122 42.432 140.802 42.144L141.138 41.6C141.18 41.5307 141.231 41.4773 141.29 41.44C141.348 41.4027 141.423 41.384 141.514 41.384C141.61 41.384 141.711 41.4213 141.818 41.496C141.924 41.5707 142.052 41.6533 142.202 41.744C142.356 41.8347 142.543 41.9173 142.762 41.992C142.98 42.0667 143.252 42.104 143.578 42.104C143.855 42.104 144.098 42.0693 144.306 42C144.514 41.9253 144.687 41.8267 144.826 41.704C144.964 41.5813 145.066 41.44 145.13 41.28C145.199 41.12 145.234 40.9493 145.234 40.768C145.234 40.544 145.172 40.36 145.05 40.216C144.932 40.0667 144.775 39.9413 144.578 39.84C144.38 39.7333 144.154 39.6427 143.898 39.568C143.647 39.488 143.388 39.4053 143.122 39.32C142.86 39.2347 142.602 39.1387 142.346 39.032C142.095 38.92 141.871 38.7813 141.674 38.616C141.476 38.4507 141.316 38.248 141.194 38.008C141.076 37.7627 141.018 37.4667 141.018 37.12C141.018 36.8107 141.082 36.5147 141.21 36.232C141.338 35.944 141.524 35.6933 141.77 35.48C142.015 35.2613 142.316 35.088 142.674 34.96C143.031 34.832 143.439 34.768 143.898 34.768C144.431 34.768 144.908 34.8533 145.33 35.024C145.756 35.1893 146.124 35.4187 146.434 35.712L146.114 36.232ZM153.913 34.896V43H152.489V34.896H153.913ZM154.217 32.352C154.217 32.4907 154.188 32.6213 154.129 32.744C154.076 32.8613 154.001 32.968 153.905 33.064C153.815 33.1547 153.705 33.2267 153.577 33.28C153.455 33.3333 153.324 33.36 153.185 33.36C153.047 33.36 152.916 33.3333 152.793 33.28C152.676 33.2267 152.572 33.1547 152.481 33.064C152.391 32.968 152.319 32.8613 152.265 32.744C152.212 32.6213 152.185 32.4907 152.185 32.352C152.185 32.2133 152.212 32.0827 152.265 31.96C152.319 31.832 152.391 31.7227 152.481 31.632C152.572 31.536 152.676 31.4613 152.793 31.408C152.916 31.3547 153.047 31.328 153.185 31.328C153.324 31.328 153.455 31.3547 153.577 31.408C153.705 31.4613 153.815 31.536 153.905 31.632C154.001 31.7227 154.076 31.832 154.129 31.96C154.188 32.0827 154.217 32.2133 154.217 32.352ZM157.597 36.072C157.773 35.8747 157.96 35.696 158.157 35.536C158.354 35.376 158.562 35.24 158.781 35.128C159.005 35.0107 159.24 34.9227 159.485 34.864C159.736 34.8 160.005 34.768 160.293 34.768C160.736 34.768 161.125 34.8427 161.461 34.992C161.802 35.136 162.085 35.344 162.309 35.616C162.538 35.8827 162.712 36.2053 162.829 36.584C162.946 36.9627 163.005 37.3813 163.005 37.84V43H161.573V37.84C161.573 37.2267 161.432 36.752 161.149 36.416C160.872 36.0747 160.448 35.904 159.877 35.904C159.456 35.904 159.061 36.0053 158.693 36.208C158.33 36.4107 157.994 36.6853 157.685 37.032V43H156.253V34.896H157.109C157.312 34.896 157.437 34.9947 157.485 35.192L157.597 36.072ZM167.999 39.04C168.287 39.04 168.54 39 168.759 38.92C168.978 38.84 169.162 38.728 169.311 38.584C169.46 38.44 169.572 38.2693 169.647 38.072C169.722 37.8693 169.759 37.648 169.759 37.408C169.759 36.912 169.607 36.5173 169.303 36.224C169.004 35.9307 168.57 35.784 167.999 35.784C167.423 35.784 166.983 35.9307 166.679 36.224C166.38 36.5173 166.231 36.912 166.231 37.408C166.231 37.648 166.268 37.8693 166.343 38.072C166.423 38.2693 166.538 38.44 166.687 38.584C166.836 38.728 167.02 38.84 167.239 38.92C167.458 39 167.711 39.04 167.999 39.04ZM170.567 43.44C170.567 43.2427 170.511 43.0827 170.399 42.96C170.287 42.8373 170.135 42.7413 169.943 42.672C169.756 42.6027 169.538 42.5547 169.287 42.528C169.036 42.496 168.77 42.472 168.487 42.456C168.21 42.44 167.927 42.424 167.639 42.408C167.351 42.392 167.074 42.3653 166.807 42.328C166.508 42.4667 166.263 42.6427 166.071 42.856C165.884 43.064 165.791 43.3093 165.791 43.592C165.791 43.7733 165.836 43.9413 165.927 44.096C166.023 44.256 166.167 44.392 166.359 44.504C166.551 44.6213 166.791 44.712 167.079 44.776C167.372 44.8453 167.716 44.88 168.111 44.88C168.495 44.88 168.839 44.8453 169.143 44.776C169.447 44.7067 169.703 44.608 169.911 44.48C170.124 44.352 170.287 44.2 170.399 44.024C170.511 43.848 170.567 43.6533 170.567 43.44ZM172.015 35.216V35.744C172.015 35.92 171.903 36.032 171.679 36.08L170.759 36.2C170.94 36.552 171.031 36.9413 171.031 37.368C171.031 37.7627 170.954 38.1227 170.799 38.448C170.65 38.768 170.442 39.0427 170.175 39.272C169.908 39.5013 169.588 39.6773 169.215 39.8C168.842 39.9227 168.436 39.984 167.999 39.984C167.62 39.984 167.263 39.9387 166.927 39.848C166.756 39.9547 166.626 40.0693 166.535 40.192C166.444 40.3093 166.399 40.4293 166.399 40.552C166.399 40.744 166.476 40.8907 166.631 40.992C166.791 41.088 166.999 41.1573 167.255 41.2C167.511 41.2427 167.802 41.2693 168.127 41.28C168.458 41.2907 168.794 41.3093 169.135 41.336C169.482 41.3573 169.818 41.3973 170.143 41.456C170.474 41.5147 170.767 41.6107 171.023 41.744C171.279 41.8773 171.484 42.0613 171.639 42.296C171.799 42.5307 171.879 42.8347 171.879 43.208C171.879 43.5547 171.791 43.8907 171.615 44.216C171.444 44.5413 171.196 44.8293 170.871 45.08C170.546 45.336 170.146 45.5387 169.671 45.688C169.202 45.8427 168.671 45.92 168.079 45.92C167.487 45.92 166.97 45.8613 166.527 45.744C166.084 45.6267 165.716 45.4693 165.423 45.272C165.13 45.0747 164.908 44.8453 164.759 44.584C164.615 44.328 164.543 44.0587 164.543 43.776C164.543 43.376 164.668 43.0373 164.919 42.76C165.17 42.4827 165.514 42.2613 165.951 42.096C165.711 41.9893 165.519 41.848 165.375 41.672C165.236 41.4907 165.167 41.248 165.167 40.944C165.167 40.8267 165.188 40.7067 165.231 40.584C165.274 40.456 165.338 40.3307 165.423 40.208C165.514 40.08 165.623 39.96 165.751 39.848C165.879 39.736 166.028 39.6373 166.199 39.552C165.799 39.328 165.487 39.032 165.263 38.664C165.039 38.2907 164.927 37.8587 164.927 37.368C164.927 36.9733 165.002 36.616 165.151 36.296C165.306 35.9707 165.519 35.696 165.791 35.472C166.063 35.2427 166.386 35.0667 166.759 34.944C167.138 34.8213 167.551 34.76 167.999 34.76C168.351 34.76 168.679 34.8 168.983 34.88C169.287 34.9547 169.564 35.0667 169.815 35.216H172.015ZM174.839 36.52C175.095 35.9653 175.41 35.5333 175.783 35.224C176.157 34.9093 176.613 34.752 177.151 34.752C177.322 34.752 177.485 34.7707 177.639 34.808C177.799 34.8453 177.941 34.904 178.063 34.984L177.959 36.048C177.927 36.1813 177.847 36.248 177.719 36.248C177.645 36.248 177.535 36.232 177.391 36.2C177.247 36.168 177.085 36.152 176.903 36.152C176.647 36.152 176.418 36.1893 176.215 36.264C176.018 36.3387 175.839 36.4507 175.679 36.6C175.525 36.744 175.383 36.9253 175.255 37.144C175.133 37.3573 175.021 37.6027 174.919 37.88V43H173.487V34.896H174.303C174.458 34.896 174.565 34.9253 174.623 34.984C174.682 35.0427 174.722 35.144 174.743 35.288L174.839 36.52ZM184.411 38.064C184.411 37.7333 184.363 37.432 184.267 37.16C184.177 36.8827 184.041 36.6453 183.859 36.448C183.683 36.2453 183.467 36.0907 183.211 35.984C182.955 35.872 182.665 35.816 182.339 35.816C181.657 35.816 181.115 36.016 180.715 36.416C180.321 36.8107 180.075 37.36 179.979 38.064H184.411ZM185.563 41.864C185.387 42.0773 185.177 42.264 184.931 42.424C184.686 42.5787 184.422 42.7067 184.139 42.808C183.862 42.9093 183.574 42.984 183.275 43.032C182.977 43.0853 182.681 43.112 182.387 43.112C181.827 43.112 181.31 43.0187 180.835 42.832C180.366 42.64 179.958 42.3627 179.611 42C179.27 41.632 179.003 41.1787 178.811 40.64C178.619 40.1013 178.523 39.4827 178.523 38.784C178.523 38.2187 178.609 37.6907 178.779 37.2C178.955 36.7093 179.206 36.2853 179.531 35.928C179.857 35.5653 180.254 35.2827 180.723 35.08C181.193 34.872 181.721 34.768 182.307 34.768C182.793 34.768 183.241 34.8507 183.651 35.016C184.067 35.176 184.425 35.4107 184.723 35.72C185.027 36.024 185.265 36.4027 185.435 36.856C185.606 37.304 185.691 37.816 185.691 38.392C185.691 38.616 185.667 38.7653 185.619 38.84C185.571 38.9147 185.481 38.952 185.347 38.952H179.931C179.947 39.464 180.017 39.9093 180.139 40.288C180.267 40.6667 180.443 40.984 180.667 41.24C180.891 41.4907 181.158 41.68 181.467 41.808C181.777 41.9307 182.123 41.992 182.507 41.992C182.865 41.992 183.171 41.952 183.427 41.872C183.689 41.7867 183.913 41.696 184.099 41.6C184.286 41.504 184.441 41.416 184.563 41.336C184.691 41.2507 184.801 41.208 184.891 41.208C185.009 41.208 185.099 41.2533 185.163 41.344L185.563 41.864ZM192.721 36.824C192.454 36.4667 192.166 36.2187 191.857 36.08C191.547 35.936 191.201 35.864 190.817 35.864C190.065 35.864 189.486 36.1333 189.081 36.672C188.675 37.2107 188.473 37.9787 188.473 38.976C188.473 39.504 188.518 39.9573 188.609 40.336C188.699 40.7093 188.833 41.0187 189.009 41.264C189.185 41.504 189.401 41.68 189.657 41.792C189.913 41.904 190.203 41.96 190.529 41.96C190.998 41.96 191.406 41.8533 191.753 41.64C192.105 41.4267 192.427 41.1253 192.721 40.736V36.824ZM194.145 31.216V43H193.297C193.094 43 192.966 42.9013 192.913 42.704L192.785 41.72C192.438 42.136 192.043 42.472 191.601 42.728C191.158 42.984 190.646 43.112 190.065 43.112C189.601 43.112 189.179 43.024 188.801 42.848C188.422 42.6667 188.099 42.4027 187.833 42.056C187.566 41.7093 187.361 41.2773 187.217 40.76C187.073 40.2427 187.001 39.648 187.001 38.976C187.001 38.3787 187.081 37.824 187.241 37.312C187.401 36.7947 187.63 36.3467 187.929 35.968C188.227 35.5893 188.593 35.2933 189.025 35.08C189.462 34.8613 189.953 34.752 190.497 34.752C190.993 34.752 191.417 34.8373 191.769 35.008C192.126 35.1733 192.443 35.4053 192.721 35.704V31.216H194.145ZM197.898 34.896V43H196.474V34.896H197.898ZM198.202 32.352C198.202 32.4907 198.172 32.6213 198.114 32.744C198.06 32.8613 197.986 32.968 197.89 33.064C197.799 33.1547 197.69 33.2267 197.562 33.28C197.439 33.3333 197.308 33.36 197.17 33.36C197.031 33.36 196.9 33.3333 196.778 33.28C196.66 33.2267 196.556 33.1547 196.466 33.064C196.375 32.968 196.303 32.8613 196.25 32.744C196.196 32.6213 196.17 32.4907 196.17 32.352C196.17 32.2133 196.196 32.0827 196.25 31.96C196.303 31.832 196.375 31.7227 196.466 31.632C196.556 31.536 196.66 31.4613 196.778 31.408C196.9 31.3547 197.031 31.328 197.17 31.328C197.308 31.328 197.439 31.3547 197.562 31.408C197.69 31.4613 197.799 31.536 197.89 31.632C197.986 31.7227 198.06 31.832 198.114 31.96C198.172 32.0827 198.202 32.2133 198.202 32.352ZM205.661 38.064C205.661 37.7333 205.613 37.432 205.517 37.16C205.427 36.8827 205.291 36.6453 205.109 36.448C204.933 36.2453 204.717 36.0907 204.461 35.984C204.205 35.872 203.915 35.816 203.589 35.816C202.907 35.816 202.365 36.016 201.965 36.416C201.571 36.8107 201.325 37.36 201.229 38.064H205.661ZM206.813 41.864C206.637 42.0773 206.427 42.264 206.181 42.424C205.936 42.5787 205.672 42.7067 205.389 42.808C205.112 42.9093 204.824 42.984 204.525 43.032C204.227 43.0853 203.931 43.112 203.637 43.112C203.077 43.112 202.56 43.0187 202.085 42.832C201.616 42.64 201.208 42.3627 200.861 42C200.52 41.632 200.253 41.1787 200.061 40.64C199.869 40.1013 199.773 39.4827 199.773 38.784C199.773 38.2187 199.859 37.6907 200.029 37.2C200.205 36.7093 200.456 36.2853 200.781 35.928C201.107 35.5653 201.504 35.2827 201.973 35.08C202.443 34.872 202.971 34.768 203.557 34.768C204.043 34.768 204.491 34.8507 204.901 35.016C205.317 35.176 205.675 35.4107 205.973 35.72C206.277 36.024 206.515 36.4027 206.685 36.856C206.856 37.304 206.941 37.816 206.941 38.392C206.941 38.616 206.917 38.7653 206.869 38.84C206.821 38.9147 206.731 38.952 206.597 38.952H201.181C201.197 39.464 201.267 39.9093 201.389 40.288C201.517 40.6667 201.693 40.984 201.917 41.24C202.141 41.4907 202.408 41.68 202.717 41.808C203.027 41.9307 203.373 41.992 203.757 41.992C204.115 41.992 204.421 41.952 204.677 41.872C204.939 41.7867 205.163 41.696 205.349 41.6C205.536 41.504 205.691 41.416 205.813 41.336C205.941 41.2507 206.051 41.208 206.141 41.208C206.259 41.208 206.349 41.2533 206.413 41.344L206.813 41.864ZM210.035 36.072C210.211 35.8747 210.397 35.696 210.595 35.536C210.792 35.376 211 35.24 211.219 35.128C211.443 35.0107 211.677 34.9227 211.923 34.864C212.173 34.8 212.443 34.768 212.731 34.768C213.173 34.768 213.563 34.8427 213.899 34.992C214.24 35.136 214.523 35.344 214.747 35.616C214.976 35.8827 215.149 36.2053 215.267 36.584C215.384 36.9627 215.443 37.3813 215.443 37.84V43H214.011V37.84C214.011 37.2267 213.869 36.752 213.587 36.416C213.309 36.0747 212.885 35.904 212.315 35.904C211.893 35.904 211.499 36.0053 211.131 36.208C210.768 36.4107 210.432 36.6853 210.123 37.032V43H208.691V34.896H209.547C209.749 34.896 209.875 34.9947 209.923 35.192L210.035 36.072ZM219.991 43.128C219.351 43.128 218.858 42.9493 218.511 42.592C218.17 42.2347 217.999 41.72 217.999 41.048V36.088H217.023C216.938 36.088 216.866 36.064 216.807 36.016C216.748 35.9627 216.719 35.8827 216.719 35.776V35.208L218.047 35.04L218.375 32.536C218.391 32.456 218.426 32.392 218.479 32.344C218.538 32.2907 218.612 32.264 218.703 32.264H219.423V35.056H221.767V36.088H219.423V40.952C219.423 41.2933 219.506 41.5467 219.671 41.712C219.836 41.8773 220.05 41.96 220.311 41.96C220.46 41.96 220.588 41.9413 220.695 41.904C220.807 41.8613 220.903 41.816 220.983 41.768C221.063 41.72 221.13 41.6773 221.183 41.64C221.242 41.5973 221.292 41.576 221.335 41.576C221.41 41.576 221.476 41.6213 221.535 41.712L221.951 42.392C221.706 42.6213 221.41 42.8027 221.063 42.936C220.716 43.064 220.359 43.128 219.991 43.128ZM228.615 38.064C228.615 37.7333 228.567 37.432 228.471 37.16C228.38 36.8827 228.244 36.6453 228.063 36.448C227.887 36.2453 227.671 36.0907 227.415 35.984C227.159 35.872 226.868 35.816 226.543 35.816C225.86 35.816 225.319 36.016 224.919 36.416C224.524 36.8107 224.279 37.36 224.183 38.064H228.615ZM229.767 41.864C229.591 42.0773 229.38 42.264 229.135 42.424C228.889 42.5787 228.625 42.7067 228.343 42.808C228.065 42.9093 227.777 42.984 227.479 43.032C227.18 43.0853 226.884 43.112 226.591 43.112C226.031 43.112 225.513 43.0187 225.039 42.832C224.569 42.64 224.161 42.3627 223.815 42C223.473 41.632 223.207 41.1787 223.015 40.64C222.823 40.1013 222.727 39.4827 222.727 38.784C222.727 38.2187 222.812 37.6907 222.983 37.2C223.159 36.7093 223.409 36.2853 223.735 35.928C224.06 35.5653 224.457 35.2827 224.927 35.08C225.396 34.872 225.924 34.768 226.511 34.768C226.996 34.768 227.444 34.8507 227.855 35.016C228.271 35.176 228.628 35.4107 228.927 35.72C229.231 36.024 229.468 36.4027 229.639 36.856C229.809 37.304 229.895 37.816 229.895 38.392C229.895 38.616 229.871 38.7653 229.823 38.84C229.775 38.9147 229.684 38.952 229.551 38.952H224.135C224.151 39.464 224.22 39.9093 224.343 40.288C224.471 40.6667 224.647 40.984 224.871 41.24C225.095 41.4907 225.361 41.68 225.671 41.808C225.98 41.9307 226.327 41.992 226.711 41.992C227.068 41.992 227.375 41.952 227.631 41.872C227.892 41.7867 228.116 41.696 228.303 41.6C228.489 41.504 228.644 41.416 228.767 41.336C228.895 41.2507 229.004 41.208 229.095 41.208C229.212 41.208 229.303 41.2533 229.367 41.344L229.767 41.864ZM236.364 36.232C236.3 36.3493 236.201 36.408 236.068 36.408C235.988 36.408 235.897 36.3787 235.796 36.32C235.694 36.2613 235.569 36.1973 235.42 36.128C235.276 36.0533 235.102 35.9867 234.9 35.928C234.697 35.864 234.457 35.832 234.18 35.832C233.94 35.832 233.724 35.864 233.532 35.928C233.34 35.9867 233.174 36.0693 233.036 36.176C232.902 36.2827 232.798 36.408 232.724 36.552C232.654 36.6907 232.62 36.8427 232.62 37.008C232.62 37.216 232.678 37.3893 232.796 37.528C232.918 37.6667 233.078 37.7867 233.276 37.888C233.473 37.9893 233.697 38.08 233.948 38.16C234.198 38.2347 234.454 38.3173 234.716 38.408C234.982 38.4933 235.241 38.5893 235.492 38.696C235.742 38.8027 235.966 38.936 236.164 39.096C236.361 39.256 236.518 39.4533 236.636 39.688C236.758 39.9173 236.82 40.1947 236.82 40.52C236.82 40.8933 236.753 41.24 236.62 41.56C236.486 41.8747 236.289 42.1493 236.028 42.384C235.766 42.6133 235.446 42.7947 235.068 42.928C234.689 43.0613 234.252 43.128 233.756 43.128C233.19 43.128 232.678 43.0373 232.22 42.856C231.761 42.6693 231.372 42.432 231.052 42.144L231.388 41.6C231.43 41.5307 231.481 41.4773 231.54 41.44C231.598 41.4027 231.673 41.384 231.764 41.384C231.86 41.384 231.961 41.4213 232.068 41.496C232.174 41.5707 232.302 41.6533 232.452 41.744C232.606 41.8347 232.793 41.9173 233.012 41.992C233.23 42.0667 233.502 42.104 233.828 42.104C234.105 42.104 234.348 42.0693 234.556 42C234.764 41.9253 234.937 41.8267 235.076 41.704C235.214 41.5813 235.316 41.44 235.38 41.28C235.449 41.12 235.484 40.9493 235.484 40.768C235.484 40.544 235.422 40.36 235.3 40.216C235.182 40.0667 235.025 39.9413 234.828 39.84C234.63 39.7333 234.404 39.6427 234.148 39.568C233.897 39.488 233.638 39.4053 233.372 39.32C233.11 39.2347 232.852 39.1387 232.596 39.032C232.345 38.92 232.121 38.7813 231.924 38.616C231.726 38.4507 231.566 38.248 231.444 38.008C231.326 37.7627 231.268 37.4667 231.268 37.12C231.268 36.8107 231.332 36.5147 231.46 36.232C231.588 35.944 231.774 35.6933 232.02 35.48C232.265 35.2613 232.566 35.088 232.924 34.96C233.281 34.832 233.689 34.768 234.148 34.768C234.681 34.768 235.158 34.8533 235.58 35.024C236.006 35.1893 236.374 35.4187 236.684 35.712L236.364 36.232Z" fill="#333333" fill-opacity="0.5"/>
<path d="M324 29C320.146 29 317 32.1459 317 36C317 39.8541 320.146 43 324 43C325.748 43 327.345 42.348 328.574 41.2812L329 41.707V43L335 49L337 47L331 41H329.707L329.281 40.5742C330.348 39.345 331 37.748 331 36C331 32.1459 327.854 29 324 29ZM324 31C326.773 31 329 33.2267 329 36C329 38.7733 326.773 41 324 41C321.227 41 319 38.7733 319 36C319 33.2267 321.227 31 324 31Z" fill="#333333"/>
<defs>
<filter id="filter0_d" x="0" y="0" width="374" height="84" filterUnits="userSpaceOnUse" color-interpolation-filters="sRGB">
<feFlood flood-opacity="0" result="BackgroundImageFix"/>
<feColorMatrix in="SourceAlpha" type="matrix" values="0 0 0 0 0 0 0 0 0 0 0 0 0 0 0 0 0 0 127 0"/>
<feOffset dx="4" dy="4"/>
<feGaussianBlur stdDeviation="10"/>
<feColorMatrix type="matrix" values="0 0 0 0 0 0 0 0 0 0 0 0 0 0 0 0 0 0 0.15 0"/>
<feBlend mode="normal" in2="BackgroundImageFix" result="effect1_dropShadow"/>
<feBlend mode="normal" in="SourceGraphic" in2="effect1_dropShadow" result="shape"/>
</filter>
</defs>
</svg>
