<svg width="145" height="21" viewBox="0 0 145 21" fill="none" xmlns="http://www.w3.org/2000/svg">
<g clip-path="url(#clip0)">
<path d="M31.3292 8.00519L29.7491 7.87509L30.334 6.40143C30.4297 6.16079 30.5502 5.93598 30.6877 5.72546C29.7702 5.32181 28.7567 5.09607 27.6898 5.09607C23.574 5.09607 20.2377 8.43244 20.2377 12.5482C20.2377 16.6639 23.574 20.0003 27.6898 20.0003C31.8055 20.0003 35.1419 16.6639 35.1419 12.5482C35.1419 10.6668 34.4433 8.94943 33.2932 7.63817C32.6964 7.9257 32.0226 8.06232 31.3292 8.00519Z" fill="#ED8F20"/>
<path d="M31.9661 10.3641C32.3091 10.3641 32.5871 10.0861 32.5871 9.74308C32.5871 9.40011 32.3091 9.12207 31.9661 9.12207C31.6231 9.12207 31.3451 9.40011 31.3451 9.74308C31.3451 10.0861 31.6231 10.3641 31.9661 10.3641Z" fill="#EF771D"/>
<path d="M33.618 13.8278C33.9609 13.8278 34.239 13.5497 34.239 13.2068C34.239 12.8638 33.9609 12.5858 33.618 12.5858C33.275 12.5858 32.9969 12.8638 32.9969 13.2068C32.9969 13.5497 33.275 13.8278 33.618 13.8278Z" fill="#EF771D"/>
<path d="M33.5186 11.9166C33.8616 11.9166 34.1396 11.6385 34.1396 11.2956C34.1396 10.9526 33.8616 10.6746 33.5186 10.6746C33.1756 10.6746 32.8976 10.9526 32.8976 11.2956C32.8976 11.6385 33.1756 11.9166 33.5186 11.9166Z" fill="#EF771D"/>
<path d="M31.6419 13.1689C31.9849 13.1689 32.2629 12.8909 32.2629 12.5479C32.2629 12.2049 31.9849 11.9269 31.6419 11.9269C31.2989 11.9269 31.0209 12.2049 31.0209 12.5479C31.0209 12.8909 31.2989 13.1689 31.6419 13.1689Z" fill="#EF771D"/>
<path d="M31.9661 15.3322C32.3091 15.3322 32.5871 15.0541 32.5871 14.7112C32.5871 14.3682 32.3091 14.0901 31.9661 14.0901C31.6231 14.0901 31.3451 14.3682 31.3451 14.7112C31.3451 15.0541 31.6231 15.3322 31.9661 15.3322Z" fill="#EF771D"/>
<path d="M26.377 7.88002C26.72 7.88002 26.998 7.60198 26.998 7.25901C26.998 6.91604 26.72 6.638 26.377 6.638C26.034 6.638 25.756 6.91604 25.756 7.25901C25.756 7.60198 26.034 7.88002 26.377 7.88002Z" fill="#EF771D"/>
<path d="M24.2034 8.81154C24.5464 8.81154 24.8244 8.5335 24.8244 8.19053C24.8244 7.84755 24.5464 7.56952 24.2034 7.56952C23.8604 7.56952 23.5824 7.84755 23.5824 8.19053C23.5824 8.5335 23.8604 8.81154 24.2034 8.81154Z" fill="#EF771D"/>
<path d="M28.6213 7.57983C28.6213 7.57983 29.941 7.79719 30.2981 8.69765L28.6213 7.57983Z" fill="#ED8F20"/>
<path d="M30.298 9.00846C30.1747 9.00846 30.0579 8.93425 30.0092 8.81222C29.722 8.08843 28.5812 7.88816 28.57 7.88629C28.4011 7.85773 28.2868 7.69813 28.3151 7.5289C28.343 7.3603 28.5023 7.24572 28.6712 7.27367C28.7324 7.2836 30.1691 7.5317 30.5864 8.58338C30.6495 8.74267 30.5715 8.92338 30.4122 8.98641C30.375 9.00132 30.3362 9.00846 30.298 9.00846Z" fill="#9B6026"/>
<path d="M28.8077 8.5113C29.1297 8.15732 29.5359 7.88253 29.9836 7.71423L28.8077 8.5113Z" fill="#ED8F20"/>
<path d="M28.8073 8.8218C28.7328 8.8218 28.658 8.79509 28.5984 8.74106C28.4717 8.62556 28.4624 8.42932 28.5779 8.30232C28.9325 7.91264 29.3805 7.60896 29.8745 7.42328C30.0351 7.36367 30.2139 7.44409 30.2745 7.60462C30.3344 7.76515 30.2534 7.94431 30.0928 8.00455C29.6907 8.15545 29.3256 8.40292 29.0371 8.71995C28.9756 8.78764 28.8918 8.8218 28.8073 8.8218Z" fill="#9B6026"/>
<path d="M35.7629 4.14281L34.1827 4.01271C32.5138 3.87546 30.9516 4.84517 30.334 6.40142L29.749 7.87507L31.3292 8.00518C32.9978 8.14242 34.5603 7.17271 35.1779 5.61646L35.7629 4.14281Z" fill="#659C35"/>
<path d="M29.9232 7.43663L29.749 7.87538L29.972 7.8937C31.9151 5.9962 34.0268 5.37333 34.2579 5.35874L34.2687 5.18516L34.397 5.3134L34.446 5.12927L34.3082 4.99731C34.1225 4.95632 31.9536 5.55529 29.9232 7.43663Z" fill="#88C057"/>
</g>
<path d="M0 19.92V18.96C0.528 18.944 0.952 18.904 1.272 18.84C1.608 18.76 1.864 18.624 2.04 18.432C2.232 18.224 2.36 17.952 2.424 17.616C2.488 17.264 2.52 16.8 2.52 16.224V5.136C2.52 4.576 2.496 4.128 2.448 3.792C2.4 3.44 2.296 3.168 2.136 2.976C1.976 2.768 1.752 2.632 1.464 2.568C1.192 2.488 0.832 2.432 0.384 2.4V1.44H9.504C11.04 1.44 12.456 1.68 13.752 2.16C15.048 2.64 16.168 3.304 17.112 4.152C18.056 5 18.792 6.008 19.32 7.176C19.848 8.344 20.112 9.616 20.112 10.992C20.112 12.304 19.864 13.512 19.368 14.616C18.872 15.704 18.176 16.64 17.28 17.424C16.4 18.208 15.336 18.824 14.088 19.272C12.856 19.704 11.496 19.92 10.008 19.92H0ZM6.456 2.904C6.184 2.904 6.048 3.04 6.048 3.312V15.72C6.048 16.648 6.336 17.336 6.912 17.784C7.488 18.232 8.376 18.456 9.576 18.456C11.672 18.456 13.28 17.824 14.4 16.56C15.536 15.296 16.104 13.456 16.104 11.04C16.104 9.76 15.952 8.616 15.648 7.608C15.344 6.6 14.904 5.752 14.328 5.064C13.752 4.36 13.048 3.824 12.216 3.456C11.4 3.088 10.48 2.904 9.456 2.904H6.456Z" fill="#D12222"/>
<path d="M40.7327 16.008C40.7327 16.664 40.7487 17.184 40.7807 17.568C40.8287 17.936 40.9167 18.224 41.0447 18.432C41.1887 18.624 41.3967 18.752 41.6687 18.816C41.9567 18.88 42.3407 18.928 42.8207 18.96V19.92H35.2607V18.96C35.7247 18.928 36.0927 18.88 36.3647 18.816C36.6527 18.752 36.8687 18.624 37.0127 18.432C37.1727 18.24 37.2767 17.968 37.3247 17.616C37.3727 17.264 37.3967 16.784 37.3967 16.176V13.176C37.3967 12.232 37.3807 11.472 37.3487 10.896C37.3167 10.304 37.2767 9.904 37.2287 9.696C37.1807 9.488 37.1167 9.32 37.0367 9.192C36.9567 9.048 36.8367 8.944 36.6767 8.88C36.5167 8.8 36.3167 8.752 36.0767 8.736C35.8367 8.704 35.5327 8.688 35.1647 8.688V7.872L39.7967 6.96L40.1087 9.072H40.2047C40.7327 8.4 41.3567 7.88 42.0767 7.512C42.7967 7.144 43.5887 6.96 44.4527 6.96C45.4767 6.96 46.3007 7.104 46.9247 7.392C47.5647 7.664 48.1327 8.128 48.6287 8.784C48.9007 9.152 49.1407 9.632 49.3487 10.224C49.5567 10.8 49.6607 11.6 49.6607 12.624V16.008C49.6607 16.664 49.6767 17.184 49.7087 17.568C49.7567 17.936 49.8447 18.224 49.9727 18.432C50.1167 18.624 50.3247 18.752 50.5967 18.816C50.8687 18.88 51.2367 18.928 51.7007 18.96V19.92H44.1887V18.96C44.6687 18.944 45.0447 18.904 45.3167 18.84C45.6047 18.76 45.8207 18.624 45.9647 18.432C46.1087 18.24 46.2047 17.968 46.2527 17.616C46.3007 17.248 46.3247 16.768 46.3247 16.176V12.912C46.3247 12.096 46.2767 11.408 46.1807 10.848C46.0847 10.288 45.9247 9.84 45.7007 9.504C45.4927 9.152 45.2127 8.904 44.8607 8.76C44.5087 8.6 44.0687 8.52 43.5407 8.52C43.0287 8.52 42.5887 8.664 42.2207 8.952C41.8527 9.24 41.5327 9.64 41.2607 10.152C41.1167 10.44 40.9887 10.816 40.8767 11.28C40.7807 11.728 40.7327 12.2 40.7327 12.696V16.008Z" fill="#D12222"/>
<path d="M53.6334 6.624C53.5534 6.192 53.4574 5.712 53.3454 5.184C53.2494 4.656 53.1534 4.144 53.0574 3.648C52.9614 3.152 52.8814 2.704 52.8174 2.304C52.7534 1.904 52.7214 1.608 52.7214 1.416C52.7214 1 52.8494 0.664 53.1054 0.408C53.3774 0.136 53.7134 0 54.1134 0C54.5294 0 54.8654 0.136 55.1214 0.408C55.3934 0.68 55.5294 1.024 55.5294 1.44C55.5294 1.632 55.4894 1.928 55.4094 2.328C55.3454 2.728 55.2654 3.176 55.1694 3.672C55.0734 4.152 54.9694 4.656 54.8574 5.184C54.7614 5.712 54.6814 6.192 54.6174 6.624H53.6334Z" fill="#D12222"/>
<path d="M57.4787 8.52V7.44C58.4387 7.168 59.2388 6.76 59.8787 6.216C60.5348 5.656 61.0228 5.016 61.3428 4.296H62.5667V7.2H65.3268V8.52H62.5667V15.888C62.5667 16.88 62.6707 17.584 62.8787 18C63.1027 18.416 63.4707 18.624 63.9827 18.624C64.6068 18.624 65.0788 18.336 65.3988 17.76L65.9027 18.456C65.4548 19.592 64.3988 20.16 62.7347 20.16C61.6307 20.16 60.7668 19.904 60.1427 19.392C59.5347 18.88 59.2308 18.16 59.2308 17.232V8.52H57.4787Z" fill="#D12222"/>
<path d="M89.96 15.344L93.2 6.08002C93.584 5.00802 93.776 4.20802 93.776 3.68002C93.776 3.18402 93.6 2.86402 93.248 2.72002C92.912 2.56002 92.384 2.48002 91.664 2.48002V1.52002H98.48V2.48002C97.872 2.48002 97.32 2.63202 96.824 2.93602C96.344 3.22402 95.976 3.72002 95.72 4.42402L89.936 20.24H87.8L83.624 7.56802L78.872 20.24H76.88L71.792 6.22402C71.488 5.40802 71.208 4.75202 70.952 4.25602C70.696 3.76002 70.424 3.38402 70.136 3.12802C69.848 2.87202 69.536 2.70402 69.2 2.62402C68.864 2.54402 68.464 2.50402 68 2.50402V1.52002H77.072V2.50402C76.256 2.50402 75.696 2.58402 75.392 2.74402C75.088 2.88802 74.936 3.13602 74.936 3.48802C74.936 3.61602 74.944 3.74402 74.96 3.87202C74.976 3.98402 75.008 4.12002 75.056 4.28002C75.104 4.42402 75.16 4.60802 75.224 4.83202C75.304 5.05602 75.408 5.33602 75.536 5.67202L78.896 15.344L82.784 4.73602C82.624 4.30402 82.464 3.95202 82.304 3.68002C82.144 3.40802 81.952 3.19202 81.728 3.03202C81.52 2.87202 81.28 2.76002 81.008 2.69602C80.736 2.61602 80.408 2.55202 80.024 2.50402V1.52002H88.496V2.50402C87.824 2.50402 87.328 2.59202 87.008 2.76802C86.688 2.92802 86.528 3.24802 86.528 3.72802C86.528 3.96802 86.56 4.24802 86.624 4.56802C86.704 4.88802 86.808 5.25602 86.936 5.67202L89.96 15.344Z" fill="#F2C11F"/>
<path d="M104.503 13.16C103.159 13.768 102.143 14.336 101.455 14.864C100.783 15.376 100.447 15.912 100.447 16.472C100.447 16.936 100.575 17.304 100.831 17.576C101.087 17.848 101.407 17.984 101.791 17.984C102.175 17.984 102.535 17.92 102.871 17.792C103.207 17.648 103.495 17.464 103.735 17.24C103.975 17.016 104.159 16.752 104.287 16.448C104.431 16.128 104.503 15.792 104.503 15.44V13.16ZM104.503 11.888V10.88C104.503 9.95202 104.335 9.28002 103.999 8.86402C103.679 8.43202 103.175 8.21602 102.487 8.21602C102.023 8.21602 101.671 8.34402 101.431 8.60002C101.191 8.84002 100.967 9.24802 100.759 9.82402C100.615 10.224 100.407 10.536 100.135 10.76C99.879 10.984 99.519 11.096 99.055 11.096C98.607 11.096 98.263 10.96 98.023 10.688C97.783 10.416 97.663 10.032 97.663 9.53602C97.663 8.76802 98.079 8.16002 98.911 7.71202C99.759 7.26402 101.031 7.04002 102.727 7.04002C104.519 7.04002 105.799 7.36802 106.567 8.02402C107.335 8.66402 107.719 9.74402 107.719 11.264V16.52C107.719 17.88 107.991 18.56 108.535 18.56C108.839 18.56 109.119 18.456 109.375 18.248L109.735 18.944C109.511 19.344 109.159 19.664 108.679 19.904C108.215 20.128 107.687 20.24 107.095 20.24C106.359 20.24 105.799 20.016 105.415 19.568C105.031 19.12 104.839 18.488 104.839 17.672H104.719C104.255 18.504 103.655 19.136 102.919 19.568C102.183 20 101.343 20.216 100.399 20.216C99.391 20.216 98.583 19.936 97.975 19.376C97.367 18.8 97.063 18.056 97.063 17.144C97.063 16.44 97.375 15.784 97.999 15.176C98.623 14.552 99.663 13.944 101.119 13.352L104.503 11.888Z" fill="#F2C11F"/>
<path d="M112.268 20H111.524V15.632H112.532C112.804 16.784 113.196 17.624 113.708 18.152C114.22 18.68 114.884 18.944 115.7 18.944C116.292 18.944 116.748 18.824 117.068 18.584C117.404 18.328 117.572 17.984 117.572 17.552C117.572 17.104 117.372 16.672 116.972 16.256C116.572 15.824 115.924 15.368 115.028 14.888C113.812 14.232 112.94 13.584 112.412 12.944C111.884 12.288 111.62 11.552 111.62 10.736C111.62 10.208 111.716 9.72002 111.908 9.27202C112.116 8.80802 112.388 8.40802 112.724 8.07202C113.076 7.73602 113.492 7.48002 113.972 7.30402C114.452 7.11202 114.972 7.01602 115.532 7.01602C116.028 7.01602 116.516 7.08802 116.996 7.23202C117.492 7.37602 117.924 7.57602 118.292 7.83202L118.724 7.25602H119.348V10.88H118.412C118.044 9.96802 117.66 9.31202 117.26 8.91202C116.876 8.51202 116.404 8.31202 115.844 8.31202C115.396 8.31202 115.036 8.43202 114.764 8.67202C114.508 8.91202 114.38 9.23202 114.38 9.63202C114.38 10.08 114.572 10.504 114.956 10.904C115.356 11.304 116.012 11.744 116.924 12.224C117.564 12.576 118.116 12.92 118.58 13.256C119.044 13.592 119.42 13.936 119.708 14.288C119.996 14.624 120.204 14.984 120.332 15.368C120.476 15.736 120.548 16.136 120.548 16.568C120.548 17.128 120.444 17.632 120.236 18.08C120.028 18.528 119.732 18.912 119.348 19.232C118.964 19.552 118.5 19.8 117.956 19.976C117.428 20.152 116.836 20.24 116.18 20.24C115.492 20.24 114.852 20.152 114.26 19.976C113.668 19.784 113.18 19.512 112.796 19.16L112.268 20Z" fill="#F2C11F"/>
<path d="M122.208 8.60002V7.52002C123.168 7.24802 123.968 6.84002 124.608 6.29602C125.264 5.73602 125.752 5.09602 126.072 4.37602H127.296V7.28002H130.056V8.60002H127.296V15.968C127.296 16.96 127.4 17.664 127.608 18.08C127.832 18.496 128.2 18.704 128.712 18.704C129.336 18.704 129.808 18.416 130.128 17.84L130.632 18.536C130.184 19.672 129.128 20.24 127.464 20.24C126.36 20.24 125.496 19.984 124.872 19.472C124.264 18.96 123.96 18.24 123.96 17.312V8.60002H122.208Z" fill="#F2C11F"/>
<path d="M143.932 17.768C142.476 19.416 140.66 20.24 138.484 20.24C137.492 20.24 136.588 20.088 135.772 19.784C134.972 19.464 134.284 19.024 133.708 18.464C133.132 17.888 132.684 17.208 132.364 16.424C132.044 15.64 131.884 14.768 131.884 13.808C131.884 12.816 132.052 11.912 132.388 11.096C132.724 10.264 133.196 9.55202 133.804 8.96002C134.428 8.35202 135.156 7.88002 135.988 7.54402C136.836 7.20802 137.764 7.04002 138.772 7.04002C140.468 7.04002 141.788 7.49602 142.732 8.40802C143.676 9.32002 144.148 10.6 144.148 12.248C144.148 12.504 144.108 12.664 144.028 12.728C143.948 12.776 143.724 12.8 143.356 12.8H135.628C135.564 12.944 135.532 13.208 135.532 13.592C135.532 15.16 135.868 16.4 136.54 17.312C137.228 18.224 138.156 18.68 139.324 18.68C139.996 18.68 140.66 18.528 141.316 18.224C141.988 17.92 142.636 17.488 143.26 16.928L143.932 17.768ZM139.276 11.456C139.916 11.456 140.324 11.424 140.5 11.36C140.692 11.28 140.788 11.104 140.788 10.832C140.788 10.128 140.588 9.55202 140.188 9.10402C139.788 8.65602 139.284 8.43202 138.676 8.43202C137.988 8.43202 137.372 8.72002 136.828 9.29602C136.3 9.85602 135.956 10.576 135.796 11.456H139.276Z" fill="#F2C11F"/>
<defs>
<clipPath id="clip0">
<rect width="16" height="16" fill="white" transform="translate(20 4)"/>
</clipPath>
</defs>
</svg>
