<svg width="402" height="507" viewBox="0 0 402 507" fill="none" xmlns="http://www.w3.org/2000/svg">
<g filter="url(#filter0_d)">
<rect x="32" y="16" width="346" height="44" rx="20" fill="white"/>
</g>
<path d="M59.0491 31.536V43H58.2731C58.1505 43 58.0465 42.9787 57.9611 42.936C57.8811 42.8933 57.8011 42.8213 57.7211 42.72L51.0891 34.08C51.0998 34.2133 51.1078 34.344 51.1131 34.472C51.1185 34.6 51.1211 34.72 51.1211 34.832V43H49.7611V31.536H50.5611C50.6305 31.536 50.6891 31.5413 50.7371 31.552C50.7851 31.5573 50.8278 31.5707 50.8651 31.592C50.9025 31.608 50.9398 31.6347 50.9771 31.672C51.0145 31.704 51.0545 31.7467 51.0971 31.8L57.7291 40.432C57.7185 40.2933 57.7078 40.16 57.6971 40.032C57.6918 39.8987 57.6891 39.7733 57.6891 39.656V31.536H59.0491ZM66.8179 38.064C66.8179 37.7333 66.7699 37.432 66.6739 37.16C66.5832 36.8827 66.4472 36.6453 66.2659 36.448C66.0899 36.2453 65.8739 36.0907 65.6179 35.984C65.3619 35.872 65.0712 35.816 64.7459 35.816C64.0632 35.816 63.5219 36.016 63.1219 36.416C62.7272 36.8107 62.4819 37.36 62.3859 38.064H66.8179ZM67.9699 41.864C67.7939 42.0773 67.5832 42.264 67.3379 42.424C67.0925 42.5787 66.8285 42.7067 66.5459 42.808C66.2685 42.9093 65.9805 42.984 65.6819 43.032C65.3832 43.0853 65.0872 43.112 64.7939 43.112C64.2339 43.112 63.7165 43.0187 63.2419 42.832C62.7725 42.64 62.3645 42.3627 62.0179 42C61.6765 41.632 61.4099 41.1787 61.2179 40.64C61.0259 40.1013 60.9299 39.4827 60.9299 38.784C60.9299 38.2187 61.0152 37.6907 61.1859 37.2C61.3619 36.7093 61.6125 36.2853 61.9379 35.928C62.2632 35.5653 62.6605 35.2827 63.1299 35.08C63.5992 34.872 64.1272 34.768 64.7139 34.768C65.1992 34.768 65.6472 34.8507 66.0579 35.016C66.4739 35.176 66.8312 35.4107 67.1299 35.72C67.4339 36.024 67.6712 36.4027 67.8419 36.856C68.0125 37.304 68.0979 37.816 68.0979 38.392C68.0979 38.616 68.0739 38.7653 68.0259 38.84C67.9779 38.9147 67.8872 38.952 67.7539 38.952H62.3379C62.3539 39.464 62.4232 39.9093 62.5459 40.288C62.6739 40.6667 62.8499 40.984 63.0739 41.24C63.2979 41.4907 63.5645 41.68 63.8739 41.808C64.1832 41.9307 64.5299 41.992 64.9139 41.992C65.2712 41.992 65.5779 41.952 65.8339 41.872C66.0952 41.7867 66.3192 41.696 66.5059 41.6C66.6925 41.504 66.8472 41.416 66.9699 41.336C67.0979 41.2507 67.2072 41.208 67.2979 41.208C67.4152 41.208 67.5059 41.2533 67.5699 41.344L67.9699 41.864ZM75.487 36.336C75.4443 36.3947 75.4017 36.44 75.359 36.472C75.3163 36.504 75.2577 36.52 75.183 36.52C75.103 36.52 75.015 36.488 74.919 36.424C74.823 36.3547 74.703 36.28 74.559 36.2C74.4203 36.12 74.247 36.048 74.039 35.984C73.8363 35.9147 73.5857 35.88 73.287 35.88C72.887 35.88 72.535 35.952 72.231 36.096C71.927 36.2347 71.671 36.4373 71.463 36.704C71.2603 36.9707 71.1057 37.2933 70.999 37.672C70.8977 38.0507 70.847 38.4747 70.847 38.944C70.847 39.4347 70.903 39.872 71.015 40.256C71.127 40.6347 71.2843 40.9547 71.487 41.216C71.695 41.472 71.943 41.6693 72.231 41.808C72.5243 41.9413 72.8523 42.008 73.215 42.008C73.5617 42.008 73.847 41.968 74.071 41.888C74.295 41.8027 74.479 41.7093 74.623 41.608C74.7723 41.5067 74.895 41.416 74.991 41.336C75.0923 41.2507 75.191 41.208 75.287 41.208C75.4043 41.208 75.495 41.2533 75.559 41.344L75.959 41.864C75.783 42.0827 75.583 42.2693 75.359 42.424C75.135 42.5787 74.8923 42.7093 74.631 42.816C74.375 42.9173 74.1057 42.992 73.823 43.04C73.5403 43.088 73.2523 43.112 72.959 43.112C72.4523 43.112 71.9803 43.0187 71.543 42.832C71.111 42.6453 70.735 42.376 70.415 42.024C70.095 41.6667 69.8443 41.2293 69.663 40.712C69.4817 40.1947 69.391 39.6053 69.391 38.944C69.391 38.3413 69.4737 37.784 69.639 37.272C69.8097 36.76 70.055 36.32 70.375 35.952C70.7003 35.5787 71.0977 35.288 71.567 35.08C72.0417 34.872 72.5857 34.768 73.199 34.768C73.7697 34.768 74.271 34.8613 74.703 35.048C75.1403 35.2293 75.527 35.488 75.863 35.824L75.487 36.336ZM82.771 38.064C82.771 37.7333 82.723 37.432 82.627 37.16C82.5363 36.8827 82.4003 36.6453 82.219 36.448C82.043 36.2453 81.827 36.0907 81.571 35.984C81.315 35.872 81.0243 35.816 80.699 35.816C80.0163 35.816 79.475 36.016 79.075 36.416C78.6803 36.8107 78.435 37.36 78.339 38.064H82.771ZM83.923 41.864C83.747 42.0773 83.5363 42.264 83.291 42.424C83.0457 42.5787 82.7817 42.7067 82.499 42.808C82.2217 42.9093 81.9337 42.984 81.635 43.032C81.3363 43.0853 81.0403 43.112 80.747 43.112C80.187 43.112 79.6697 43.0187 79.195 42.832C78.7257 42.64 78.3177 42.3627 77.971 42C77.6297 41.632 77.363 41.1787 77.171 40.64C76.979 40.1013 76.883 39.4827 76.883 38.784C76.883 38.2187 76.9683 37.6907 77.139 37.2C77.315 36.7093 77.5657 36.2853 77.891 35.928C78.2163 35.5653 78.6137 35.2827 79.083 35.08C79.5523 34.872 80.0803 34.768 80.667 34.768C81.1523 34.768 81.6003 34.8507 82.011 35.016C82.427 35.176 82.7843 35.4107 83.083 35.72C83.387 36.024 83.6243 36.4027 83.795 36.856C83.9657 37.304 84.051 37.816 84.051 38.392C84.051 38.616 84.027 38.7653 83.979 38.84C83.931 38.9147 83.8403 38.952 83.707 38.952H78.291C78.307 39.464 78.3763 39.9093 78.499 40.288C78.627 40.6667 78.803 40.984 79.027 41.24C79.251 41.4907 79.5177 41.68 79.827 41.808C80.1363 41.9307 80.483 41.992 80.867 41.992C81.2243 41.992 81.531 41.952 81.787 41.872C82.0483 41.7867 82.2723 41.696 82.459 41.6C82.6457 41.504 82.8003 41.416 82.923 41.336C83.051 41.2507 83.1603 41.208 83.251 41.208C83.3683 41.208 83.459 41.2533 83.523 41.344L83.923 41.864ZM90.5201 36.232C90.4561 36.3493 90.3575 36.408 90.2241 36.408C90.1441 36.408 90.0535 36.3787 89.9521 36.32C89.8508 36.2613 89.7255 36.1973 89.5761 36.128C89.4321 36.0533 89.2588 35.9867 89.0561 35.928C88.8535 35.864 88.6135 35.832 88.3361 35.832C88.0961 35.832 87.8801 35.864 87.6881 35.928C87.4961 35.9867 87.3308 36.0693 87.1921 36.176C87.0588 36.2827 86.9548 36.408 86.8801 36.552C86.8108 36.6907 86.7761 36.8427 86.7761 37.008C86.7761 37.216 86.8348 37.3893 86.9521 37.528C87.0748 37.6667 87.2348 37.7867 87.4321 37.888C87.6295 37.9893 87.8535 38.08 88.1041 38.16C88.3548 38.2347 88.6108 38.3173 88.8721 38.408C89.1388 38.4933 89.3975 38.5893 89.6481 38.696C89.8988 38.8027 90.1228 38.936 90.3201 39.096C90.5175 39.256 90.6748 39.4533 90.7921 39.688C90.9148 39.9173 90.9761 40.1947 90.9761 40.52C90.9761 40.8933 90.9095 41.24 90.7761 41.56C90.6428 41.8747 90.4455 42.1493 90.1841 42.384C89.9228 42.6133 89.6028 42.7947 89.2241 42.928C88.8455 43.0613 88.4081 43.128 87.9121 43.128C87.3468 43.128 86.8348 43.0373 86.3761 42.856C85.9175 42.6693 85.5281 42.432 85.2081 42.144L85.5441 41.6C85.5868 41.5307 85.6375 41.4773 85.6961 41.44C85.7548 41.4027 85.8295 41.384 85.9201 41.384C86.0161 41.384 86.1175 41.4213 86.2241 41.496C86.3308 41.5707 86.4588 41.6533 86.6081 41.744C86.7628 41.8347 86.9495 41.9173 87.1681 41.992C87.3868 42.0667 87.6588 42.104 87.9841 42.104C88.2615 42.104 88.5041 42.0693 88.7121 42C88.9201 41.9253 89.0935 41.8267 89.2321 41.704C89.3708 41.5813 89.4721 41.44 89.5361 41.28C89.6055 41.12 89.6401 40.9493 89.6401 40.768C89.6401 40.544 89.5788 40.36 89.4561 40.216C89.3388 40.0667 89.1815 39.9413 88.9841 39.84C88.7868 39.7333 88.5601 39.6427 88.3041 39.568C88.0535 39.488 87.7948 39.4053 87.5281 39.32C87.2668 39.2347 87.0081 39.1387 86.7521 39.032C86.5015 38.92 86.2775 38.7813 86.0801 38.616C85.8828 38.4507 85.7228 38.248 85.6001 38.008C85.4828 37.7627 85.4241 37.4667 85.4241 37.12C85.4241 36.8107 85.4881 36.5147 85.6161 36.232C85.7441 35.944 85.9308 35.6933 86.1761 35.48C86.4215 35.2613 86.7228 35.088 87.0801 34.96C87.4375 34.832 87.8455 34.768 88.3041 34.768C88.8375 34.768 89.3148 34.8533 89.7361 35.024C90.1628 35.1893 90.5308 35.4187 90.8401 35.712L90.5201 36.232ZM94.226 34.896V43H92.802V34.896H94.226ZM94.53 32.352C94.53 32.4907 94.5007 32.6213 94.442 32.744C94.3887 32.8613 94.314 32.968 94.218 33.064C94.1273 33.1547 94.018 33.2267 93.89 33.28C93.7673 33.3333 93.6367 33.36 93.498 33.36C93.3593 33.36 93.2287 33.3333 93.106 33.28C92.9887 33.2267 92.8847 33.1547 92.794 33.064C92.7033 32.968 92.6313 32.8613 92.578 32.744C92.5247 32.6213 92.498 32.4907 92.498 32.352C92.498 32.2133 92.5247 32.0827 92.578 31.96C92.6313 31.832 92.7033 31.7227 92.794 31.632C92.8847 31.536 92.9887 31.4613 93.106 31.408C93.2287 31.3547 93.3593 31.328 93.498 31.328C93.6367 31.328 93.7673 31.3547 93.89 31.408C94.018 31.4613 94.1273 31.536 94.218 31.632C94.314 31.7227 94.3887 31.832 94.442 31.96C94.5007 32.0827 94.53 32.2133 94.53 32.352ZM99.0537 43.128C98.4137 43.128 97.9204 42.9493 97.5737 42.592C97.2324 42.2347 97.0617 41.72 97.0617 41.048V36.088H96.0857C96.0004 36.088 95.9284 36.064 95.8697 36.016C95.8111 35.9627 95.7817 35.8827 95.7817 35.776V35.208L97.1097 35.04L97.4377 32.536C97.4537 32.456 97.4884 32.392 97.5417 32.344C97.6004 32.2907 97.6751 32.264 97.7657 32.264H98.4857V35.056H100.83V36.088H98.4857V40.952C98.4857 41.2933 98.5684 41.5467 98.7337 41.712C98.8991 41.8773 99.1124 41.96 99.3737 41.96C99.5231 41.96 99.6511 41.9413 99.7577 41.904C99.8697 41.8613 99.9657 41.816 100.046 41.768C100.126 41.72 100.192 41.6773 100.246 41.64C100.304 41.5973 100.355 41.576 100.398 41.576C100.472 41.576 100.539 41.6213 100.598 41.712L101.014 42.392C100.768 42.6213 100.472 42.8027 100.126 42.936C99.7791 43.064 99.4217 43.128 99.0537 43.128ZM105.669 34.768C106.261 34.768 106.795 34.8667 107.269 35.064C107.744 35.2613 108.149 35.5413 108.485 35.904C108.821 36.2667 109.077 36.7067 109.253 37.224C109.435 37.736 109.525 38.3093 109.525 38.944C109.525 39.584 109.435 40.16 109.253 40.672C109.077 41.184 108.821 41.6213 108.485 41.984C108.149 42.3467 107.744 42.6267 107.269 42.824C106.795 43.016 106.261 43.112 105.669 43.112C105.072 43.112 104.533 43.016 104.053 42.824C103.579 42.6267 103.173 42.3467 102.837 41.984C102.501 41.6213 102.243 41.184 102.061 40.672C101.885 40.16 101.797 39.584 101.797 38.944C101.797 38.3093 101.885 37.736 102.061 37.224C102.243 36.7067 102.501 36.2667 102.837 35.904C103.173 35.5413 103.579 35.2613 104.053 35.064C104.533 34.8667 105.072 34.768 105.669 34.768ZM105.669 42C106.469 42 107.067 41.7333 107.461 41.2C107.856 40.6613 108.053 39.912 108.053 38.952C108.053 37.9867 107.856 37.2347 107.461 36.696C107.067 36.1573 106.469 35.888 105.669 35.888C105.264 35.888 104.909 35.9573 104.605 36.096C104.307 36.2347 104.056 36.4347 103.853 36.696C103.656 36.9573 103.507 37.28 103.405 37.664C103.309 38.0427 103.261 38.472 103.261 38.952C103.261 39.912 103.459 40.6613 103.853 41.2C104.253 41.7333 104.859 42 105.669 42Z" fill="#333333" fill-opacity="0.5"/>
<path d="M339.362 29C335.508 29 332.362 32.1459 332.362 36C332.362 39.8541 335.508 43 339.362 43C341.11 43 342.707 42.348 343.937 41.2812L344.362 41.707V43L350.362 49L352.362 47L346.362 41H345.069L344.644 40.5742C345.71 39.345 346.362 37.748 346.362 36C346.362 32.1459 343.216 29 339.362 29ZM339.362 31C342.136 31 344.362 33.2267 344.362 36C344.362 38.7733 342.136 41 339.362 41C336.589 41 334.362 38.7733 334.362 36C334.362 33.2267 336.589 31 339.362 31Z" fill="#333333"/>
<path d="M63.016 292.272H58.488C57.9867 293.403 57.736 294.187 57.736 294.624C57.736 294.944 57.8533 295.147 58.088 295.232C58.3333 295.317 58.696 295.36 59.176 295.36V296H54.792V295.36C55.048 295.328 55.2667 295.285 55.448 295.232C55.64 295.179 55.8053 295.104 55.944 295.008C56.0933 294.912 56.2213 294.789 56.328 294.64C56.4347 294.48 56.536 294.288 56.632 294.064L60.84 283.52H62.024L65.848 292.864C66.072 293.408 66.2587 293.835 66.408 294.144C66.568 294.453 66.7333 294.693 66.904 294.864C67.0853 295.024 67.288 295.136 67.512 295.2C67.7467 295.264 68.0453 295.312 68.408 295.344V296H62.36V295.344C62.872 295.323 63.24 295.269 63.464 295.184C63.688 295.099 63.8 294.928 63.8 294.672C63.8 294.523 63.7627 294.331 63.688 294.096C63.6133 293.861 63.512 293.573 63.384 293.232L63.016 292.272ZM58.856 291.312H62.664L60.824 286.464H60.76L58.856 291.312ZM71.6855 294.272C71.9735 294.293 72.2242 294.315 72.4375 294.336C72.6615 294.357 72.8695 294.384 73.0615 294.416C73.2642 294.437 73.4615 294.464 73.6535 294.496C73.8562 294.517 74.0695 294.544 74.2935 294.576C75.1255 294.693 75.7762 295.008 76.2455 295.52C76.7255 296.021 76.9655 296.645 76.9655 297.392C76.9655 298.299 76.5922 298.987 75.8455 299.456C75.0988 299.925 74.0002 300.16 72.5495 300.16C71.2162 300.16 70.1868 299.963 69.4615 299.568C68.7468 299.184 68.3895 298.635 68.3895 297.92C68.3895 297.365 68.5335 296.944 68.8215 296.656C69.1095 296.379 69.4722 296.24 69.9095 296.24C70.1868 296.24 70.4535 296.293 70.7095 296.4C70.9762 296.517 71.2002 296.683 71.3815 296.896C71.1042 296.949 70.8748 297.072 70.6935 297.264C70.5228 297.467 70.4375 297.701 70.4375 297.968C70.4375 298.395 70.6242 298.72 70.9975 298.944C71.3815 299.179 71.9415 299.296 72.6775 299.296C74.2775 299.296 75.0775 298.789 75.0775 297.776C75.0775 297.413 74.9548 297.099 74.7095 296.832C74.4748 296.576 74.1335 296.421 73.6855 296.368L70.8855 295.984C69.7015 295.824 69.1095 295.296 69.1095 294.4C69.1095 293.963 69.2482 293.605 69.5255 293.328C69.8135 293.051 70.2188 292.859 70.7415 292.752V292.688C70.4962 292.592 70.2722 292.459 70.0695 292.288C69.8775 292.117 69.7068 291.92 69.5575 291.696C69.4082 291.472 69.2908 291.232 69.2055 290.976C69.1308 290.709 69.0935 290.437 69.0935 290.16C69.0935 289.765 69.1735 289.397 69.3335 289.056C69.5042 288.704 69.7335 288.405 70.0215 288.16C70.3202 287.915 70.6668 287.723 71.0615 287.584C71.4668 287.435 71.9042 287.36 72.3735 287.36C72.8322 287.36 73.2802 287.429 73.7175 287.568C74.1548 287.707 74.5282 287.899 74.8375 288.144C75.0828 287.995 75.2962 287.872 75.4775 287.776C75.6588 287.669 75.8242 287.589 75.9735 287.536C76.1335 287.472 76.2775 287.429 76.4055 287.408C76.5335 287.376 76.6615 287.36 76.7895 287.36C77.1948 287.36 77.5202 287.451 77.7655 287.632C78.0215 287.813 78.1495 288.053 78.1495 288.352C78.1495 288.576 78.0802 288.763 77.9415 288.912C77.8028 289.051 77.6215 289.12 77.3975 289.12C77.2375 289.12 77.1095 289.088 77.0135 289.024C76.9175 288.949 76.8215 288.869 76.7255 288.784C76.6402 288.688 76.5495 288.608 76.4535 288.544C76.3575 288.469 76.2295 288.432 76.0695 288.432C75.8455 288.432 75.6322 288.576 75.4295 288.864C75.5362 289.045 75.6108 289.243 75.6535 289.456C75.6962 289.659 75.7175 289.899 75.7175 290.176C75.7175 290.581 75.6535 290.955 75.5255 291.296C75.3975 291.637 75.1948 291.941 74.9175 292.208C74.6508 292.464 74.3042 292.683 73.8775 292.864C73.4508 293.045 72.9335 293.168 72.3255 293.232C71.8135 293.285 71.4562 293.355 71.2535 293.44C71.0615 293.525 70.9655 293.653 70.9655 293.824C70.9655 294.08 71.2055 294.229 71.6855 294.272ZM72.4535 292.32C72.7948 292.32 73.0615 292.139 73.2535 291.776C73.4455 291.413 73.5415 290.907 73.5415 290.256C73.5415 289.595 73.4455 289.088 73.2535 288.736C73.0615 288.373 72.7895 288.192 72.4375 288.192C72.0748 288.192 71.7868 288.373 71.5735 288.736C71.3602 289.099 71.2535 289.595 71.2535 290.224C71.2535 290.864 71.3602 291.376 71.5735 291.76C71.7975 292.133 72.0908 292.32 72.4535 292.32ZM82.0311 293.52C82.0311 293.936 82.0471 294.267 82.0791 294.512C82.1218 294.747 82.2018 294.928 82.3191 295.056C82.4365 295.184 82.6071 295.269 82.8311 295.312C83.0551 295.344 83.3538 295.36 83.7271 295.36V296H78.3831V295.36C78.7031 295.339 78.9591 295.307 79.1511 295.264C79.3431 295.221 79.4871 295.136 79.5831 295.008C79.6791 294.88 79.7378 294.699 79.7591 294.464C79.7911 294.219 79.8071 293.893 79.8071 293.488V291.536C79.8071 290.875 79.7911 290.347 79.7591 289.952C79.7271 289.557 79.6578 289.253 79.5511 289.04C79.4445 288.827 79.2898 288.688 79.0871 288.624C78.8951 288.549 78.6391 288.512 78.3191 288.512V287.952L81.5191 287.36L81.7751 289.2H81.8391C82.1271 288.635 82.5058 288.187 82.9751 287.856C83.4445 287.525 83.9405 287.36 84.4631 287.36C84.8685 287.36 85.1991 287.461 85.4551 287.664C85.7111 287.867 85.8391 288.123 85.8391 288.432C85.8391 288.773 85.7378 289.061 85.5351 289.296C85.3431 289.531 85.0765 289.648 84.7351 289.648C84.5751 289.648 84.4311 289.616 84.3031 289.552C84.1751 289.488 84.0578 289.419 83.9511 289.344C83.8551 289.259 83.7538 289.184 83.6471 289.12C83.5511 289.045 83.4498 289.008 83.3431 289.008C83.1405 289.008 82.9485 289.141 82.7671 289.408C82.5858 289.675 82.4365 290.032 82.3191 290.48C82.2338 290.8 82.1645 291.163 82.1111 291.568C82.0578 291.963 82.0311 292.357 82.0311 292.752V293.52ZM94.5181 294.512C93.5475 295.611 92.3368 296.16 90.8861 296.16C90.2248 296.16 89.6221 296.059 89.0781 295.856C88.5448 295.643 88.0861 295.349 87.7021 294.976C87.3181 294.592 87.0195 294.139 86.8061 293.616C86.5928 293.093 86.4861 292.512 86.4861 291.872C86.4861 291.211 86.5981 290.608 86.8221 290.064C87.0461 289.509 87.3608 289.035 87.7661 288.64C88.1821 288.235 88.6675 287.92 89.2221 287.696C89.7875 287.472 90.4061 287.36 91.0781 287.36C92.2088 287.36 93.0888 287.664 93.7181 288.272C94.3475 288.88 94.6621 289.733 94.6621 290.832C94.6621 291.003 94.6355 291.109 94.5821 291.152C94.5288 291.184 94.3795 291.2 94.1341 291.2H88.9821C88.9395 291.296 88.9181 291.472 88.9181 291.728C88.9181 292.773 89.1421 293.6 89.5901 294.208C90.0488 294.816 90.6675 295.12 91.4461 295.12C91.8941 295.12 92.3368 295.019 92.7741 294.816C93.2221 294.613 93.6541 294.325 94.0701 293.952L94.5181 294.512ZM91.4141 290.304C91.8408 290.304 92.1128 290.283 92.2301 290.24C92.3581 290.187 92.4221 290.069 92.4221 289.888C92.4221 289.419 92.2888 289.035 92.0221 288.736C91.7555 288.437 91.4195 288.288 91.0141 288.288C90.5555 288.288 90.1448 288.48 89.7821 288.864C89.4301 289.237 89.2008 289.717 89.0941 290.304H91.4141ZM98.9855 294.272C99.2735 294.293 99.5242 294.315 99.7375 294.336C99.9615 294.357 100.17 294.384 100.362 294.416C100.564 294.437 100.762 294.464 100.954 294.496C101.156 294.517 101.37 294.544 101.594 294.576C102.426 294.693 103.076 295.008 103.546 295.52C104.026 296.021 104.266 296.645 104.266 297.392C104.266 298.299 103.892 298.987 103.146 299.456C102.399 299.925 101.3 300.16 99.8495 300.16C98.5162 300.16 97.4868 299.963 96.7615 299.568C96.0468 299.184 95.6895 298.635 95.6895 297.92C95.6895 297.365 95.8335 296.944 96.1215 296.656C96.4095 296.379 96.7722 296.24 97.2095 296.24C97.4868 296.24 97.7535 296.293 98.0095 296.4C98.2762 296.517 98.5002 296.683 98.6815 296.896C98.4042 296.949 98.1748 297.072 97.9935 297.264C97.8228 297.467 97.7375 297.701 97.7375 297.968C97.7375 298.395 97.9242 298.72 98.2975 298.944C98.6815 299.179 99.2415 299.296 99.9775 299.296C101.578 299.296 102.378 298.789 102.378 297.776C102.378 297.413 102.255 297.099 102.01 296.832C101.775 296.576 101.434 296.421 100.986 296.368L98.1855 295.984C97.0015 295.824 96.4095 295.296 96.4095 294.4C96.4095 293.963 96.5482 293.605 96.8255 293.328C97.1135 293.051 97.5188 292.859 98.0415 292.752V292.688C97.7962 292.592 97.5722 292.459 97.3695 292.288C97.1775 292.117 97.0068 291.92 96.8575 291.696C96.7082 291.472 96.5908 291.232 96.5055 290.976C96.4308 290.709 96.3935 290.437 96.3935 290.16C96.3935 289.765 96.4735 289.397 96.6335 289.056C96.8042 288.704 97.0335 288.405 97.3215 288.16C97.6202 287.915 97.9668 287.723 98.3615 287.584C98.7668 287.435 99.2042 287.36 99.6735 287.36C100.132 287.36 100.58 287.429 101.018 287.568C101.455 287.707 101.828 287.899 102.138 288.144C102.383 287.995 102.596 287.872 102.778 287.776C102.959 287.669 103.124 287.589 103.274 287.536C103.434 287.472 103.578 287.429 103.706 287.408C103.834 287.376 103.962 287.36 104.09 287.36C104.495 287.36 104.82 287.451 105.066 287.632C105.322 287.813 105.45 288.053 105.45 288.352C105.45 288.576 105.38 288.763 105.242 288.912C105.103 289.051 104.922 289.12 104.698 289.12C104.538 289.12 104.41 289.088 104.314 289.024C104.218 288.949 104.122 288.869 104.026 288.784C103.94 288.688 103.85 288.608 103.754 288.544C103.658 288.469 103.53 288.432 103.37 288.432C103.146 288.432 102.932 288.576 102.73 288.864C102.836 289.045 102.911 289.243 102.954 289.456C102.996 289.659 103.018 289.899 103.018 290.176C103.018 290.581 102.954 290.955 102.826 291.296C102.698 291.637 102.495 291.941 102.218 292.208C101.951 292.464 101.604 292.683 101.178 292.864C100.751 293.045 100.234 293.168 99.6255 293.232C99.1135 293.285 98.7562 293.355 98.5535 293.44C98.3615 293.525 98.2655 293.653 98.2655 293.824C98.2655 294.08 98.5055 294.229 98.9855 294.272ZM99.7535 292.32C100.095 292.32 100.362 292.139 100.554 291.776C100.746 291.413 100.842 290.907 100.842 290.256C100.842 289.595 100.746 289.088 100.554 288.736C100.362 288.373 100.09 288.192 99.7375 288.192C99.3748 288.192 99.0868 288.373 98.8735 288.736C98.6602 289.099 98.5535 289.595 98.5535 290.224C98.5535 290.864 98.6602 291.376 98.8735 291.76C99.0975 292.133 99.3908 292.32 99.7535 292.32ZM110.707 291.44C109.811 291.845 109.134 292.224 108.675 292.576C108.227 292.917 108.003 293.275 108.003 293.648C108.003 293.957 108.088 294.203 108.259 294.384C108.43 294.565 108.643 294.656 108.899 294.656C109.155 294.656 109.395 294.613 109.619 294.528C109.843 294.432 110.035 294.309 110.195 294.16C110.355 294.011 110.478 293.835 110.563 293.632C110.659 293.419 110.707 293.195 110.707 292.96V291.44ZM110.707 290.592V289.92C110.707 289.301 110.595 288.853 110.371 288.576C110.158 288.288 109.822 288.144 109.363 288.144C109.054 288.144 108.819 288.229 108.659 288.4C108.499 288.56 108.35 288.832 108.211 289.216C108.115 289.483 107.976 289.691 107.795 289.84C107.624 289.989 107.384 290.064 107.075 290.064C106.776 290.064 106.547 289.973 106.387 289.792C106.227 289.611 106.147 289.355 106.147 289.024C106.147 288.512 106.424 288.107 106.979 287.808C107.544 287.509 108.392 287.36 109.523 287.36C110.718 287.36 111.571 287.579 112.083 288.016C112.595 288.443 112.851 289.163 112.851 290.176V293.68C112.851 294.587 113.032 295.04 113.395 295.04C113.598 295.04 113.784 294.971 113.955 294.832L114.195 295.296C114.046 295.563 113.811 295.776 113.491 295.936C113.182 296.085 112.83 296.16 112.435 296.16C111.944 296.16 111.571 296.011 111.315 295.712C111.059 295.413 110.931 294.992 110.931 294.448H110.851C110.542 295.003 110.142 295.424 109.651 295.712C109.16 296 108.6 296.144 107.971 296.144C107.299 296.144 106.76 295.957 106.355 295.584C105.95 295.2 105.747 294.704 105.747 294.096C105.747 293.627 105.955 293.189 106.371 292.784C106.787 292.368 107.48 291.963 108.451 291.568L110.707 290.592ZM118.619 293.52C118.619 293.936 118.635 294.267 118.667 294.512C118.709 294.747 118.789 294.928 118.907 295.056C119.024 295.184 119.195 295.269 119.419 295.312C119.643 295.344 119.941 295.36 120.315 295.36V296H114.971V295.36C115.291 295.339 115.547 295.307 115.739 295.264C115.931 295.221 116.075 295.136 116.171 295.008C116.267 294.88 116.325 294.699 116.347 294.464C116.379 294.219 116.395 293.893 116.395 293.488V291.536C116.395 290.875 116.379 290.347 116.347 289.952C116.315 289.557 116.245 289.253 116.139 289.04C116.032 288.827 115.877 288.688 115.675 288.624C115.483 288.549 115.227 288.512 114.907 288.512V287.952L118.107 287.36L118.363 289.2H118.427C118.715 288.635 119.093 288.187 119.563 287.856C120.032 287.525 120.528 287.36 121.051 287.36C121.456 287.36 121.787 287.461 122.043 287.664C122.299 287.867 122.427 288.123 122.427 288.432C122.427 288.773 122.325 289.061 122.123 289.296C121.931 289.531 121.664 289.648 121.323 289.648C121.163 289.648 121.019 289.616 120.891 289.552C120.763 289.488 120.645 289.419 120.539 289.344C120.443 289.259 120.341 289.184 120.235 289.12C120.139 289.045 120.037 289.008 119.931 289.008C119.728 289.008 119.536 289.141 119.355 289.408C119.173 289.675 119.024 290.032 118.907 290.48C118.821 290.8 118.752 291.163 118.699 291.568C118.645 291.963 118.619 292.357 118.619 292.752V293.52ZM130.58 293.376C130.58 293.803 130.596 294.144 130.628 294.4C130.66 294.656 130.724 294.853 130.82 294.992C130.916 295.131 131.055 295.227 131.236 295.28C131.417 295.323 131.663 295.349 131.972 295.36V296H126.932V295.36C127.231 295.349 127.471 295.317 127.652 295.264C127.844 295.2 127.988 295.104 128.084 294.976C128.191 294.837 128.26 294.651 128.292 294.416C128.335 294.171 128.356 293.861 128.356 293.488V286.88C128.356 286.261 128.345 285.755 128.324 285.36C128.303 284.955 128.276 284.677 128.244 284.528C128.191 284.261 128.068 284.085 127.876 284C127.695 283.915 127.359 283.872 126.868 283.872V283.328L130.58 282.72V293.376ZM136.528 293.376C136.528 293.803 136.544 294.144 136.576 294.4C136.608 294.656 136.672 294.853 136.768 294.992C136.864 295.131 137.002 295.227 137.184 295.28C137.365 295.323 137.61 295.349 137.92 295.36V296H132.88V295.36C133.178 295.349 133.418 295.317 133.6 295.264C133.792 295.2 133.936 295.104 134.032 294.976C134.138 294.837 134.208 294.651 134.24 294.416C134.282 294.171 134.304 293.861 134.304 293.488V291.52C134.304 290.901 134.293 290.395 134.272 290C134.25 289.595 134.224 289.317 134.192 289.168C134.138 288.901 134.016 288.725 133.824 288.64C133.642 288.555 133.306 288.512 132.816 288.512V287.968L136.528 287.36V293.376ZM134.176 283.968C134.176 283.616 134.293 283.323 134.528 283.088C134.773 282.843 135.066 282.72 135.408 282.72C135.76 282.72 136.053 282.843 136.288 283.088C136.533 283.323 136.656 283.616 136.656 283.968C136.656 284.309 136.533 284.603 136.288 284.848C136.053 285.083 135.76 285.2 135.408 285.2C135.066 285.2 134.773 285.083 134.528 284.848C134.293 284.603 134.176 284.309 134.176 283.968ZM139.657 296H139.161V293.088H139.833C140.014 293.856 140.276 294.416 140.617 294.768C140.958 295.12 141.401 295.296 141.945 295.296C142.34 295.296 142.644 295.216 142.857 295.056C143.081 294.885 143.193 294.656 143.193 294.368C143.193 294.069 143.06 293.781 142.793 293.504C142.526 293.216 142.094 292.912 141.497 292.592C140.686 292.155 140.105 291.723 139.753 291.296C139.401 290.859 139.225 290.368 139.225 289.824C139.225 289.472 139.289 289.147 139.417 288.848C139.556 288.539 139.737 288.272 139.961 288.048C140.196 287.824 140.473 287.653 140.793 287.536C141.113 287.408 141.46 287.344 141.833 287.344C142.164 287.344 142.489 287.392 142.809 287.488C143.14 287.584 143.428 287.717 143.673 287.888L143.961 287.504H144.377V289.92H143.753C143.508 289.312 143.252 288.875 142.985 288.608C142.729 288.341 142.414 288.208 142.041 288.208C141.742 288.208 141.502 288.288 141.321 288.448C141.15 288.608 141.065 288.821 141.065 289.088C141.065 289.387 141.193 289.669 141.449 289.936C141.716 290.203 142.153 290.496 142.761 290.816C143.188 291.051 143.556 291.28 143.865 291.504C144.174 291.728 144.425 291.957 144.617 292.192C144.809 292.416 144.948 292.656 145.033 292.912C145.129 293.157 145.177 293.424 145.177 293.712C145.177 294.085 145.108 294.421 144.969 294.72C144.83 295.019 144.633 295.275 144.377 295.488C144.121 295.701 143.812 295.867 143.449 295.984C143.097 296.101 142.702 296.16 142.265 296.16C141.806 296.16 141.38 296.101 140.985 295.984C140.59 295.856 140.265 295.675 140.009 295.44L139.657 296ZM146.25 288.4V287.68C146.89 287.499 147.423 287.227 147.85 286.864C148.287 286.491 148.613 286.064 148.826 285.584H149.642V287.52H151.482V288.4H149.642V293.312C149.642 293.973 149.711 294.443 149.85 294.72C149.999 294.997 150.245 295.136 150.586 295.136C151.002 295.136 151.317 294.944 151.53 294.56L151.866 295.024C151.567 295.781 150.863 296.16 149.754 296.16C149.018 296.16 148.442 295.989 148.026 295.648C147.621 295.307 147.418 294.827 147.418 294.208V288.4H146.25ZM157.563 291.44C156.667 291.845 155.99 292.224 155.531 292.576C155.083 292.917 154.859 293.275 154.859 293.648C154.859 293.957 154.945 294.203 155.115 294.384C155.286 294.565 155.499 294.656 155.755 294.656C156.011 294.656 156.251 294.613 156.475 294.528C156.699 294.432 156.891 294.309 157.051 294.16C157.211 294.011 157.334 293.835 157.419 293.632C157.515 293.419 157.563 293.195 157.563 292.96V291.44ZM157.563 290.592V289.92C157.563 289.301 157.451 288.853 157.227 288.576C157.014 288.288 156.678 288.144 156.219 288.144C155.91 288.144 155.675 288.229 155.515 288.4C155.355 288.56 155.206 288.832 155.067 289.216C154.971 289.483 154.833 289.691 154.651 289.84C154.481 289.989 154.241 290.064 153.931 290.064C153.633 290.064 153.403 289.973 153.243 289.792C153.083 289.611 153.003 289.355 153.003 289.024C153.003 288.512 153.281 288.107 153.835 287.808C154.401 287.509 155.249 287.36 156.379 287.36C157.574 287.36 158.427 287.579 158.939 288.016C159.451 288.443 159.707 289.163 159.707 290.176V293.68C159.707 294.587 159.889 295.04 160.251 295.04C160.454 295.04 160.641 294.971 160.811 294.832L161.051 295.296C160.902 295.563 160.667 295.776 160.347 295.936C160.038 296.085 159.686 296.16 159.291 296.16C158.801 296.16 158.427 296.011 158.171 295.712C157.915 295.413 157.787 294.992 157.787 294.448H157.707C157.398 295.003 156.998 295.424 156.507 295.712C156.017 296 155.457 296.144 154.827 296.144C154.155 296.144 153.617 295.957 153.211 295.584C152.806 295.2 152.603 294.704 152.603 294.096C152.603 293.627 152.811 293.189 153.227 292.784C153.643 292.368 154.337 291.963 155.307 291.568L157.563 290.592Z" fill="#333333"/>
<path d="M31 283L31 299" stroke="#628F22" stroke-width="2" stroke-linecap="round"/>
<path d="M39 291L23 291" stroke="#628F22" stroke-width="2" stroke-linecap="round"/>
<path d="M64.296 341.008L67.992 331.68H72.664V332.32C72.312 332.32 72.024 332.357 71.8 332.432C71.5867 332.496 71.4213 332.619 71.304 332.8C71.1867 332.981 71.1067 333.232 71.064 333.552C71.032 333.861 71.016 334.256 71.016 334.736V340.944C71.016 341.477 71.0373 341.899 71.08 342.208C71.1227 342.517 71.208 342.757 71.336 342.928C71.464 343.099 71.6453 343.211 71.88 343.264C72.1253 343.317 72.4453 343.349 72.84 343.36V344H66.824V343.36C67.2187 343.349 67.5333 343.317 67.768 343.264C68.0133 343.2 68.2 343.088 68.328 342.928C68.4667 342.768 68.5573 342.544 68.6 342.256C68.6427 341.957 68.664 341.557 68.664 341.056V333.568H68.584L64.28 344.16H63.096L58.648 333.568H58.584V340.944C58.584 341.477 58.6053 341.899 58.648 342.208C58.6907 342.517 58.776 342.757 58.904 342.928C59.032 343.099 59.2133 343.211 59.448 343.264C59.6933 343.317 60.0133 343.349 60.408 343.36V344H55.48V343.36C55.8747 343.349 56.1947 343.317 56.44 343.264C56.6853 343.2 56.872 343.088 57 342.928C57.1387 342.768 57.2293 342.544 57.272 342.256C57.3147 341.957 57.336 341.557 57.336 341.056V334.624C57.336 334.176 57.3147 333.803 57.272 333.504C57.2293 333.205 57.1493 332.971 57.032 332.8C56.9147 332.619 56.744 332.496 56.52 332.432C56.3067 332.357 56.0187 332.32 55.656 332.32V331.68H60.504L64.232 341.008H64.296ZM77.5245 341.376C77.5245 341.803 77.5405 342.144 77.5725 342.4C77.6045 342.656 77.6685 342.853 77.7645 342.992C77.8605 343.131 77.9992 343.227 78.1805 343.28C78.3618 343.323 78.6072 343.349 78.9165 343.36V344H73.8765V343.36C74.1752 343.349 74.4152 343.317 74.5965 343.264C74.7885 343.2 74.9325 343.104 75.0285 342.976C75.1352 342.837 75.2045 342.651 75.2365 342.416C75.2792 342.171 75.3005 341.861 75.3005 341.488V339.52C75.3005 338.901 75.2898 338.395 75.2685 338C75.2472 337.595 75.2205 337.317 75.1885 337.168C75.1352 336.901 75.0125 336.725 74.8205 336.64C74.6392 336.555 74.3032 336.512 73.8125 336.512V335.968L77.5245 335.36V341.376ZM75.1725 331.968C75.1725 331.616 75.2898 331.323 75.5245 331.088C75.7698 330.843 76.0632 330.72 76.4045 330.72C76.7565 330.72 77.0498 330.843 77.2845 331.088C77.5298 331.323 77.6525 331.616 77.6525 331.968C77.6525 332.309 77.5298 332.603 77.2845 332.848C77.0498 333.083 76.7565 333.2 76.4045 333.2C76.0632 333.2 75.7698 333.083 75.5245 332.848C75.2898 332.603 75.1725 332.309 75.1725 331.968ZM80.6538 344H80.1578V341.088H80.8298C81.0111 341.856 81.2724 342.416 81.6138 342.768C81.9551 343.12 82.3978 343.296 82.9418 343.296C83.3364 343.296 83.6404 343.216 83.8538 343.056C84.0778 342.885 84.1898 342.656 84.1898 342.368C84.1898 342.069 84.0564 341.781 83.7898 341.504C83.5231 341.216 83.0911 340.912 82.4938 340.592C81.6831 340.155 81.1018 339.723 80.7498 339.296C80.3978 338.859 80.2218 338.368 80.2218 337.824C80.2218 337.472 80.2858 337.147 80.4138 336.848C80.5524 336.539 80.7338 336.272 80.9578 336.048C81.1924 335.824 81.4698 335.653 81.7898 335.536C82.1098 335.408 82.4564 335.344 82.8298 335.344C83.1604 335.344 83.4858 335.392 83.8058 335.488C84.1364 335.584 84.4244 335.717 84.6698 335.888L84.9578 335.504H85.3738V337.92H84.7498C84.5044 337.312 84.2484 336.875 83.9818 336.608C83.7258 336.341 83.4111 336.208 83.0378 336.208C82.7391 336.208 82.4991 336.288 82.3178 336.448C82.1471 336.608 82.0618 336.821 82.0618 337.088C82.0618 337.387 82.1898 337.669 82.4458 337.936C82.7124 338.203 83.1498 338.496 83.7578 338.816C84.1844 339.051 84.5524 339.28 84.8618 339.504C85.1711 339.728 85.4218 339.957 85.6138 340.192C85.8058 340.416 85.9444 340.656 86.0298 340.912C86.1258 341.157 86.1738 341.424 86.1738 341.712C86.1738 342.085 86.1044 342.421 85.9658 342.72C85.8271 343.019 85.6298 343.275 85.3738 343.488C85.1178 343.701 84.8084 343.867 84.4458 343.984C84.0938 344.101 83.6991 344.16 83.2618 344.16C82.8031 344.16 82.3764 344.101 81.9818 343.984C81.5871 343.856 81.2618 343.675 81.0058 343.44L80.6538 344ZM95.1489 341.376C95.1489 341.803 95.1649 342.144 95.1969 342.4C95.2289 342.656 95.2929 342.853 95.3889 342.992C95.4849 343.131 95.6235 343.227 95.8049 343.28C95.9862 343.323 96.2315 343.349 96.5409 343.36V344H91.5009V343.36C91.7995 343.349 92.0395 343.317 92.2209 343.264C92.4129 343.2 92.5569 343.104 92.6529 342.976C92.7595 342.837 92.8289 342.651 92.8609 342.416C92.9035 342.171 92.9249 341.861 92.9249 341.488V334.88C92.9249 334.261 92.9142 333.755 92.8929 333.36C92.8715 332.955 92.8449 332.677 92.8129 332.528C92.7595 332.261 92.6369 332.085 92.4449 332C92.2635 331.915 91.9275 331.872 91.4369 331.872V331.328L95.1489 330.72V341.376ZM101.096 341.376C101.096 341.803 101.112 342.144 101.144 342.4C101.176 342.656 101.24 342.853 101.336 342.992C101.432 343.131 101.571 343.227 101.752 343.28C101.934 343.323 102.179 343.349 102.488 343.36V344H97.4484V343.36C97.747 343.349 97.987 343.317 98.1684 343.264C98.3604 343.2 98.5044 343.104 98.6004 342.976C98.707 342.837 98.7764 342.651 98.8084 342.416C98.851 342.171 98.8724 341.861 98.8724 341.488V339.52C98.8724 338.901 98.8617 338.395 98.8404 338C98.819 337.595 98.7924 337.317 98.7604 337.168C98.707 336.901 98.5844 336.725 98.3924 336.64C98.211 336.555 97.875 336.512 97.3844 336.512V335.968L101.096 335.36V341.376ZM98.7444 331.968C98.7444 331.616 98.8617 331.323 99.0964 331.088C99.3417 330.843 99.635 330.72 99.9764 330.72C100.328 330.72 100.622 330.843 100.856 331.088C101.102 331.323 101.224 331.616 101.224 331.968C101.224 332.309 101.102 332.603 100.856 332.848C100.622 333.083 100.328 333.2 99.9764 333.2C99.635 333.2 99.3417 333.083 99.0964 332.848C98.8617 332.603 98.7444 332.309 98.7444 331.968ZM104.226 344H103.73V341.088H104.402C104.583 341.856 104.844 342.416 105.186 342.768C105.527 343.12 105.97 343.296 106.514 343.296C106.908 343.296 107.212 343.216 107.426 343.056C107.65 342.885 107.762 342.656 107.762 342.368C107.762 342.069 107.628 341.781 107.362 341.504C107.095 341.216 106.663 340.912 106.066 340.592C105.255 340.155 104.674 339.723 104.322 339.296C103.97 338.859 103.794 338.368 103.794 337.824C103.794 337.472 103.858 337.147 103.986 336.848C104.124 336.539 104.306 336.272 104.53 336.048C104.764 335.824 105.042 335.653 105.362 335.536C105.682 335.408 106.028 335.344 106.402 335.344C106.732 335.344 107.058 335.392 107.378 335.488C107.708 335.584 107.996 335.717 108.242 335.888L108.53 335.504H108.946V337.92H108.322C108.076 337.312 107.82 336.875 107.554 336.608C107.298 336.341 106.983 336.208 106.61 336.208C106.311 336.208 106.071 336.288 105.89 336.448C105.719 336.608 105.634 336.821 105.634 337.088C105.634 337.387 105.762 337.669 106.018 337.936C106.284 338.203 106.722 338.496 107.33 338.816C107.756 339.051 108.124 339.28 108.434 339.504C108.743 339.728 108.994 339.957 109.186 340.192C109.378 340.416 109.516 340.656 109.602 340.912C109.698 341.157 109.746 341.424 109.746 341.712C109.746 342.085 109.676 342.421 109.538 342.72C109.399 343.019 109.202 343.275 108.946 343.488C108.69 343.701 108.38 343.867 108.018 343.984C107.666 344.101 107.271 344.16 106.834 344.16C106.375 344.16 105.948 344.101 105.554 343.984C105.159 343.856 104.834 343.675 104.578 343.44L104.226 344ZM110.819 336.4V335.68C111.459 335.499 111.992 335.227 112.419 334.864C112.856 334.491 113.181 334.064 113.395 333.584H114.211V335.52H116.051V336.4H114.211V341.312C114.211 341.973 114.28 342.443 114.419 342.72C114.568 342.997 114.813 343.136 115.155 343.136C115.571 343.136 115.885 342.944 116.099 342.56L116.435 343.024C116.136 343.781 115.432 344.16 114.323 344.16C113.587 344.16 113.011 343.989 112.595 343.648C112.189 343.307 111.987 342.827 111.987 342.208V336.4H110.819ZM122.132 339.44C121.236 339.845 120.559 340.224 120.1 340.576C119.652 340.917 119.428 341.275 119.428 341.648C119.428 341.957 119.513 342.203 119.684 342.384C119.855 342.565 120.068 342.656 120.324 342.656C120.58 342.656 120.82 342.613 121.044 342.528C121.268 342.432 121.46 342.309 121.62 342.16C121.78 342.011 121.903 341.835 121.988 341.632C122.084 341.419 122.132 341.195 122.132 340.96V339.44ZM122.132 338.592V337.92C122.132 337.301 122.02 336.853 121.796 336.576C121.583 336.288 121.247 336.144 120.788 336.144C120.479 336.144 120.244 336.229 120.084 336.4C119.924 336.56 119.775 336.832 119.636 337.216C119.54 337.483 119.401 337.691 119.22 337.84C119.049 337.989 118.809 338.064 118.5 338.064C118.201 338.064 117.972 337.973 117.812 337.792C117.652 337.611 117.572 337.355 117.572 337.024C117.572 336.512 117.849 336.107 118.404 335.808C118.969 335.509 119.817 335.36 120.948 335.36C122.143 335.36 122.996 335.579 123.508 336.016C124.02 336.443 124.276 337.163 124.276 338.176V341.68C124.276 342.587 124.457 343.04 124.82 343.04C125.023 343.04 125.209 342.971 125.38 342.832L125.62 343.296C125.471 343.563 125.236 343.776 124.916 343.936C124.607 344.085 124.255 344.16 123.86 344.16C123.369 344.16 122.996 344.011 122.74 343.712C122.484 343.413 122.356 342.992 122.356 342.448H122.276C121.967 343.003 121.567 343.424 121.076 343.712C120.585 344 120.025 344.144 119.396 344.144C118.724 344.144 118.185 343.957 117.78 343.584C117.375 343.2 117.172 342.704 117.172 342.096C117.172 341.627 117.38 341.189 117.796 340.784C118.212 340.368 118.905 339.963 119.876 339.568L122.132 338.592ZM127.276 344H126.78V341.088H127.452C127.633 341.856 127.894 342.416 128.236 342.768C128.577 343.12 129.02 343.296 129.564 343.296C129.958 343.296 130.262 343.216 130.476 343.056C130.7 342.885 130.812 342.656 130.812 342.368C130.812 342.069 130.678 341.781 130.412 341.504C130.145 341.216 129.713 340.912 129.116 340.592C128.305 340.155 127.724 339.723 127.372 339.296C127.02 338.859 126.844 338.368 126.844 337.824C126.844 337.472 126.908 337.147 127.036 336.848C127.174 336.539 127.356 336.272 127.58 336.048C127.814 335.824 128.092 335.653 128.412 335.536C128.732 335.408 129.078 335.344 129.452 335.344C129.782 335.344 130.108 335.392 130.428 335.488C130.758 335.584 131.046 335.717 131.292 335.888L131.58 335.504H131.996V337.92H131.372C131.126 337.312 130.87 336.875 130.604 336.608C130.348 336.341 130.033 336.208 129.66 336.208C129.361 336.208 129.121 336.288 128.94 336.448C128.769 336.608 128.684 336.821 128.684 337.088C128.684 337.387 128.812 337.669 129.068 337.936C129.334 338.203 129.772 338.496 130.38 338.816C130.806 339.051 131.174 339.28 131.484 339.504C131.793 339.728 132.044 339.957 132.236 340.192C132.428 340.416 132.566 340.656 132.652 340.912C132.748 341.157 132.796 341.424 132.796 341.712C132.796 342.085 132.726 342.421 132.588 342.72C132.449 343.019 132.252 343.275 131.996 343.488C131.74 343.701 131.43 343.867 131.068 343.984C130.716 344.101 130.321 344.16 129.884 344.16C129.425 344.16 128.998 344.101 128.604 343.984C128.209 343.856 127.884 343.675 127.628 343.44L127.276 344Z" fill="#333333"/>
<path d="M15 323H47V355H15V323Z" fill="white"/>
<path d="M17.6666 345.666H20.3333V346.333H19V347.666H20.3333V348.333H17.6666V349.666H21.6666V344.333H17.6666V345.666ZM19 333.666H20.3333V328.333H17.6666V329.666H19V333.666ZM17.6666 337.666H20.0666L17.6666 340.466V341.666H21.6666V340.333H19.2666L21.6666 337.533V336.333H17.6666V337.666ZM24.3333 329.666V332.333H43V329.666H24.3333ZM24.3333 348.333H43V345.666H24.3333V348.333ZM24.3333 340.333H43V337.666H24.3333V340.333Z" fill="#628F22"/>
<path d="M15.41 42.59L10.83 38L15.41 33.41L14 32L8 38L14 44L15.41 42.59Z" fill="#333333"/>
<path d="M55.528 395V394.36C55.8907 394.349 56.1787 394.317 56.392 394.264C56.616 394.211 56.7867 394.12 56.904 393.992C57.032 393.864 57.1173 393.683 57.16 393.448C57.2027 393.213 57.224 392.909 57.224 392.536V385.144C57.224 384.771 57.208 384.472 57.176 384.248C57.144 384.013 57.0747 383.832 56.968 383.704C56.872 383.565 56.7333 383.475 56.552 383.432C56.3813 383.379 56.152 383.341 55.864 383.32V382.68H61C62.6107 382.68 63.848 382.941 64.712 383.464C65.5867 383.976 66.024 384.712 66.024 385.672C66.024 386.941 65.112 387.837 63.288 388.36V388.424C63.8747 388.424 64.4027 388.509 64.872 388.68C65.352 388.84 65.7573 389.069 66.088 389.368C66.4187 389.667 66.6747 390.019 66.856 390.424C67.0373 390.829 67.128 391.272 67.128 391.752C67.128 392.296 66.9947 392.771 66.728 393.176C66.472 393.581 66.0987 393.923 65.608 394.2C64.6587 394.733 63.352 395 61.688 395H55.528ZM61.8 394.024C63.5173 394.024 64.376 393.251 64.376 391.704C64.376 390.755 64.0667 390.061 63.448 389.624C63.128 389.4 62.712 389.24 62.2 389.144C61.6987 389.048 61.08 389 60.344 389H59.576V392.2C59.576 392.861 59.7467 393.331 60.088 393.608C60.4293 393.885 61 394.024 61.8 394.024ZM60.52 388.04C61 388.04 61.416 387.997 61.768 387.912C62.12 387.816 62.4187 387.683 62.664 387.512C63.176 387.16 63.432 386.611 63.432 385.864C63.432 385.085 63.24 384.525 62.856 384.184C62.472 383.832 61.8533 383.656 61 383.656H59.864C59.672 383.656 59.576 383.747 59.576 383.928V388.04H60.52ZM73.098 386.36C73.738 386.36 74.3407 386.472 74.906 386.696C75.482 386.909 75.9833 387.208 76.41 387.592C76.8473 387.976 77.1887 388.435 77.434 388.968C77.69 389.491 77.818 390.067 77.818 390.696C77.818 391.347 77.69 391.944 77.434 392.488C77.1887 393.032 76.8473 393.501 76.41 393.896C75.9833 394.291 75.482 394.6 74.906 394.824C74.3407 395.048 73.738 395.16 73.098 395.16C72.4687 395.16 71.8713 395.053 71.306 394.84C70.7407 394.616 70.2447 394.307 69.818 393.912C69.3913 393.517 69.0553 393.048 68.81 392.504C68.5647 391.949 68.442 391.347 68.442 390.696C68.442 390.067 68.5647 389.485 68.81 388.952C69.0553 388.419 69.3913 387.96 69.818 387.576C70.2447 387.192 70.7407 386.893 71.306 386.68C71.8713 386.467 72.4687 386.36 73.098 386.36ZM73.098 387.288C72.778 387.288 72.4847 387.373 72.218 387.544C71.9513 387.704 71.722 387.933 71.53 388.232C71.3487 388.531 71.2047 388.893 71.098 389.32C71.002 389.736 70.954 390.2 70.954 390.712C70.954 391.245 71.002 391.725 71.098 392.152C71.2047 392.579 71.3487 392.941 71.53 393.24C71.722 393.539 71.946 393.773 72.202 393.944C72.4687 394.104 72.7673 394.184 73.098 394.184C73.4287 394.184 73.7273 394.104 73.994 393.944C74.2713 393.773 74.506 393.539 74.698 393.24C74.89 392.931 75.0393 392.563 75.146 392.136C75.2527 391.709 75.306 391.235 75.306 390.712C75.306 390.2 75.2527 389.736 75.146 389.32C75.0393 388.904 74.89 388.547 74.698 388.248C74.506 387.939 74.2713 387.704 73.994 387.544C73.7273 387.373 73.4287 387.288 73.098 387.288ZM82.6405 392.52C82.6405 392.936 82.6565 393.267 82.6885 393.512C82.7312 393.747 82.8112 393.928 82.9285 394.056C83.0458 394.184 83.2165 394.269 83.4405 394.312C83.6645 394.344 83.9632 394.36 84.3365 394.36V395H78.9925V394.36C79.3125 394.339 79.5685 394.307 79.7605 394.264C79.9525 394.221 80.0965 394.136 80.1925 394.008C80.2885 393.88 80.3472 393.699 80.3685 393.464C80.4005 393.219 80.4165 392.893 80.4165 392.488V390.536C80.4165 389.875 80.4005 389.347 80.3685 388.952C80.3365 388.557 80.2672 388.253 80.1605 388.04C80.0538 387.827 79.8992 387.688 79.6965 387.624C79.5045 387.549 79.2485 387.512 78.9285 387.512V386.952L82.1285 386.36L82.3845 388.2H82.4485C82.7365 387.635 83.1152 387.187 83.5845 386.856C84.0538 386.525 84.5498 386.36 85.0725 386.36C85.4778 386.36 85.8085 386.461 86.0645 386.664C86.3205 386.867 86.4485 387.123 86.4485 387.432C86.4485 387.773 86.3472 388.061 86.1445 388.296C85.9525 388.531 85.6858 388.648 85.3445 388.648C85.1845 388.648 85.0405 388.616 84.9125 388.552C84.7845 388.488 84.6672 388.419 84.5605 388.344C84.4645 388.259 84.3632 388.184 84.2565 388.12C84.1605 388.045 84.0592 388.008 83.9525 388.008C83.7498 388.008 83.5578 388.141 83.3765 388.408C83.1952 388.675 83.0458 389.032 82.9285 389.48C82.8432 389.8 82.7738 390.163 82.7205 390.568C82.6672 390.963 82.6405 391.357 82.6405 391.752V392.52ZM90.7092 392.52C90.7092 392.936 90.7252 393.267 90.7572 393.512C90.7999 393.747 90.8799 393.928 90.9972 394.056C91.1146 394.184 91.2852 394.269 91.5092 394.312C91.7332 394.344 92.0319 394.36 92.4052 394.36V395H87.0612V394.36C87.3812 394.339 87.6372 394.307 87.8292 394.264C88.0212 394.221 88.1652 394.136 88.2612 394.008C88.3572 393.88 88.4159 393.699 88.4372 393.464C88.4692 393.219 88.4852 392.893 88.4852 392.488V390.536C88.4852 389.875 88.4692 389.347 88.4372 388.952C88.4052 388.557 88.3359 388.253 88.2292 388.04C88.1226 387.827 87.9679 387.688 87.7652 387.624C87.5732 387.549 87.3172 387.512 86.9972 387.512V386.952L90.1972 386.36L90.4532 388.2H90.5172C90.8052 387.635 91.1839 387.187 91.6532 386.856C92.1226 386.525 92.6186 386.36 93.1412 386.36C93.5466 386.36 93.8772 386.461 94.1332 386.664C94.3892 386.867 94.5172 387.123 94.5172 387.432C94.5172 387.773 94.4159 388.061 94.2132 388.296C94.0212 388.531 93.7546 388.648 93.4132 388.648C93.2532 388.648 93.1092 388.616 92.9812 388.552C92.8532 388.488 92.7359 388.419 92.6292 388.344C92.5332 388.259 92.4319 388.184 92.3252 388.12C92.2292 388.045 92.1279 388.008 92.0212 388.008C91.8186 388.008 91.6266 388.141 91.4452 388.408C91.2639 388.675 91.1146 389.032 90.9972 389.48C90.9119 389.8 90.8426 390.163 90.7892 390.568C90.7359 390.963 90.7092 391.357 90.7092 391.752V392.52ZM100.154 390.44C99.258 390.845 98.5807 391.224 98.122 391.576C97.674 391.917 97.45 392.275 97.45 392.648C97.45 392.957 97.5353 393.203 97.706 393.384C97.8767 393.565 98.09 393.656 98.346 393.656C98.602 393.656 98.842 393.613 99.066 393.528C99.29 393.432 99.482 393.309 99.642 393.16C99.802 393.011 99.9247 392.835 100.01 392.632C100.106 392.419 100.154 392.195 100.154 391.96V390.44ZM100.154 389.592V388.92C100.154 388.301 100.042 387.853 99.818 387.576C99.6047 387.288 99.2687 387.144 98.81 387.144C98.5007 387.144 98.266 387.229 98.106 387.4C97.946 387.56 97.7967 387.832 97.658 388.216C97.562 388.483 97.4233 388.691 97.242 388.84C97.0713 388.989 96.8313 389.064 96.522 389.064C96.2233 389.064 95.994 388.973 95.834 388.792C95.674 388.611 95.594 388.355 95.594 388.024C95.594 387.512 95.8713 387.107 96.426 386.808C96.9913 386.509 97.8393 386.36 98.97 386.36C100.165 386.36 101.018 386.579 101.53 387.016C102.042 387.443 102.298 388.163 102.298 389.176V392.68C102.298 393.587 102.479 394.04 102.842 394.04C103.045 394.04 103.231 393.971 103.402 393.832L103.642 394.296C103.493 394.563 103.258 394.776 102.938 394.936C102.629 395.085 102.277 395.16 101.882 395.16C101.391 395.16 101.018 395.011 100.762 394.712C100.506 394.413 100.378 393.992 100.378 393.448H100.298C99.9887 394.003 99.5887 394.424 99.098 394.712C98.6073 395 98.0473 395.144 97.418 395.144C96.746 395.144 96.2073 394.957 95.802 394.584C95.3967 394.2 95.194 393.704 95.194 393.096C95.194 392.627 95.402 392.189 95.818 391.784C96.234 391.368 96.9273 390.963 97.898 390.568L100.154 389.592ZM108.066 392.52C108.066 392.936 108.082 393.267 108.114 393.512C108.156 393.747 108.236 393.928 108.354 394.056C108.471 394.184 108.642 394.269 108.866 394.312C109.09 394.344 109.388 394.36 109.762 394.36V395H104.418V394.36C104.738 394.339 104.994 394.307 105.186 394.264C105.378 394.221 105.522 394.136 105.618 394.008C105.714 393.88 105.772 393.699 105.794 393.464C105.826 393.219 105.842 392.893 105.842 392.488V390.536C105.842 389.875 105.826 389.347 105.794 388.952C105.762 388.557 105.692 388.253 105.586 388.04C105.479 387.827 105.324 387.688 105.122 387.624C104.93 387.549 104.674 387.512 104.354 387.512V386.952L107.554 386.36L107.81 388.2H107.874C108.162 387.635 108.54 387.187 109.01 386.856C109.479 386.525 109.975 386.36 110.498 386.36C110.903 386.36 111.234 386.461 111.49 386.664C111.746 386.867 111.874 387.123 111.874 387.432C111.874 387.773 111.772 388.061 111.57 388.296C111.378 388.531 111.111 388.648 110.77 388.648C110.61 388.648 110.466 388.616 110.338 388.552C110.21 388.488 110.092 388.419 109.986 388.344C109.89 388.259 109.788 388.184 109.682 388.12C109.586 388.045 109.484 388.008 109.378 388.008C109.175 388.008 108.983 388.141 108.802 388.408C108.62 388.675 108.471 389.032 108.354 389.48C108.268 389.8 108.199 390.163 108.146 390.568C108.092 390.963 108.066 391.357 108.066 391.752V392.52ZM120.027 392.376C120.027 392.803 120.043 393.144 120.075 393.4C120.107 393.656 120.171 393.853 120.267 393.992C120.363 394.131 120.502 394.227 120.683 394.28C120.864 394.323 121.11 394.349 121.419 394.36V395H116.379V394.36C116.678 394.349 116.918 394.317 117.099 394.264C117.291 394.2 117.435 394.104 117.531 393.976C117.638 393.837 117.707 393.651 117.739 393.416C117.782 393.171 117.803 392.861 117.803 392.488V385.88C117.803 385.261 117.792 384.755 117.771 384.36C117.75 383.955 117.723 383.677 117.691 383.528C117.638 383.261 117.515 383.085 117.323 383C117.142 382.915 116.806 382.872 116.315 382.872V382.328L120.027 381.72V392.376ZM125.975 392.376C125.975 392.803 125.991 393.144 126.023 393.4C126.055 393.656 126.119 393.853 126.215 393.992C126.311 394.131 126.449 394.227 126.631 394.28C126.812 394.323 127.057 394.349 127.367 394.36V395H122.327V394.36C122.625 394.349 122.865 394.317 123.047 394.264C123.239 394.2 123.383 394.104 123.479 393.976C123.585 393.837 123.655 393.651 123.687 393.416C123.729 393.171 123.751 392.861 123.751 392.488V390.52C123.751 389.901 123.74 389.395 123.719 389C123.697 388.595 123.671 388.317 123.639 388.168C123.585 387.901 123.463 387.725 123.271 387.64C123.089 387.555 122.753 387.512 122.263 387.512V386.968L125.975 386.36V392.376ZM123.623 382.968C123.623 382.616 123.74 382.323 123.975 382.088C124.22 381.843 124.513 381.72 124.855 381.72C125.207 381.72 125.5 381.843 125.735 382.088C125.98 382.323 126.103 382.616 126.103 382.968C126.103 383.309 125.98 383.603 125.735 383.848C125.5 384.083 125.207 384.2 124.855 384.2C124.513 384.2 124.22 384.083 123.975 383.848C123.74 383.603 123.623 383.309 123.623 382.968ZM129.104 395H128.608V392.088H129.28C129.461 392.856 129.722 393.416 130.064 393.768C130.405 394.12 130.848 394.296 131.392 394.296C131.786 394.296 132.09 394.216 132.304 394.056C132.528 393.885 132.64 393.656 132.64 393.368C132.64 393.069 132.506 392.781 132.24 392.504C131.973 392.216 131.541 391.912 130.944 391.592C130.133 391.155 129.552 390.723 129.2 390.296C128.848 389.859 128.672 389.368 128.672 388.824C128.672 388.472 128.736 388.147 128.864 387.848C129.002 387.539 129.184 387.272 129.408 387.048C129.642 386.824 129.92 386.653 130.24 386.536C130.56 386.408 130.906 386.344 131.28 386.344C131.61 386.344 131.936 386.392 132.256 386.488C132.586 386.584 132.874 386.717 133.12 386.888L133.408 386.504H133.824V388.92H133.2C132.954 388.312 132.698 387.875 132.432 387.608C132.176 387.341 131.861 387.208 131.488 387.208C131.189 387.208 130.949 387.288 130.768 387.448C130.597 387.608 130.512 387.821 130.512 388.088C130.512 388.387 130.64 388.669 130.896 388.936C131.162 389.203 131.6 389.496 132.208 389.816C132.634 390.051 133.002 390.28 133.312 390.504C133.621 390.728 133.872 390.957 134.064 391.192C134.256 391.416 134.394 391.656 134.48 391.912C134.576 392.157 134.624 392.424 134.624 392.712C134.624 393.085 134.554 393.421 134.416 393.72C134.277 394.019 134.08 394.275 133.824 394.488C133.568 394.701 133.258 394.867 132.896 394.984C132.544 395.101 132.149 395.16 131.712 395.16C131.253 395.16 130.826 395.101 130.432 394.984C130.037 394.856 129.712 394.675 129.456 394.44L129.104 395ZM135.697 387.4V386.68C136.337 386.499 136.87 386.227 137.297 385.864C137.734 385.491 138.06 385.064 138.273 384.584H139.089V386.52H140.929V387.4H139.089V392.312C139.089 392.973 139.158 393.443 139.297 393.72C139.446 393.997 139.692 394.136 140.033 394.136C140.449 394.136 140.764 393.944 140.977 393.56L141.313 394.024C141.014 394.781 140.31 395.16 139.201 395.16C138.465 395.16 137.889 394.989 137.473 394.648C137.068 394.307 136.865 393.827 136.865 393.208V387.4H135.697ZM147.01 390.44C146.114 390.845 145.437 391.224 144.978 391.576C144.53 391.917 144.306 392.275 144.306 392.648C144.306 392.957 144.392 393.203 144.562 393.384C144.733 393.565 144.946 393.656 145.202 393.656C145.458 393.656 145.698 393.613 145.922 393.528C146.146 393.432 146.338 393.309 146.498 393.16C146.658 393.011 146.781 392.835 146.866 392.632C146.962 392.419 147.01 392.195 147.01 391.96V390.44ZM147.01 389.592V388.92C147.01 388.301 146.898 387.853 146.674 387.576C146.461 387.288 146.125 387.144 145.666 387.144C145.357 387.144 145.122 387.229 144.962 387.4C144.802 387.56 144.653 387.832 144.514 388.216C144.418 388.483 144.28 388.691 144.098 388.84C143.928 388.989 143.688 389.064 143.378 389.064C143.08 389.064 142.85 388.973 142.69 388.792C142.53 388.611 142.45 388.355 142.45 388.024C142.45 387.512 142.728 387.107 143.282 386.808C143.848 386.509 144.696 386.36 145.826 386.36C147.021 386.36 147.874 386.579 148.386 387.016C148.898 387.443 149.154 388.163 149.154 389.176V392.68C149.154 393.587 149.336 394.04 149.698 394.04C149.901 394.04 150.088 393.971 150.258 393.832L150.498 394.296C150.349 394.563 150.114 394.776 149.794 394.936C149.485 395.085 149.133 395.16 148.738 395.16C148.248 395.16 147.874 395.011 147.618 394.712C147.362 394.413 147.234 393.992 147.234 393.448H147.154C146.845 394.003 146.445 394.424 145.954 394.712C145.464 395 144.904 395.144 144.274 395.144C143.602 395.144 143.064 394.957 142.658 394.584C142.253 394.2 142.05 393.704 142.05 393.096C142.05 392.627 142.258 392.189 142.674 391.784C143.09 391.368 143.784 390.963 144.754 390.568L147.01 389.592Z" fill="#333333"/>
<path d="M39 379V395C39 396.473 37.8061 397.667 36.3334 397.667H25.6667C24.1939 397.667 23 396.473 23 395V379M35 379V377.667C35 376.194 33.8061 375 32.3334 375H29.6667C28.1939 375 27 376.194 27 377.667V379M20.3334 379H41.6667M28.3334 384.333V392.333M33.6667 384.333V392.333" stroke="#628F22" stroke-width="2" stroke-linecap="round" stroke-linejoin="round"/>
<circle cx="349" cy="475" r="24" fill="#628F22" fill-opacity="0.9"/>
<path d="M349 483L349 467" stroke="#F2C11F" stroke-opacity="0.8" stroke-width="3" stroke-linecap="square"/>
<path d="M357 475L341 475" stroke="#F2C11F" stroke-opacity="0.8" stroke-width="3" stroke-linecap="square"/>
<defs>
<filter id="filter0_d" x="16" y="0" width="386" height="84" filterUnits="userSpaceOnUse" color-interpolation-filters="sRGB">
<feFlood flood-opacity="0" result="BackgroundImageFix"/>
<feColorMatrix in="SourceAlpha" type="matrix" values="0 0 0 0 0 0 0 0 0 0 0 0 0 0 0 0 0 0 127 0"/>
<feOffset dx="4" dy="4"/>
<feGaussianBlur stdDeviation="10"/>
<feColorMatrix type="matrix" values="0 0 0 0 0 0 0 0 0 0 0 0 0 0 0 0 0 0 0.15 0"/>
<feBlend mode="normal" in2="BackgroundImageFix" result="effect1_dropShadow"/>
<feBlend mode="normal" in="SourceGraphic" in2="effect1_dropShadow" result="shape"/>
</filter>
</defs>
</svg>
