<svg width="147" height="128" viewBox="0 0 147 128" fill="none" xmlns="http://www.w3.org/2000/svg">
<path d="M48.016 17.272H43.488C42.9867 18.4027 42.736 19.1867 42.736 19.624C42.736 19.944 42.8533 20.1467 43.088 20.232C43.3333 20.3173 43.696 20.36 44.176 20.36V21H39.792V20.36C40.048 20.328 40.2667 20.2853 40.448 20.232C40.64 20.1787 40.8053 20.104 40.944 20.008C41.0933 19.912 41.2213 19.7893 41.328 19.64C41.4347 19.48 41.536 19.288 41.632 19.064L45.84 8.52H47.024L50.848 17.864C51.072 18.408 51.2587 18.8347 51.408 19.144C51.568 19.4533 51.7333 19.6933 51.904 19.864C52.0853 20.024 52.288 20.136 52.512 20.2C52.7467 20.264 53.0453 20.312 53.408 20.344V21H47.36V20.344C47.872 20.3227 48.24 20.2693 48.464 20.184C48.688 20.0987 48.8 19.928 48.8 19.672C48.8 19.5227 48.7627 19.3307 48.688 19.096C48.6133 18.8613 48.512 18.5733 48.384 18.232L48.016 17.272ZM43.856 16.312H47.664L45.824 11.464H45.76L43.856 16.312ZM56.6855 19.272C56.9735 19.2933 57.2242 19.3147 57.4375 19.336C57.6615 19.3573 57.8695 19.384 58.0615 19.416C58.2642 19.4373 58.4615 19.464 58.6535 19.496C58.8562 19.5173 59.0695 19.544 59.2935 19.576C60.1255 19.6933 60.7762 20.008 61.2455 20.52C61.7255 21.0213 61.9655 21.6453 61.9655 22.392C61.9655 23.2987 61.5922 23.9867 60.8455 24.456C60.0988 24.9253 59.0002 25.16 57.5495 25.16C56.2162 25.16 55.1868 24.9627 54.4615 24.568C53.7468 24.184 53.3895 23.6347 53.3895 22.92C53.3895 22.3653 53.5335 21.944 53.8215 21.656C54.1095 21.3787 54.4722 21.24 54.9095 21.24C55.1868 21.24 55.4535 21.2933 55.7095 21.4C55.9762 21.5173 56.2002 21.6827 56.3815 21.896C56.1042 21.9493 55.8748 22.072 55.6935 22.264C55.5228 22.4667 55.4375 22.7013 55.4375 22.968C55.4375 23.3947 55.6242 23.72 55.9975 23.944C56.3815 24.1787 56.9415 24.296 57.6775 24.296C59.2775 24.296 60.0775 23.7893 60.0775 22.776C60.0775 22.4133 59.9548 22.0987 59.7095 21.832C59.4748 21.576 59.1335 21.4213 58.6855 21.368L55.8855 20.984C54.7015 20.824 54.1095 20.296 54.1095 19.4C54.1095 18.9627 54.2482 18.6053 54.5255 18.328C54.8135 18.0507 55.2188 17.8587 55.7415 17.752V17.688C55.4962 17.592 55.2722 17.4587 55.0695 17.288C54.8775 17.1173 54.7068 16.92 54.5575 16.696C54.4082 16.472 54.2908 16.232 54.2055 15.976C54.1308 15.7093 54.0935 15.4373 54.0935 15.16C54.0935 14.7653 54.1735 14.3973 54.3335 14.056C54.5042 13.704 54.7335 13.4053 55.0215 13.16C55.3202 12.9147 55.6668 12.7227 56.0615 12.584C56.4668 12.4347 56.9042 12.36 57.3735 12.36C57.8322 12.36 58.2802 12.4293 58.7175 12.568C59.1548 12.7067 59.5282 12.8987 59.8375 13.144C60.0828 12.9947 60.2962 12.872 60.4775 12.776C60.6588 12.6693 60.8242 12.5893 60.9735 12.536C61.1335 12.472 61.2775 12.4293 61.4055 12.408C61.5335 12.376 61.6615 12.36 61.7895 12.36C62.1948 12.36 62.5202 12.4507 62.7655 12.632C63.0215 12.8133 63.1495 13.0533 63.1495 13.352C63.1495 13.576 63.0802 13.7627 62.9415 13.912C62.8028 14.0507 62.6215 14.12 62.3975 14.12C62.2375 14.12 62.1095 14.088 62.0135 14.024C61.9175 13.9493 61.8215 13.8693 61.7255 13.784C61.6402 13.688 61.5495 13.608 61.4535 13.544C61.3575 13.4693 61.2295 13.432 61.0695 13.432C60.8455 13.432 60.6322 13.576 60.4295 13.864C60.5362 14.0453 60.6108 14.2427 60.6535 14.456C60.6962 14.6587 60.7175 14.8987 60.7175 15.176C60.7175 15.5813 60.6535 15.9547 60.5255 16.296C60.3975 16.6373 60.1948 16.9413 59.9175 17.208C59.6508 17.464 59.3042 17.6827 58.8775 17.864C58.4508 18.0453 57.9335 18.168 57.3255 18.232C56.8135 18.2853 56.4562 18.3547 56.2535 18.44C56.0615 18.5253 55.9655 18.6533 55.9655 18.824C55.9655 19.08 56.2055 19.2293 56.6855 19.272ZM57.4535 17.32C57.7948 17.32 58.0615 17.1387 58.2535 16.776C58.4455 16.4133 58.5415 15.9067 58.5415 15.256C58.5415 14.5947 58.4455 14.088 58.2535 13.736C58.0615 13.3733 57.7895 13.192 57.4375 13.192C57.0748 13.192 56.7868 13.3733 56.5735 13.736C56.3602 14.0987 56.2535 14.5947 56.2535 15.224C56.2535 15.864 56.3602 16.376 56.5735 16.76C56.7975 17.1333 57.0908 17.32 57.4535 17.32ZM67.0311 18.52C67.0311 18.936 67.0471 19.2667 67.0791 19.512C67.1218 19.7467 67.2018 19.928 67.3191 20.056C67.4365 20.184 67.6071 20.2693 67.8311 20.312C68.0551 20.344 68.3538 20.36 68.7271 20.36V21H63.3831V20.36C63.7031 20.3387 63.9591 20.3067 64.1511 20.264C64.3431 20.2213 64.4871 20.136 64.5831 20.008C64.6791 19.88 64.7378 19.6987 64.7591 19.464C64.7911 19.2187 64.8071 18.8933 64.8071 18.488V16.536C64.8071 15.8747 64.7911 15.3467 64.7591 14.952C64.7271 14.5573 64.6578 14.2533 64.5511 14.04C64.4445 13.8267 64.2898 13.688 64.0871 13.624C63.8951 13.5493 63.6391 13.512 63.3191 13.512V12.952L66.5191 12.36L66.7751 14.2H66.8391C67.1271 13.6347 67.5058 13.1867 67.9751 12.856C68.4445 12.5253 68.9405 12.36 69.4631 12.36C69.8685 12.36 70.1991 12.4613 70.4551 12.664C70.7111 12.8667 70.8391 13.1227 70.8391 13.432C70.8391 13.7733 70.7378 14.0613 70.5351 14.296C70.3431 14.5307 70.0765 14.648 69.7351 14.648C69.5751 14.648 69.4311 14.616 69.3031 14.552C69.1751 14.488 69.0578 14.4187 68.9511 14.344C68.8551 14.2587 68.7538 14.184 68.6471 14.12C68.5511 14.0453 68.4498 14.008 68.3431 14.008C68.1405 14.008 67.9485 14.1413 67.7671 14.408C67.5858 14.6747 67.4365 15.032 67.3191 15.48C67.2338 15.8 67.1645 16.1627 67.1111 16.568C67.0578 16.9627 67.0311 17.3573 67.0311 17.752V18.52ZM79.5181 19.512C78.5475 20.6107 77.3368 21.16 75.8861 21.16C75.2248 21.16 74.6221 21.0587 74.0781 20.856C73.5448 20.6427 73.0861 20.3493 72.7021 19.976C72.3181 19.592 72.0195 19.1387 71.8061 18.616C71.5928 18.0933 71.4861 17.512 71.4861 16.872C71.4861 16.2107 71.5981 15.608 71.8221 15.064C72.0461 14.5093 72.3608 14.0347 72.7661 13.64C73.1821 13.2347 73.6675 12.92 74.2221 12.696C74.7875 12.472 75.4061 12.36 76.0781 12.36C77.2088 12.36 78.0888 12.664 78.7181 13.272C79.3475 13.88 79.6621 14.7333 79.6621 15.832C79.6621 16.0027 79.6355 16.1093 79.5821 16.152C79.5288 16.184 79.3795 16.2 79.1341 16.2H73.9821C73.9395 16.296 73.9181 16.472 73.9181 16.728C73.9181 17.7733 74.1421 18.6 74.5901 19.208C75.0488 19.816 75.6675 20.12 76.4461 20.12C76.8941 20.12 77.3368 20.0187 77.7741 19.816C78.2221 19.6133 78.6541 19.3253 79.0701 18.952L79.5181 19.512ZM76.4141 15.304C76.8408 15.304 77.1128 15.2827 77.2301 15.24C77.3581 15.1867 77.4221 15.0693 77.4221 14.888C77.4221 14.4187 77.2888 14.0347 77.0221 13.736C76.7555 13.4373 76.4195 13.288 76.0141 13.288C75.5555 13.288 75.1448 13.48 74.7821 13.864C74.4301 14.2373 74.2008 14.7173 74.0941 15.304H76.4141ZM83.9855 19.272C84.2735 19.2933 84.5242 19.3147 84.7375 19.336C84.9615 19.3573 85.1695 19.384 85.3615 19.416C85.5642 19.4373 85.7615 19.464 85.9535 19.496C86.1562 19.5173 86.3695 19.544 86.5935 19.576C87.4255 19.6933 88.0762 20.008 88.5455 20.52C89.0255 21.0213 89.2655 21.6453 89.2655 22.392C89.2655 23.2987 88.8922 23.9867 88.1455 24.456C87.3988 24.9253 86.3002 25.16 84.8495 25.16C83.5162 25.16 82.4868 24.9627 81.7615 24.568C81.0468 24.184 80.6895 23.6347 80.6895 22.92C80.6895 22.3653 80.8335 21.944 81.1215 21.656C81.4095 21.3787 81.7722 21.24 82.2095 21.24C82.4868 21.24 82.7535 21.2933 83.0095 21.4C83.2762 21.5173 83.5002 21.6827 83.6815 21.896C83.4042 21.9493 83.1748 22.072 82.9935 22.264C82.8228 22.4667 82.7375 22.7013 82.7375 22.968C82.7375 23.3947 82.9242 23.72 83.2975 23.944C83.6815 24.1787 84.2415 24.296 84.9775 24.296C86.5775 24.296 87.3775 23.7893 87.3775 22.776C87.3775 22.4133 87.2548 22.0987 87.0095 21.832C86.7748 21.576 86.4335 21.4213 85.9855 21.368L83.1855 20.984C82.0015 20.824 81.4095 20.296 81.4095 19.4C81.4095 18.9627 81.5482 18.6053 81.8255 18.328C82.1135 18.0507 82.5188 17.8587 83.0415 17.752V17.688C82.7962 17.592 82.5722 17.4587 82.3695 17.288C82.1775 17.1173 82.0068 16.92 81.8575 16.696C81.7082 16.472 81.5908 16.232 81.5055 15.976C81.4308 15.7093 81.3935 15.4373 81.3935 15.16C81.3935 14.7653 81.4735 14.3973 81.6335 14.056C81.8042 13.704 82.0335 13.4053 82.3215 13.16C82.6202 12.9147 82.9668 12.7227 83.3615 12.584C83.7668 12.4347 84.2042 12.36 84.6735 12.36C85.1322 12.36 85.5802 12.4293 86.0175 12.568C86.4548 12.7067 86.8282 12.8987 87.1375 13.144C87.3828 12.9947 87.5962 12.872 87.7775 12.776C87.9588 12.6693 88.1242 12.5893 88.2735 12.536C88.4335 12.472 88.5775 12.4293 88.7055 12.408C88.8335 12.376 88.9615 12.36 89.0895 12.36C89.4948 12.36 89.8202 12.4507 90.0655 12.632C90.3215 12.8133 90.4495 13.0533 90.4495 13.352C90.4495 13.576 90.3802 13.7627 90.2415 13.912C90.1028 14.0507 89.9215 14.12 89.6975 14.12C89.5375 14.12 89.4095 14.088 89.3135 14.024C89.2175 13.9493 89.1215 13.8693 89.0255 13.784C88.9402 13.688 88.8495 13.608 88.7535 13.544C88.6575 13.4693 88.5295 13.432 88.3695 13.432C88.1455 13.432 87.9322 13.576 87.7295 13.864C87.8362 14.0453 87.9108 14.2427 87.9535 14.456C87.9962 14.6587 88.0175 14.8987 88.0175 15.176C88.0175 15.5813 87.9535 15.9547 87.8255 16.296C87.6975 16.6373 87.4948 16.9413 87.2175 17.208C86.9508 17.464 86.6042 17.6827 86.1775 17.864C85.7508 18.0453 85.2335 18.168 84.6255 18.232C84.1135 18.2853 83.7562 18.3547 83.5535 18.44C83.3615 18.5253 83.2655 18.6533 83.2655 18.824C83.2655 19.08 83.5055 19.2293 83.9855 19.272ZM84.7535 17.32C85.0948 17.32 85.3615 17.1387 85.5535 16.776C85.7455 16.4133 85.8415 15.9067 85.8415 15.256C85.8415 14.5947 85.7455 14.088 85.5535 13.736C85.3615 13.3733 85.0895 13.192 84.7375 13.192C84.3748 13.192 84.0868 13.3733 83.8735 13.736C83.6602 14.0987 83.5535 14.5947 83.5535 15.224C83.5535 15.864 83.6602 16.376 83.8735 16.76C84.0975 17.1333 84.3908 17.32 84.7535 17.32ZM95.7071 16.44C94.8111 16.8453 94.1338 17.224 93.6751 17.576C93.2271 17.9173 93.0031 18.2747 93.0031 18.648C93.0031 18.9573 93.0885 19.2027 93.2591 19.384C93.4298 19.5653 93.6431 19.656 93.8991 19.656C94.1551 19.656 94.3951 19.6133 94.6191 19.528C94.8431 19.432 95.0351 19.3093 95.1951 19.16C95.3551 19.0107 95.4778 18.8347 95.5631 18.632C95.6591 18.4187 95.7071 18.1947 95.7071 17.96V16.44ZM95.7071 15.592V14.92C95.7071 14.3013 95.5951 13.8533 95.3711 13.576C95.1578 13.288 94.8218 13.144 94.3631 13.144C94.0538 13.144 93.8191 13.2293 93.6591 13.4C93.4991 13.56 93.3498 13.832 93.2111 14.216C93.1151 14.4827 92.9765 14.6907 92.7951 14.84C92.6245 14.9893 92.3845 15.064 92.0751 15.064C91.7765 15.064 91.5471 14.9733 91.3871 14.792C91.2271 14.6107 91.1471 14.3547 91.1471 14.024C91.1471 13.512 91.4245 13.1067 91.9791 12.808C92.5445 12.5093 93.3925 12.36 94.5231 12.36C95.7178 12.36 96.5711 12.5787 97.0831 13.016C97.5951 13.4427 97.8511 14.1627 97.8511 15.176V18.68C97.8511 19.5867 98.0325 20.04 98.3951 20.04C98.5978 20.04 98.7845 19.9707 98.9551 19.832L99.1951 20.296C99.0458 20.5627 98.8111 20.776 98.4911 20.936C98.1818 21.0853 97.8298 21.16 97.4351 21.16C96.9445 21.16 96.5711 21.0107 96.3151 20.712C96.0591 20.4133 95.9311 19.992 95.9311 19.448H95.8511C95.5418 20.0027 95.1418 20.424 94.6511 20.712C94.1605 21 93.6005 21.144 92.9711 21.144C92.2991 21.144 91.7605 20.9573 91.3551 20.584C90.9498 20.2 90.7471 19.704 90.7471 19.096C90.7471 18.6267 90.9551 18.1893 91.3711 17.784C91.7871 17.368 92.4805 16.9627 93.4511 16.568L95.7071 15.592ZM103.619 18.52C103.619 18.936 103.635 19.2667 103.667 19.512C103.709 19.7467 103.789 19.928 103.907 20.056C104.024 20.184 104.195 20.2693 104.419 20.312C104.643 20.344 104.941 20.36 105.315 20.36V21H99.9706V20.36C100.291 20.3387 100.547 20.3067 100.739 20.264C100.931 20.2213 101.075 20.136 101.171 20.008C101.267 19.88 101.325 19.6987 101.347 19.464C101.379 19.2187 101.395 18.8933 101.395 18.488V16.536C101.395 15.8747 101.379 15.3467 101.347 14.952C101.315 14.5573 101.245 14.2533 101.139 14.04C101.032 13.8267 100.877 13.688 100.675 13.624C100.483 13.5493 100.227 13.512 99.9066 13.512V12.952L103.107 12.36L103.363 14.2H103.427C103.715 13.6347 104.093 13.1867 104.563 12.856C105.032 12.5253 105.528 12.36 106.051 12.36C106.456 12.36 106.787 12.4613 107.043 12.664C107.299 12.8667 107.427 13.1227 107.427 13.432C107.427 13.7733 107.325 14.0613 107.123 14.296C106.931 14.5307 106.664 14.648 106.323 14.648C106.163 14.648 106.019 14.616 105.891 14.552C105.763 14.488 105.645 14.4187 105.539 14.344C105.443 14.2587 105.341 14.184 105.235 14.12C105.139 14.0453 105.037 14.008 104.931 14.008C104.728 14.008 104.536 14.1413 104.355 14.408C104.173 14.6747 104.024 15.032 103.907 15.48C103.821 15.8 103.752 16.1627 103.699 16.568C103.645 16.9627 103.619 17.3573 103.619 17.752V18.52ZM115.58 18.376C115.58 18.8027 115.596 19.144 115.628 19.4C115.66 19.656 115.724 19.8533 115.82 19.992C115.916 20.1307 116.055 20.2267 116.236 20.28C116.417 20.3227 116.663 20.3493 116.972 20.36V21H111.932V20.36C112.231 20.3493 112.471 20.3173 112.652 20.264C112.844 20.2 112.988 20.104 113.084 19.976C113.191 19.8373 113.26 19.6507 113.292 19.416C113.335 19.1707 113.356 18.8613 113.356 18.488V11.88C113.356 11.2613 113.345 10.7547 113.324 10.36C113.303 9.95467 113.276 9.67733 113.244 9.528C113.191 9.26133 113.068 9.08533 112.876 9C112.695 8.91467 112.359 8.872 111.868 8.872V8.328L115.58 7.72V18.376ZM121.528 18.376C121.528 18.8027 121.544 19.144 121.576 19.4C121.608 19.656 121.672 19.8533 121.768 19.992C121.864 20.1307 122.002 20.2267 122.184 20.28C122.365 20.3227 122.61 20.3493 122.92 20.36V21H117.88V20.36C118.178 20.3493 118.418 20.3173 118.6 20.264C118.792 20.2 118.936 20.104 119.032 19.976C119.138 19.8373 119.208 19.6507 119.24 19.416C119.282 19.1707 119.304 18.8613 119.304 18.488V16.52C119.304 15.9013 119.293 15.3947 119.272 15C119.25 14.5947 119.224 14.3173 119.192 14.168C119.138 13.9013 119.016 13.7253 118.824 13.64C118.642 13.5547 118.306 13.512 117.816 13.512V12.968L121.528 12.36V18.376ZM119.176 8.968C119.176 8.616 119.293 8.32267 119.528 8.088C119.773 7.84267 120.066 7.72 120.408 7.72C120.76 7.72 121.053 7.84267 121.288 8.088C121.533 8.32267 121.656 8.616 121.656 8.968C121.656 9.30933 121.533 9.60267 121.288 9.848C121.053 10.0827 120.76 10.2 120.408 10.2C120.066 10.2 119.773 10.0827 119.528 9.848C119.293 9.60267 119.176 9.30933 119.176 8.968ZM124.657 21H124.161V18.088H124.833C125.014 18.856 125.276 19.416 125.617 19.768C125.958 20.12 126.401 20.296 126.945 20.296C127.34 20.296 127.644 20.216 127.857 20.056C128.081 19.8853 128.193 19.656 128.193 19.368C128.193 19.0693 128.06 18.7813 127.793 18.504C127.526 18.216 127.094 17.912 126.497 17.592C125.686 17.1547 125.105 16.7227 124.753 16.296C124.401 15.8587 124.225 15.368 124.225 14.824C124.225 14.472 124.289 14.1467 124.417 13.848C124.556 13.5387 124.737 13.272 124.961 13.048C125.196 12.824 125.473 12.6533 125.793 12.536C126.113 12.408 126.46 12.344 126.833 12.344C127.164 12.344 127.489 12.392 127.809 12.488C128.14 12.584 128.428 12.7173 128.673 12.888L128.961 12.504H129.377V14.92H128.753C128.508 14.312 128.252 13.8747 127.985 13.608C127.729 13.3413 127.414 13.208 127.041 13.208C126.742 13.208 126.502 13.288 126.321 13.448C126.15 13.608 126.065 13.8213 126.065 14.088C126.065 14.3867 126.193 14.6693 126.449 14.936C126.716 15.2027 127.153 15.496 127.761 15.816C128.188 16.0507 128.556 16.28 128.865 16.504C129.174 16.728 129.425 16.9573 129.617 17.192C129.809 17.416 129.948 17.656 130.033 17.912C130.129 18.1573 130.177 18.424 130.177 18.712C130.177 19.0853 130.108 19.4213 129.969 19.72C129.83 20.0187 129.633 20.2747 129.377 20.488C129.121 20.7013 128.812 20.8667 128.449 20.984C128.097 21.1013 127.702 21.16 127.265 21.16C126.806 21.16 126.38 21.1013 125.985 20.984C125.59 20.856 125.265 20.6747 125.009 20.44L124.657 21ZM131.25 13.4V12.68C131.89 12.4987 132.423 12.2267 132.85 11.864C133.287 11.4907 133.613 11.064 133.826 10.584H134.642V12.52H136.482V13.4H134.642V18.312C134.642 18.9733 134.711 19.4427 134.85 19.72C134.999 19.9973 135.245 20.136 135.586 20.136C136.002 20.136 136.317 19.944 136.53 19.56L136.866 20.024C136.567 20.7813 135.863 21.16 134.754 21.16C134.018 21.16 133.442 20.9893 133.026 20.648C132.621 20.3067 132.418 19.8267 132.418 19.208V13.4H131.25ZM142.563 16.44C141.667 16.8453 140.99 17.224 140.531 17.576C140.083 17.9173 139.859 18.2747 139.859 18.648C139.859 18.9573 139.945 19.2027 140.115 19.384C140.286 19.5653 140.499 19.656 140.755 19.656C141.011 19.656 141.251 19.6133 141.475 19.528C141.699 19.432 141.891 19.3093 142.051 19.16C142.211 19.0107 142.334 18.8347 142.419 18.632C142.515 18.4187 142.563 18.1947 142.563 17.96V16.44ZM142.563 15.592V14.92C142.563 14.3013 142.451 13.8533 142.227 13.576C142.014 13.288 141.678 13.144 141.219 13.144C140.91 13.144 140.675 13.2293 140.515 13.4C140.355 13.56 140.206 13.832 140.067 14.216C139.971 14.4827 139.833 14.6907 139.651 14.84C139.481 14.9893 139.241 15.064 138.931 15.064C138.633 15.064 138.403 14.9733 138.243 14.792C138.083 14.6107 138.003 14.3547 138.003 14.024C138.003 13.512 138.281 13.1067 138.835 12.808C139.401 12.5093 140.249 12.36 141.379 12.36C142.574 12.36 143.427 12.5787 143.939 13.016C144.451 13.4427 144.707 14.1627 144.707 15.176V18.68C144.707 19.5867 144.889 20.04 145.251 20.04C145.454 20.04 145.641 19.9707 145.811 19.832L146.051 20.296C145.902 20.5627 145.667 20.776 145.347 20.936C145.038 21.0853 144.686 21.16 144.291 21.16C143.801 21.16 143.427 21.0107 143.171 20.712C142.915 20.4133 142.787 19.992 142.787 19.448H142.707C142.398 20.0027 141.998 20.424 141.507 20.712C141.017 21 140.457 21.144 139.827 21.144C139.155 21.144 138.617 20.9573 138.211 20.584C137.806 20.2 137.603 19.704 137.603 19.096C137.603 18.6267 137.811 18.1893 138.227 17.784C138.643 17.368 139.337 16.9627 140.307 16.568L142.563 15.592Z" fill="#333333"/>
<path d="M16 8L16 24" stroke="#628F22" stroke-width="2" stroke-linecap="round"/>
<path d="M24 16L8 16" stroke="#628F22" stroke-width="2" stroke-linecap="round"/>
<path d="M49.296 66.008L52.992 56.68H57.664V57.32C57.312 57.32 57.024 57.3573 56.8 57.432C56.5867 57.496 56.4213 57.6187 56.304 57.8C56.1867 57.9813 56.1067 58.232 56.064 58.552C56.032 58.8613 56.016 59.256 56.016 59.736V65.944C56.016 66.4773 56.0373 66.8987 56.08 67.208C56.1227 67.5173 56.208 67.7573 56.336 67.928C56.464 68.0987 56.6453 68.2107 56.88 68.264C57.1253 68.3173 57.4453 68.3493 57.84 68.36V69H51.824V68.36C52.2187 68.3493 52.5333 68.3173 52.768 68.264C53.0133 68.2 53.2 68.088 53.328 67.928C53.4667 67.768 53.5573 67.544 53.6 67.256C53.6427 66.9573 53.664 66.5573 53.664 66.056V58.568H53.584L49.28 69.16H48.096L43.648 58.568H43.584V65.944C43.584 66.4773 43.6053 66.8987 43.648 67.208C43.6907 67.5173 43.776 67.7573 43.904 67.928C44.032 68.0987 44.2133 68.2107 44.448 68.264C44.6933 68.3173 45.0133 68.3493 45.408 68.36V69H40.48V68.36C40.8747 68.3493 41.1947 68.3173 41.44 68.264C41.6853 68.2 41.872 68.088 42 67.928C42.1387 67.768 42.2293 67.544 42.272 67.256C42.3147 66.9573 42.336 66.5573 42.336 66.056V59.624C42.336 59.176 42.3147 58.8027 42.272 58.504C42.2293 58.2053 42.1493 57.9707 42.032 57.8C41.9147 57.6187 41.744 57.496 41.52 57.432C41.3067 57.3573 41.0187 57.32 40.656 57.32V56.68H45.504L49.232 66.008H49.296ZM62.5245 66.376C62.5245 66.8027 62.5405 67.144 62.5725 67.4C62.6045 67.656 62.6685 67.8533 62.7645 67.992C62.8605 68.1307 62.9992 68.2267 63.1805 68.28C63.3618 68.3227 63.6072 68.3493 63.9165 68.36V69H58.8765V68.36C59.1752 68.3493 59.4152 68.3173 59.5965 68.264C59.7885 68.2 59.9325 68.104 60.0285 67.976C60.1352 67.8373 60.2045 67.6507 60.2365 67.416C60.2792 67.1707 60.3005 66.8613 60.3005 66.488V64.52C60.3005 63.9013 60.2898 63.3947 60.2685 63C60.2472 62.5947 60.2205 62.3173 60.1885 62.168C60.1352 61.9013 60.0125 61.7253 59.8205 61.64C59.6392 61.5547 59.3032 61.512 58.8125 61.512V60.968L62.5245 60.36V66.376ZM60.1725 56.968C60.1725 56.616 60.2898 56.3227 60.5245 56.088C60.7698 55.8427 61.0632 55.72 61.4045 55.72C61.7565 55.72 62.0498 55.8427 62.2845 56.088C62.5298 56.3227 62.6525 56.616 62.6525 56.968C62.6525 57.3093 62.5298 57.6027 62.2845 57.848C62.0498 58.0827 61.7565 58.2 61.4045 58.2C61.0632 58.2 60.7698 58.0827 60.5245 57.848C60.2898 57.6027 60.1725 57.3093 60.1725 56.968ZM65.6538 69H65.1578V66.088H65.8298C66.0111 66.856 66.2724 67.416 66.6138 67.768C66.9551 68.12 67.3978 68.296 67.9418 68.296C68.3364 68.296 68.6404 68.216 68.8538 68.056C69.0778 67.8853 69.1898 67.656 69.1898 67.368C69.1898 67.0693 69.0564 66.7813 68.7898 66.504C68.5231 66.216 68.0911 65.912 67.4938 65.592C66.6831 65.1547 66.1018 64.7227 65.7498 64.296C65.3978 63.8587 65.2218 63.368 65.2218 62.824C65.2218 62.472 65.2858 62.1467 65.4138 61.848C65.5524 61.5387 65.7338 61.272 65.9578 61.048C66.1924 60.824 66.4698 60.6533 66.7898 60.536C67.1098 60.408 67.4564 60.344 67.8298 60.344C68.1604 60.344 68.4858 60.392 68.8058 60.488C69.1364 60.584 69.4244 60.7173 69.6698 60.888L69.9578 60.504H70.3738V62.92H69.7498C69.5044 62.312 69.2484 61.8747 68.9818 61.608C68.7258 61.3413 68.4111 61.208 68.0378 61.208C67.7391 61.208 67.4991 61.288 67.3178 61.448C67.1471 61.608 67.0618 61.8213 67.0618 62.088C67.0618 62.3867 67.1898 62.6693 67.4458 62.936C67.7124 63.2027 68.1498 63.496 68.7578 63.816C69.1844 64.0507 69.5524 64.28 69.8618 64.504C70.1711 64.728 70.4218 64.9573 70.6138 65.192C70.8058 65.416 70.9444 65.656 71.0298 65.912C71.1258 66.1573 71.1738 66.424 71.1738 66.712C71.1738 67.0853 71.1044 67.4213 70.9658 67.72C70.8271 68.0187 70.6298 68.2747 70.3738 68.488C70.1178 68.7013 69.8084 68.8667 69.4458 68.984C69.0938 69.1013 68.6991 69.16 68.2618 69.16C67.8031 69.16 67.3764 69.1013 66.9818 68.984C66.5871 68.856 66.2618 68.6747 66.0058 68.44L65.6538 69ZM80.1489 66.376C80.1489 66.8027 80.1649 67.144 80.1969 67.4C80.2289 67.656 80.2929 67.8533 80.3889 67.992C80.4849 68.1307 80.6235 68.2267 80.8049 68.28C80.9862 68.3227 81.2315 68.3493 81.5409 68.36V69H76.5009V68.36C76.7995 68.3493 77.0395 68.3173 77.2209 68.264C77.4129 68.2 77.5569 68.104 77.6529 67.976C77.7595 67.8373 77.8289 67.6507 77.8609 67.416C77.9035 67.1707 77.9249 66.8613 77.9249 66.488V59.88C77.9249 59.2613 77.9142 58.7547 77.8929 58.36C77.8715 57.9547 77.8449 57.6773 77.8129 57.528C77.7595 57.2613 77.6369 57.0853 77.4449 57C77.2635 56.9147 76.9275 56.872 76.4369 56.872V56.328L80.1489 55.72V66.376ZM86.0964 66.376C86.0964 66.8027 86.1124 67.144 86.1444 67.4C86.1764 67.656 86.2404 67.8533 86.3364 67.992C86.4324 68.1307 86.571 68.2267 86.7524 68.28C86.9337 68.3227 87.179 68.3493 87.4884 68.36V69H82.4484V68.36C82.747 68.3493 82.987 68.3173 83.1684 68.264C83.3604 68.2 83.5044 68.104 83.6004 67.976C83.707 67.8373 83.7764 67.6507 83.8084 67.416C83.851 67.1707 83.8724 66.8613 83.8724 66.488V64.52C83.8724 63.9013 83.8617 63.3947 83.8404 63C83.819 62.5947 83.7924 62.3173 83.7604 62.168C83.707 61.9013 83.5844 61.7253 83.3924 61.64C83.211 61.5547 82.875 61.512 82.3844 61.512V60.968L86.0964 60.36V66.376ZM83.7444 56.968C83.7444 56.616 83.8617 56.3227 84.0964 56.088C84.3417 55.8427 84.635 55.72 84.9764 55.72C85.3284 55.72 85.6217 55.8427 85.8564 56.088C86.1017 56.3227 86.2244 56.616 86.2244 56.968C86.2244 57.3093 86.1017 57.6027 85.8564 57.848C85.6217 58.0827 85.3284 58.2 84.9764 58.2C84.635 58.2 84.3417 58.0827 84.0964 57.848C83.8617 57.6027 83.7444 57.3093 83.7444 56.968ZM89.2256 69H88.7296V66.088H89.4016C89.583 66.856 89.8443 67.416 90.1856 67.768C90.527 68.12 90.9696 68.296 91.5136 68.296C91.9083 68.296 92.2123 68.216 92.4256 68.056C92.6496 67.8853 92.7616 67.656 92.7616 67.368C92.7616 67.0693 92.6283 66.7813 92.3616 66.504C92.095 66.216 91.663 65.912 91.0656 65.592C90.255 65.1547 89.6736 64.7227 89.3216 64.296C88.9696 63.8587 88.7936 63.368 88.7936 62.824C88.7936 62.472 88.8576 62.1467 88.9856 61.848C89.1243 61.5387 89.3056 61.272 89.5296 61.048C89.7643 60.824 90.0416 60.6533 90.3616 60.536C90.6816 60.408 91.0283 60.344 91.4016 60.344C91.7323 60.344 92.0576 60.392 92.3776 60.488C92.7083 60.584 92.9963 60.7173 93.2416 60.888L93.5296 60.504H93.9456V62.92H93.3216C93.0763 62.312 92.8203 61.8747 92.5536 61.608C92.2976 61.3413 91.983 61.208 91.6096 61.208C91.311 61.208 91.071 61.288 90.8896 61.448C90.719 61.608 90.6336 61.8213 90.6336 62.088C90.6336 62.3867 90.7616 62.6693 91.0176 62.936C91.2843 63.2027 91.7216 63.496 92.3296 63.816C92.7563 64.0507 93.1243 64.28 93.4336 64.504C93.743 64.728 93.9936 64.9573 94.1856 65.192C94.3776 65.416 94.5163 65.656 94.6016 65.912C94.6976 66.1573 94.7456 66.424 94.7456 66.712C94.7456 67.0853 94.6763 67.4213 94.5376 67.72C94.399 68.0187 94.2016 68.2747 93.9456 68.488C93.6896 68.7013 93.3803 68.8667 93.0176 68.984C92.6656 69.1013 92.271 69.16 91.8336 69.16C91.375 69.16 90.9483 69.1013 90.5536 68.984C90.159 68.856 89.8336 68.6747 89.5776 68.44L89.2256 69ZM95.8188 61.4V60.68C96.4588 60.4987 96.9921 60.2267 97.4188 59.864C97.8561 59.4907 98.1814 59.064 98.3948 58.584H99.2108V60.52H101.051V61.4H99.2108V66.312C99.2108 66.9733 99.2801 67.4427 99.4188 67.72C99.5681 67.9973 99.8134 68.136 100.155 68.136C100.571 68.136 100.885 67.944 101.099 67.56L101.435 68.024C101.136 68.7813 100.432 69.16 99.3228 69.16C98.5868 69.16 98.0108 68.9893 97.5948 68.648C97.1894 68.3067 96.9868 67.8267 96.9868 67.208V61.4H95.8188ZM107.132 64.44C106.236 64.8453 105.559 65.224 105.1 65.576C104.652 65.9173 104.428 66.2747 104.428 66.648C104.428 66.9573 104.513 67.2027 104.684 67.384C104.855 67.5653 105.068 67.656 105.324 67.656C105.58 67.656 105.82 67.6133 106.044 67.528C106.268 67.432 106.46 67.3093 106.62 67.16C106.78 67.0107 106.903 66.8347 106.988 66.632C107.084 66.4187 107.132 66.1947 107.132 65.96V64.44ZM107.132 63.592V62.92C107.132 62.3013 107.02 61.8533 106.796 61.576C106.583 61.288 106.247 61.144 105.788 61.144C105.479 61.144 105.244 61.2293 105.084 61.4C104.924 61.56 104.775 61.832 104.636 62.216C104.54 62.4827 104.401 62.6907 104.22 62.84C104.049 62.9893 103.809 63.064 103.5 63.064C103.201 63.064 102.972 62.9733 102.812 62.792C102.652 62.6107 102.572 62.3547 102.572 62.024C102.572 61.512 102.849 61.1067 103.404 60.808C103.969 60.5093 104.817 60.36 105.948 60.36C107.143 60.36 107.996 60.5787 108.508 61.016C109.02 61.4427 109.276 62.1627 109.276 63.176V66.68C109.276 67.5867 109.457 68.04 109.82 68.04C110.023 68.04 110.209 67.9707 110.38 67.832L110.62 68.296C110.471 68.5627 110.236 68.776 109.916 68.936C109.607 69.0853 109.255 69.16 108.86 69.16C108.369 69.16 107.996 69.0107 107.74 68.712C107.484 68.4133 107.356 67.992 107.356 67.448H107.276C106.967 68.0027 106.567 68.424 106.076 68.712C105.585 69 105.025 69.144 104.396 69.144C103.724 69.144 103.185 68.9573 102.78 68.584C102.375 68.2 102.172 67.704 102.172 67.096C102.172 66.6267 102.38 66.1893 102.796 65.784C103.212 65.368 103.905 64.9627 104.876 64.568L107.132 63.592ZM112.276 69H111.78V66.088H112.452C112.633 66.856 112.894 67.416 113.236 67.768C113.577 68.12 114.02 68.296 114.564 68.296C114.958 68.296 115.262 68.216 115.476 68.056C115.7 67.8853 115.812 67.656 115.812 67.368C115.812 67.0693 115.678 66.7813 115.412 66.504C115.145 66.216 114.713 65.912 114.116 65.592C113.305 65.1547 112.724 64.7227 112.372 64.296C112.02 63.8587 111.844 63.368 111.844 62.824C111.844 62.472 111.908 62.1467 112.036 61.848C112.174 61.5387 112.356 61.272 112.58 61.048C112.814 60.824 113.092 60.6533 113.412 60.536C113.732 60.408 114.078 60.344 114.452 60.344C114.782 60.344 115.108 60.392 115.428 60.488C115.758 60.584 116.046 60.7173 116.292 60.888L116.58 60.504H116.996V62.92H116.372C116.126 62.312 115.87 61.8747 115.604 61.608C115.348 61.3413 115.033 61.208 114.66 61.208C114.361 61.208 114.121 61.288 113.94 61.448C113.769 61.608 113.684 61.8213 113.684 62.088C113.684 62.3867 113.812 62.6693 114.068 62.936C114.334 63.2027 114.772 63.496 115.38 63.816C115.806 64.0507 116.174 64.28 116.484 64.504C116.793 64.728 117.044 64.9573 117.236 65.192C117.428 65.416 117.566 65.656 117.652 65.912C117.748 66.1573 117.796 66.424 117.796 66.712C117.796 67.0853 117.726 67.4213 117.588 67.72C117.449 68.0187 117.252 68.2747 116.996 68.488C116.74 68.7013 116.43 68.8667 116.068 68.984C115.716 69.1013 115.321 69.16 114.884 69.16C114.425 69.16 113.998 69.1013 113.604 68.984C113.209 68.856 112.884 68.6747 112.628 68.44L112.276 69Z" fill="#333333"/>
<path d="M0 48H32V80H0V48Z" fill="white"/>
<path d="M2.66663 70.6663H5.33329V71.333H3.99996V72.6663H5.33329V73.333H2.66663V74.6663H6.66663V69.333H2.66663V70.6663ZM3.99996 58.6663H5.33329V53.333H2.66663V54.6663H3.99996V58.6663ZM2.66663 62.6663H5.06663L2.66663 65.4663V66.6663H6.66663V65.333H4.26663L6.66663 62.533V61.333H2.66663V62.6663ZM9.33329 54.6663V57.333H28V54.6663H9.33329ZM9.33329 73.333H28V70.6663H9.33329V73.333ZM9.33329 65.333H28V62.6663H9.33329V65.333Z" fill="#628F22"/>
<path d="M40.528 120V119.36C40.8907 119.349 41.1787 119.317 41.392 119.264C41.616 119.211 41.7867 119.12 41.904 118.992C42.032 118.864 42.1173 118.683 42.16 118.448C42.2027 118.213 42.224 117.909 42.224 117.536V110.144C42.224 109.771 42.208 109.472 42.176 109.248C42.144 109.013 42.0747 108.832 41.968 108.704C41.872 108.565 41.7333 108.475 41.552 108.432C41.3813 108.379 41.152 108.341 40.864 108.32V107.68H46C47.6107 107.68 48.848 107.941 49.712 108.464C50.5867 108.976 51.024 109.712 51.024 110.672C51.024 111.941 50.112 112.837 48.288 113.36V113.424C48.8747 113.424 49.4027 113.509 49.872 113.68C50.352 113.84 50.7573 114.069 51.088 114.368C51.4187 114.667 51.6747 115.019 51.856 115.424C52.0373 115.829 52.128 116.272 52.128 116.752C52.128 117.296 51.9947 117.771 51.728 118.176C51.472 118.581 51.0987 118.923 50.608 119.2C49.6587 119.733 48.352 120 46.688 120H40.528ZM46.8 119.024C48.5173 119.024 49.376 118.251 49.376 116.704C49.376 115.755 49.0667 115.061 48.448 114.624C48.128 114.4 47.712 114.24 47.2 114.144C46.6987 114.048 46.08 114 45.344 114H44.576V117.2C44.576 117.861 44.7467 118.331 45.088 118.608C45.4293 118.885 46 119.024 46.8 119.024ZM45.52 113.04C46 113.04 46.416 112.997 46.768 112.912C47.12 112.816 47.4187 112.683 47.664 112.512C48.176 112.16 48.432 111.611 48.432 110.864C48.432 110.085 48.24 109.525 47.856 109.184C47.472 108.832 46.8533 108.656 46 108.656H44.864C44.672 108.656 44.576 108.747 44.576 108.928V113.04H45.52ZM58.098 111.36C58.738 111.36 59.3407 111.472 59.906 111.696C60.482 111.909 60.9833 112.208 61.41 112.592C61.8473 112.976 62.1887 113.435 62.434 113.968C62.69 114.491 62.818 115.067 62.818 115.696C62.818 116.347 62.69 116.944 62.434 117.488C62.1887 118.032 61.8473 118.501 61.41 118.896C60.9833 119.291 60.482 119.6 59.906 119.824C59.3407 120.048 58.738 120.16 58.098 120.16C57.4687 120.16 56.8713 120.053 56.306 119.84C55.7407 119.616 55.2447 119.307 54.818 118.912C54.3913 118.517 54.0553 118.048 53.81 117.504C53.5647 116.949 53.442 116.347 53.442 115.696C53.442 115.067 53.5647 114.485 53.81 113.952C54.0553 113.419 54.3913 112.96 54.818 112.576C55.2447 112.192 55.7407 111.893 56.306 111.68C56.8713 111.467 57.4687 111.36 58.098 111.36ZM58.098 112.288C57.778 112.288 57.4847 112.373 57.218 112.544C56.9513 112.704 56.722 112.933 56.53 113.232C56.3487 113.531 56.2047 113.893 56.098 114.32C56.002 114.736 55.954 115.2 55.954 115.712C55.954 116.245 56.002 116.725 56.098 117.152C56.2047 117.579 56.3487 117.941 56.53 118.24C56.722 118.539 56.946 118.773 57.202 118.944C57.4687 119.104 57.7673 119.184 58.098 119.184C58.4287 119.184 58.7273 119.104 58.994 118.944C59.2713 118.773 59.506 118.539 59.698 118.24C59.89 117.931 60.0393 117.563 60.146 117.136C60.2527 116.709 60.306 116.235 60.306 115.712C60.306 115.2 60.2527 114.736 60.146 114.32C60.0393 113.904 59.89 113.547 59.698 113.248C59.506 112.939 59.2713 112.704 58.994 112.544C58.7273 112.373 58.4287 112.288 58.098 112.288ZM67.6405 117.52C67.6405 117.936 67.6565 118.267 67.6885 118.512C67.7312 118.747 67.8112 118.928 67.9285 119.056C68.0458 119.184 68.2165 119.269 68.4405 119.312C68.6645 119.344 68.9632 119.36 69.3365 119.36V120H63.9925V119.36C64.3125 119.339 64.5685 119.307 64.7605 119.264C64.9525 119.221 65.0965 119.136 65.1925 119.008C65.2885 118.88 65.3472 118.699 65.3685 118.464C65.4005 118.219 65.4165 117.893 65.4165 117.488V115.536C65.4165 114.875 65.4005 114.347 65.3685 113.952C65.3365 113.557 65.2672 113.253 65.1605 113.04C65.0538 112.827 64.8992 112.688 64.6965 112.624C64.5045 112.549 64.2485 112.512 63.9285 112.512V111.952L67.1285 111.36L67.3845 113.2H67.4485C67.7365 112.635 68.1152 112.187 68.5845 111.856C69.0538 111.525 69.5498 111.36 70.0725 111.36C70.4778 111.36 70.8085 111.461 71.0645 111.664C71.3205 111.867 71.4485 112.123 71.4485 112.432C71.4485 112.773 71.3472 113.061 71.1445 113.296C70.9525 113.531 70.6858 113.648 70.3445 113.648C70.1845 113.648 70.0405 113.616 69.9125 113.552C69.7845 113.488 69.6672 113.419 69.5605 113.344C69.4645 113.259 69.3632 113.184 69.2565 113.12C69.1605 113.045 69.0592 113.008 68.9525 113.008C68.7498 113.008 68.5578 113.141 68.3765 113.408C68.1952 113.675 68.0458 114.032 67.9285 114.48C67.8432 114.8 67.7738 115.163 67.7205 115.568C67.6672 115.963 67.6405 116.357 67.6405 116.752V117.52ZM75.7092 117.52C75.7092 117.936 75.7252 118.267 75.7572 118.512C75.7999 118.747 75.8799 118.928 75.9972 119.056C76.1146 119.184 76.2852 119.269 76.5092 119.312C76.7332 119.344 77.0319 119.36 77.4052 119.36V120H72.0612V119.36C72.3812 119.339 72.6372 119.307 72.8292 119.264C73.0212 119.221 73.1652 119.136 73.2612 119.008C73.3572 118.88 73.4159 118.699 73.4372 118.464C73.4692 118.219 73.4852 117.893 73.4852 117.488V115.536C73.4852 114.875 73.4692 114.347 73.4372 113.952C73.4052 113.557 73.3359 113.253 73.2292 113.04C73.1226 112.827 72.9679 112.688 72.7652 112.624C72.5732 112.549 72.3172 112.512 71.9972 112.512V111.952L75.1972 111.36L75.4532 113.2H75.5172C75.8052 112.635 76.1839 112.187 76.6532 111.856C77.1226 111.525 77.6186 111.36 78.1412 111.36C78.5466 111.36 78.8772 111.461 79.1332 111.664C79.3892 111.867 79.5172 112.123 79.5172 112.432C79.5172 112.773 79.4159 113.061 79.2132 113.296C79.0212 113.531 78.7546 113.648 78.4132 113.648C78.2532 113.648 78.1092 113.616 77.9812 113.552C77.8532 113.488 77.7359 113.419 77.6292 113.344C77.5332 113.259 77.4319 113.184 77.3252 113.12C77.2292 113.045 77.1279 113.008 77.0212 113.008C76.8186 113.008 76.6266 113.141 76.4452 113.408C76.2639 113.675 76.1146 114.032 75.9972 114.48C75.9119 114.8 75.8426 115.163 75.7892 115.568C75.7359 115.963 75.7092 116.357 75.7092 116.752V117.52ZM85.154 115.44C84.258 115.845 83.5807 116.224 83.122 116.576C82.674 116.917 82.45 117.275 82.45 117.648C82.45 117.957 82.5353 118.203 82.706 118.384C82.8767 118.565 83.09 118.656 83.346 118.656C83.602 118.656 83.842 118.613 84.066 118.528C84.29 118.432 84.482 118.309 84.642 118.16C84.802 118.011 84.9247 117.835 85.01 117.632C85.106 117.419 85.154 117.195 85.154 116.96V115.44ZM85.154 114.592V113.92C85.154 113.301 85.042 112.853 84.818 112.576C84.6047 112.288 84.2687 112.144 83.81 112.144C83.5007 112.144 83.266 112.229 83.106 112.4C82.946 112.56 82.7967 112.832 82.658 113.216C82.562 113.483 82.4233 113.691 82.242 113.84C82.0713 113.989 81.8313 114.064 81.522 114.064C81.2233 114.064 80.994 113.973 80.834 113.792C80.674 113.611 80.594 113.355 80.594 113.024C80.594 112.512 80.8713 112.107 81.426 111.808C81.9913 111.509 82.8393 111.36 83.97 111.36C85.1647 111.36 86.018 111.579 86.53 112.016C87.042 112.443 87.298 113.163 87.298 114.176V117.68C87.298 118.587 87.4793 119.04 87.842 119.04C88.0447 119.04 88.2313 118.971 88.402 118.832L88.642 119.296C88.4927 119.563 88.258 119.776 87.938 119.936C87.6287 120.085 87.2767 120.16 86.882 120.16C86.3913 120.16 86.018 120.011 85.762 119.712C85.506 119.413 85.378 118.992 85.378 118.448H85.298C84.9887 119.003 84.5887 119.424 84.098 119.712C83.6073 120 83.0473 120.144 82.418 120.144C81.746 120.144 81.2073 119.957 80.802 119.584C80.3967 119.2 80.194 118.704 80.194 118.096C80.194 117.627 80.402 117.189 80.818 116.784C81.234 116.368 81.9273 115.963 82.898 115.568L85.154 114.592ZM93.0655 117.52C93.0655 117.936 93.0815 118.267 93.1135 118.512C93.1562 118.747 93.2362 118.928 93.3535 119.056C93.4708 119.184 93.6415 119.269 93.8655 119.312C94.0895 119.344 94.3882 119.36 94.7615 119.36V120H89.4175V119.36C89.7375 119.339 89.9935 119.307 90.1855 119.264C90.3775 119.221 90.5215 119.136 90.6175 119.008C90.7135 118.88 90.7722 118.699 90.7935 118.464C90.8255 118.219 90.8415 117.893 90.8415 117.488V115.536C90.8415 114.875 90.8255 114.347 90.7935 113.952C90.7615 113.557 90.6922 113.253 90.5855 113.04C90.4788 112.827 90.3242 112.688 90.1215 112.624C89.9295 112.549 89.6735 112.512 89.3535 112.512V111.952L92.5535 111.36L92.8095 113.2H92.8735C93.1615 112.635 93.5402 112.187 94.0095 111.856C94.4788 111.525 94.9748 111.36 95.4975 111.36C95.9028 111.36 96.2335 111.461 96.4895 111.664C96.7455 111.867 96.8735 112.123 96.8735 112.432C96.8735 112.773 96.7722 113.061 96.5695 113.296C96.3775 113.531 96.1108 113.648 95.7695 113.648C95.6095 113.648 95.4655 113.616 95.3375 113.552C95.2095 113.488 95.0922 113.419 94.9855 113.344C94.8895 113.259 94.7882 113.184 94.6815 113.12C94.5855 113.045 94.4842 113.008 94.3775 113.008C94.1748 113.008 93.9828 113.141 93.8015 113.408C93.6202 113.675 93.4708 114.032 93.3535 114.48C93.2682 114.8 93.1988 115.163 93.1455 115.568C93.0922 115.963 93.0655 116.357 93.0655 116.752V117.52ZM105.027 117.376C105.027 117.803 105.043 118.144 105.075 118.4C105.107 118.656 105.171 118.853 105.267 118.992C105.363 119.131 105.502 119.227 105.683 119.28C105.864 119.323 106.11 119.349 106.419 119.36V120H101.379V119.36C101.678 119.349 101.918 119.317 102.099 119.264C102.291 119.2 102.435 119.104 102.531 118.976C102.638 118.837 102.707 118.651 102.739 118.416C102.782 118.171 102.803 117.861 102.803 117.488V110.88C102.803 110.261 102.792 109.755 102.771 109.36C102.75 108.955 102.723 108.677 102.691 108.528C102.638 108.261 102.515 108.085 102.323 108C102.142 107.915 101.806 107.872 101.315 107.872V107.328L105.027 106.72V117.376ZM110.975 117.376C110.975 117.803 110.991 118.144 111.023 118.4C111.055 118.656 111.119 118.853 111.215 118.992C111.311 119.131 111.449 119.227 111.631 119.28C111.812 119.323 112.057 119.349 112.367 119.36V120H107.327V119.36C107.625 119.349 107.865 119.317 108.047 119.264C108.239 119.2 108.383 119.104 108.479 118.976C108.585 118.837 108.655 118.651 108.687 118.416C108.729 118.171 108.751 117.861 108.751 117.488V115.52C108.751 114.901 108.74 114.395 108.719 114C108.697 113.595 108.671 113.317 108.639 113.168C108.585 112.901 108.463 112.725 108.271 112.64C108.089 112.555 107.753 112.512 107.263 112.512V111.968L110.975 111.36V117.376ZM108.623 107.968C108.623 107.616 108.74 107.323 108.975 107.088C109.22 106.843 109.513 106.72 109.855 106.72C110.207 106.72 110.5 106.843 110.735 107.088C110.98 107.323 111.103 107.616 111.103 107.968C111.103 108.309 110.98 108.603 110.735 108.848C110.5 109.083 110.207 109.2 109.855 109.2C109.513 109.2 109.22 109.083 108.975 108.848C108.74 108.603 108.623 108.309 108.623 107.968ZM114.104 120H113.608V117.088H114.28C114.461 117.856 114.722 118.416 115.064 118.768C115.405 119.12 115.848 119.296 116.392 119.296C116.786 119.296 117.09 119.216 117.304 119.056C117.528 118.885 117.64 118.656 117.64 118.368C117.64 118.069 117.506 117.781 117.24 117.504C116.973 117.216 116.541 116.912 115.944 116.592C115.133 116.155 114.552 115.723 114.2 115.296C113.848 114.859 113.672 114.368 113.672 113.824C113.672 113.472 113.736 113.147 113.864 112.848C114.002 112.539 114.184 112.272 114.408 112.048C114.642 111.824 114.92 111.653 115.24 111.536C115.56 111.408 115.906 111.344 116.28 111.344C116.61 111.344 116.936 111.392 117.256 111.488C117.586 111.584 117.874 111.717 118.12 111.888L118.408 111.504H118.824V113.92H118.2C117.954 113.312 117.698 112.875 117.432 112.608C117.176 112.341 116.861 112.208 116.488 112.208C116.189 112.208 115.949 112.288 115.768 112.448C115.597 112.608 115.512 112.821 115.512 113.088C115.512 113.387 115.64 113.669 115.896 113.936C116.162 114.203 116.6 114.496 117.208 114.816C117.634 115.051 118.002 115.28 118.312 115.504C118.621 115.728 118.872 115.957 119.064 116.192C119.256 116.416 119.394 116.656 119.48 116.912C119.576 117.157 119.624 117.424 119.624 117.712C119.624 118.085 119.554 118.421 119.416 118.72C119.277 119.019 119.08 119.275 118.824 119.488C118.568 119.701 118.258 119.867 117.896 119.984C117.544 120.101 117.149 120.16 116.712 120.16C116.253 120.16 115.826 120.101 115.432 119.984C115.037 119.856 114.712 119.675 114.456 119.44L114.104 120ZM120.697 112.4V111.68C121.337 111.499 121.87 111.227 122.297 110.864C122.734 110.491 123.06 110.064 123.273 109.584H124.089V111.52H125.929V112.4H124.089V117.312C124.089 117.973 124.158 118.443 124.297 118.72C124.446 118.997 124.692 119.136 125.033 119.136C125.449 119.136 125.764 118.944 125.977 118.56L126.313 119.024C126.014 119.781 125.31 120.16 124.201 120.16C123.465 120.16 122.889 119.989 122.473 119.648C122.068 119.307 121.865 118.827 121.865 118.208V112.4H120.697ZM132.01 115.44C131.114 115.845 130.437 116.224 129.978 116.576C129.53 116.917 129.306 117.275 129.306 117.648C129.306 117.957 129.392 118.203 129.562 118.384C129.733 118.565 129.946 118.656 130.202 118.656C130.458 118.656 130.698 118.613 130.922 118.528C131.146 118.432 131.338 118.309 131.498 118.16C131.658 118.011 131.781 117.835 131.866 117.632C131.962 117.419 132.01 117.195 132.01 116.96V115.44ZM132.01 114.592V113.92C132.01 113.301 131.898 112.853 131.674 112.576C131.461 112.288 131.125 112.144 130.666 112.144C130.357 112.144 130.122 112.229 129.962 112.4C129.802 112.56 129.653 112.832 129.514 113.216C129.418 113.483 129.28 113.691 129.098 113.84C128.928 113.989 128.688 114.064 128.378 114.064C128.08 114.064 127.85 113.973 127.69 113.792C127.53 113.611 127.45 113.355 127.45 113.024C127.45 112.512 127.728 112.107 128.282 111.808C128.848 111.509 129.696 111.36 130.826 111.36C132.021 111.36 132.874 111.579 133.386 112.016C133.898 112.443 134.154 113.163 134.154 114.176V117.68C134.154 118.587 134.336 119.04 134.698 119.04C134.901 119.04 135.088 118.971 135.258 118.832L135.498 119.296C135.349 119.563 135.114 119.776 134.794 119.936C134.485 120.085 134.133 120.16 133.738 120.16C133.248 120.16 132.874 120.011 132.618 119.712C132.362 119.413 132.234 118.992 132.234 118.448H132.154C131.845 119.003 131.445 119.424 130.954 119.712C130.464 120 129.904 120.144 129.274 120.144C128.602 120.144 128.064 119.957 127.658 119.584C127.253 119.2 127.05 118.704 127.05 118.096C127.05 117.627 127.258 117.189 127.674 116.784C128.09 116.368 128.784 115.963 129.754 115.568L132.01 114.592Z" fill="#333333"/>
<path d="M24 104V120C24 121.473 22.8061 122.667 21.3334 122.667H10.6667C9.19395 122.667 8.00004 121.473 8.00004 120V104M20 104V102.667C20 101.194 18.8061 100 17.3334 100H14.6667C13.1939 100 12 101.194 12 102.667V104M5.33337 104H26.6667M13.3334 109.333V117.333M18.6667 109.333V117.333" stroke="#628F22" stroke-width="2" stroke-linecap="round" stroke-linejoin="round"/>
</svg>
