<svg width="345" height="44" viewBox="0 0 345 44" fill="none" xmlns="http://www.w3.org/2000/svg">
<line x1="8" y1="21.5" x2="109" y2="21.5" stroke="#898686"/>
<path d="M121.55 19.44C122.082 19.44 122.586 19.538 123.062 19.734C123.538 19.9207 123.953 20.182 124.308 20.518C124.672 20.854 124.957 21.2553 125.162 21.722C125.377 22.1793 125.484 22.6833 125.484 23.234C125.484 23.8033 125.377 24.326 125.162 24.802C124.957 25.278 124.672 25.6887 124.308 26.034C123.953 26.3793 123.538 26.65 123.062 26.846C122.586 27.042 122.082 27.14 121.55 27.14C121.027 27.14 120.528 27.0467 120.052 26.86C119.585 26.664 119.175 26.3933 118.82 26.048C118.465 25.7027 118.185 25.292 117.98 24.816C117.775 24.3307 117.672 23.8033 117.672 23.234C117.672 22.6833 117.775 22.1747 117.98 21.708C118.185 21.2413 118.465 20.84 118.82 20.504C119.175 20.168 119.585 19.9067 120.052 19.72C120.528 19.5333 121.027 19.44 121.55 19.44ZM121.55 20.112C121.205 20.112 120.887 20.1867 120.598 20.336C120.318 20.4853 120.075 20.7 119.87 20.98C119.674 21.2507 119.52 21.582 119.408 21.974C119.305 22.3567 119.254 22.7813 119.254 23.248C119.254 23.7333 119.305 24.172 119.408 24.564C119.52 24.956 119.674 25.292 119.87 25.572C120.075 25.8427 120.318 26.0527 120.598 26.202C120.878 26.3513 121.195 26.426 121.55 26.426C121.905 26.426 122.227 26.3513 122.516 26.202C122.805 26.0527 123.053 25.838 123.258 25.558C123.463 25.278 123.622 24.942 123.734 24.55C123.846 24.158 123.902 23.724 123.902 23.248C123.902 22.7813 123.846 22.3567 123.734 21.974C123.622 21.5913 123.463 21.2647 123.258 20.994C123.053 20.714 122.805 20.4993 122.516 20.35C122.227 20.1913 121.905 20.112 121.55 20.112ZM137.464 25.838C137.128 26.2487 136.694 26.5707 136.162 26.804C135.63 27.028 135.056 27.14 134.44 27.14C133.945 27.14 133.488 27.0513 133.068 26.874C132.657 26.6873 132.302 26.4307 132.004 26.104C131.705 25.768 131.472 25.3667 131.304 24.9C131.145 24.4333 131.066 23.9153 131.066 23.346C131.066 22.7487 131.159 22.212 131.346 21.736C131.532 21.2507 131.794 20.84 132.13 20.504C132.475 20.1587 132.886 19.8973 133.362 19.72C133.847 19.5333 134.379 19.44 134.958 19.44C135.322 19.44 135.653 19.4727 135.952 19.538C136.25 19.594 136.507 19.678 136.722 19.79C136.946 19.8927 137.118 20.0233 137.24 20.182C137.361 20.3313 137.422 20.4947 137.422 20.672C137.422 20.8587 137.361 21.0033 137.24 21.106C137.118 21.2087 136.95 21.26 136.736 21.26C136.568 21.26 136.428 21.2273 136.316 21.162C136.204 21.0873 136.059 20.9287 135.882 20.686C135.695 20.4713 135.513 20.322 135.336 20.238C135.168 20.1447 134.948 20.098 134.678 20.098C134.015 20.098 133.511 20.3547 133.166 20.868C132.83 21.3813 132.662 22.1373 132.662 23.136C132.662 24.2093 132.848 25.026 133.222 25.586C133.604 26.1367 134.16 26.412 134.888 26.412C135.28 26.412 135.648 26.3373 135.994 26.188C136.339 26.0293 136.689 25.7773 137.044 25.432L137.464 25.838ZM142.536 19.44C143.068 19.44 143.572 19.538 144.048 19.734C144.524 19.9207 144.939 20.182 145.294 20.518C145.658 20.854 145.942 21.2553 146.148 21.722C146.362 22.1793 146.47 22.6833 146.47 23.234C146.47 23.8033 146.362 24.326 146.148 24.802C145.942 25.278 145.658 25.6887 145.294 26.034C144.939 26.3793 144.524 26.65 144.048 26.846C143.572 27.042 143.068 27.14 142.536 27.14C142.013 27.14 141.514 27.0467 141.038 26.86C140.571 26.664 140.16 26.3933 139.806 26.048C139.451 25.7027 139.171 25.292 138.966 24.816C138.76 24.3307 138.658 23.8033 138.658 23.234C138.658 22.6833 138.76 22.1747 138.966 21.708C139.171 21.2413 139.451 20.84 139.806 20.504C140.16 20.168 140.571 19.9067 141.038 19.72C141.514 19.5333 142.013 19.44 142.536 19.44ZM142.536 20.112C142.19 20.112 141.873 20.1867 141.584 20.336C141.304 20.4853 141.061 20.7 140.856 20.98C140.66 21.2507 140.506 21.582 140.394 21.974C140.291 22.3567 140.24 22.7813 140.24 23.248C140.24 23.7333 140.291 24.172 140.394 24.564C140.506 24.956 140.66 25.292 140.856 25.572C141.061 25.8427 141.304 26.0527 141.584 26.202C141.864 26.3513 142.181 26.426 142.536 26.426C142.89 26.426 143.212 26.3513 143.502 26.202C143.791 26.0527 144.038 25.838 144.244 25.558C144.449 25.278 144.608 24.942 144.72 24.55C144.832 24.158 144.888 23.724 144.888 23.248C144.888 22.7813 144.832 22.3567 144.72 21.974C144.608 21.5913 144.449 21.2647 144.244 20.994C144.038 20.714 143.791 20.4993 143.502 20.35C143.212 20.1913 142.89 20.112 142.536 20.112ZM150.27 24.802C150.27 25.1847 150.279 25.488 150.298 25.712C150.316 25.9267 150.363 26.0947 150.438 26.216C150.522 26.328 150.638 26.4027 150.788 26.44C150.946 26.4773 151.161 26.5053 151.432 26.524V27H147.764V26.524C148.025 26.5053 148.23 26.4773 148.38 26.44C148.538 26.4027 148.66 26.328 148.744 26.216C148.828 26.104 148.879 25.9453 148.898 25.74C148.926 25.5347 148.94 25.2547 148.94 24.9V23.038C148.94 21.9273 148.912 21.2507 148.856 21.008C148.828 20.8867 148.79 20.7887 148.744 20.714C148.706 20.63 148.646 20.5693 148.562 20.532C148.478 20.4853 148.37 20.4573 148.24 20.448C148.109 20.4293 147.941 20.42 147.736 20.42V19.972L149.976 19.44L150.144 20.826H150.2C150.554 20.3873 150.97 20.0467 151.446 19.804C151.922 19.5613 152.44 19.44 153 19.44C153.429 19.44 153.821 19.51 154.176 19.65C154.53 19.79 154.801 19.9813 154.988 20.224C155.146 20.4387 155.258 20.7187 155.324 21.064C155.389 21.4 155.422 21.8667 155.422 22.464V24.802C155.422 25.1847 155.431 25.488 155.45 25.712C155.478 25.9267 155.529 26.0947 155.604 26.216C155.678 26.328 155.79 26.4027 155.94 26.44C156.098 26.4773 156.304 26.5053 156.556 26.524V27H152.93V26.524C153.191 26.5147 153.396 26.4913 153.546 26.454C153.704 26.4073 153.821 26.328 153.896 26.216C153.98 26.104 154.031 25.9453 154.05 25.74C154.078 25.5253 154.092 25.2453 154.092 24.9V23.052C154.092 22.52 154.064 22.072 154.008 21.708C153.952 21.344 153.858 21.05 153.728 20.826C153.606 20.602 153.443 20.4433 153.238 20.35C153.032 20.2473 152.785 20.196 152.496 20.196C152.076 20.196 151.688 20.308 151.334 20.532C150.988 20.7467 150.718 21.0453 150.522 21.428C150.475 21.5213 150.433 21.61 150.396 21.694C150.368 21.778 150.344 21.876 150.326 21.988C150.307 22.1 150.293 22.2307 150.284 22.38C150.274 22.52 150.27 22.702 150.27 22.926V24.802ZM161.678 20.462V19.944C162.172 19.6547 162.56 19.3653 162.84 19.076C163.12 18.7867 163.334 18.4413 163.484 18.04H163.89V19.804H165.766V20.462H163.89V24.718C163.89 25.0447 163.904 25.32 163.932 25.544C163.969 25.768 164.025 25.95 164.1 26.09C164.174 26.2207 164.272 26.314 164.394 26.37C164.515 26.426 164.669 26.454 164.856 26.454C165.089 26.454 165.285 26.4073 165.444 26.314C165.612 26.2113 165.775 26.0433 165.934 25.81L166.284 26.076C166.153 26.4213 165.924 26.6873 165.598 26.874C165.28 27.0513 164.884 27.14 164.408 27.14C163.792 27.14 163.32 26.9953 162.994 26.706C162.676 26.4073 162.518 25.9827 162.518 25.432V20.462H161.678ZM172.991 21.82C172.991 21.4373 172.981 21.1387 172.963 20.924C172.944 20.7 172.893 20.532 172.809 20.42C172.734 20.2987 172.617 20.2193 172.459 20.182C172.309 20.1353 172.099 20.098 171.829 20.07V19.58H174.363V23.878C174.363 24.41 174.367 24.844 174.377 25.18C174.395 25.516 174.419 25.768 174.447 25.936C174.465 26.0573 174.493 26.1553 174.531 26.23C174.577 26.2953 174.643 26.3513 174.727 26.398C174.811 26.4353 174.918 26.4633 175.049 26.482C175.189 26.4913 175.366 26.496 175.581 26.496V26.986L173.271 27.154L173.117 25.474H173.061C172.706 26.0527 172.295 26.4773 171.829 26.748C171.371 27.0093 170.891 27.14 170.387 27.14C169.995 27.14 169.612 27.0653 169.239 26.916C168.875 26.7667 168.599 26.566 168.413 26.314C168.254 26.1087 168.137 25.824 168.063 25.46C167.997 25.096 167.965 24.6247 167.965 24.046V21.82C167.965 21.4373 167.955 21.1387 167.937 20.924C167.918 20.7 167.867 20.532 167.783 20.42C167.708 20.2987 167.591 20.2193 167.433 20.182C167.283 20.1353 167.073 20.098 166.803 20.07V19.58H169.337V23.402C169.337 24.4193 169.453 25.1567 169.687 25.614C169.929 26.0713 170.312 26.3 170.835 26.3C171.656 26.3 172.295 25.7633 172.753 24.69C172.799 24.578 172.837 24.4753 172.865 24.382C172.893 24.2887 172.916 24.186 172.935 24.074C172.953 23.962 172.967 23.836 172.977 23.696C172.986 23.556 172.991 23.388 172.991 23.192V21.82ZM187.191 25.838C186.855 26.2487 186.421 26.5707 185.889 26.804C185.357 27.028 184.783 27.14 184.167 27.14C183.672 27.14 183.215 27.0513 182.795 26.874C182.384 26.6873 182.03 26.4307 181.731 26.104C181.432 25.768 181.199 25.3667 181.031 24.9C180.872 24.4333 180.793 23.9153 180.793 23.346C180.793 22.7487 180.886 22.212 181.073 21.736C181.26 21.2507 181.521 20.84 181.857 20.504C182.202 20.1587 182.613 19.8973 183.089 19.72C183.574 19.5333 184.106 19.44 184.685 19.44C185.049 19.44 185.38 19.4727 185.679 19.538C185.978 19.594 186.234 19.678 186.449 19.79C186.673 19.8927 186.846 20.0233 186.967 20.182C187.088 20.3313 187.149 20.4947 187.149 20.672C187.149 20.8587 187.088 21.0033 186.967 21.106C186.846 21.2087 186.678 21.26 186.463 21.26C186.295 21.26 186.155 21.2273 186.043 21.162C185.931 21.0873 185.786 20.9287 185.609 20.686C185.422 20.4713 185.24 20.322 185.063 20.238C184.895 20.1447 184.676 20.098 184.405 20.098C183.742 20.098 183.238 20.3547 182.893 20.868C182.557 21.3813 182.389 22.1373 182.389 23.136C182.389 24.2093 182.576 25.026 182.949 25.586C183.332 26.1367 183.887 26.412 184.615 26.412C185.007 26.412 185.376 26.3373 185.721 26.188C186.066 26.0293 186.416 25.7773 186.771 25.432L187.191 25.838ZM192.263 19.44C192.795 19.44 193.299 19.538 193.775 19.734C194.251 19.9207 194.666 20.182 195.021 20.518C195.385 20.854 195.67 21.2553 195.875 21.722C196.09 22.1793 196.197 22.6833 196.197 23.234C196.197 23.8033 196.09 24.326 195.875 24.802C195.67 25.278 195.385 25.6887 195.021 26.034C194.666 26.3793 194.251 26.65 193.775 26.846C193.299 27.042 192.795 27.14 192.263 27.14C191.74 27.14 191.241 27.0467 190.765 26.86C190.298 26.664 189.888 26.3933 189.533 26.048C189.178 25.7027 188.898 25.292 188.693 24.816C188.488 24.3307 188.385 23.8033 188.385 23.234C188.385 22.6833 188.488 22.1747 188.693 21.708C188.898 21.2413 189.178 20.84 189.533 20.504C189.888 20.168 190.298 19.9067 190.765 19.72C191.241 19.5333 191.74 19.44 192.263 19.44ZM192.263 20.112C191.918 20.112 191.6 20.1867 191.311 20.336C191.031 20.4853 190.788 20.7 190.583 20.98C190.387 21.2507 190.233 21.582 190.121 21.974C190.018 22.3567 189.967 22.7813 189.967 23.248C189.967 23.7333 190.018 24.172 190.121 24.564C190.233 24.956 190.387 25.292 190.583 25.572C190.788 25.8427 191.031 26.0527 191.311 26.202C191.591 26.3513 191.908 26.426 192.263 26.426C192.618 26.426 192.94 26.3513 193.229 26.202C193.518 26.0527 193.766 25.838 193.971 25.558C194.176 25.278 194.335 24.942 194.447 24.55C194.559 24.158 194.615 23.724 194.615 23.248C194.615 22.7813 194.559 22.3567 194.447 21.974C194.335 21.5913 194.176 21.2647 193.971 20.994C193.766 20.714 193.518 20.4993 193.229 20.35C192.94 20.1913 192.618 20.112 192.263 20.112ZM200.081 24.774C200.081 25.1567 200.09 25.46 200.109 25.684C200.128 25.908 200.174 26.0807 200.249 26.202C200.333 26.314 200.45 26.3887 200.599 26.426C200.748 26.4633 200.958 26.4913 201.229 26.51V27H197.505V26.51C197.776 26.5007 197.99 26.4773 198.149 26.44C198.308 26.3933 198.429 26.314 198.513 26.202C198.597 26.09 198.648 25.9313 198.667 25.726C198.695 25.5113 198.709 25.2267 198.709 24.872V23.234C198.709 22.5993 198.7 22.1047 198.681 21.75C198.672 21.3953 198.625 21.134 198.541 20.966C198.466 20.798 198.345 20.7 198.177 20.672C198.009 20.6347 197.776 20.616 197.477 20.616V20.126L199.927 19.594L200.123 21.33H200.179C200.3 21.05 200.45 20.7933 200.627 20.56C200.814 20.3267 201.014 20.1307 201.229 19.972C201.444 19.804 201.668 19.6733 201.901 19.58C202.134 19.4867 202.372 19.44 202.615 19.44C202.914 19.44 203.147 19.5147 203.315 19.664C203.492 19.804 203.581 19.9953 203.581 20.238C203.581 20.462 203.511 20.6393 203.371 20.77C203.231 20.8913 203.03 20.952 202.769 20.952C202.62 20.952 202.494 20.9333 202.391 20.896C202.288 20.8587 202.195 20.8213 202.111 20.784C202.036 20.7373 201.962 20.6953 201.887 20.658C201.822 20.6207 201.747 20.602 201.663 20.602C201.411 20.602 201.159 20.7653 200.907 21.092C200.655 21.4093 200.459 21.8153 200.319 22.31C200.244 22.5807 200.184 22.8887 200.137 23.234C200.1 23.57 200.081 23.9247 200.081 24.298V24.774ZM206.853 24.774C206.853 25.1567 206.862 25.46 206.881 25.684C206.9 25.908 206.946 26.0807 207.021 26.202C207.105 26.314 207.222 26.3887 207.371 26.426C207.52 26.4633 207.73 26.4913 208.001 26.51V27H204.277V26.51C204.548 26.5007 204.762 26.4773 204.921 26.44C205.08 26.3933 205.201 26.314 205.285 26.202C205.369 26.09 205.42 25.9313 205.439 25.726C205.467 25.5113 205.481 25.2267 205.481 24.872V23.234C205.481 22.5993 205.472 22.1047 205.453 21.75C205.444 21.3953 205.397 21.134 205.313 20.966C205.238 20.798 205.117 20.7 204.949 20.672C204.781 20.6347 204.548 20.616 204.249 20.616V20.126L206.699 19.594L206.895 21.33H206.951C207.072 21.05 207.222 20.7933 207.399 20.56C207.586 20.3267 207.786 20.1307 208.001 19.972C208.216 19.804 208.44 19.6733 208.673 19.58C208.906 19.4867 209.144 19.44 209.387 19.44C209.686 19.44 209.919 19.5147 210.087 19.664C210.264 19.804 210.353 19.9953 210.353 20.238C210.353 20.462 210.283 20.6393 210.143 20.77C210.003 20.8913 209.802 20.952 209.541 20.952C209.392 20.952 209.266 20.9333 209.163 20.896C209.06 20.8587 208.967 20.8213 208.883 20.784C208.808 20.7373 208.734 20.6953 208.659 20.658C208.594 20.6207 208.519 20.602 208.435 20.602C208.183 20.602 207.931 20.7653 207.679 21.092C207.427 21.4093 207.231 21.8153 207.091 22.31C207.016 22.5807 206.956 22.8887 206.909 23.234C206.872 23.57 206.853 23.9247 206.853 24.298V24.774ZM217.674 25.698C216.881 26.6593 215.896 27.14 214.72 27.14C214.17 27.14 213.67 27.0513 213.222 26.874C212.774 26.6873 212.387 26.4307 212.06 26.104C211.743 25.768 211.496 25.3713 211.318 24.914C211.141 24.4473 211.052 23.934 211.052 23.374C211.052 22.8047 211.146 22.2773 211.332 21.792C211.519 21.3067 211.78 20.8913 212.116 20.546C212.462 20.2007 212.868 19.93 213.334 19.734C213.81 19.538 214.328 19.44 214.888 19.44C215.794 19.44 216.494 19.6873 216.988 20.182C217.483 20.6673 217.73 21.3673 217.73 22.282C217.73 22.4127 217.702 22.492 217.646 22.52C217.6 22.548 217.483 22.562 217.296 22.562H212.69C212.672 22.6367 212.658 22.73 212.648 22.842C212.639 22.9447 212.634 23.0613 212.634 23.192C212.634 23.6773 212.69 24.1207 212.802 24.522C212.924 24.914 213.092 25.25 213.306 25.53C213.53 25.81 213.792 26.0293 214.09 26.188C214.398 26.3373 214.739 26.412 215.112 26.412C215.504 26.412 215.868 26.328 216.204 26.16C216.54 25.9827 216.886 25.698 217.24 25.306L217.674 25.698ZM215.364 21.918C215.551 21.918 215.7 21.9133 215.812 21.904C215.924 21.8947 216.008 21.876 216.064 21.848C216.12 21.82 216.158 21.7827 216.176 21.736C216.195 21.68 216.204 21.61 216.204 21.526C216.204 21.0967 216.064 20.756 215.784 20.504C215.514 20.2427 215.14 20.112 214.664 20.112C213.656 20.112 213.031 20.714 212.788 21.918H215.364ZM223.042 19.44C223.574 19.44 224.078 19.538 224.554 19.734C225.03 19.9207 225.445 20.182 225.8 20.518C226.164 20.854 226.448 21.2553 226.654 21.722C226.868 22.1793 226.976 22.6833 226.976 23.234C226.976 23.8033 226.868 24.326 226.654 24.802C226.448 25.278 226.164 25.6887 225.8 26.034C225.445 26.3793 225.03 26.65 224.554 26.846C224.078 27.042 223.574 27.14 223.042 27.14C222.519 27.14 222.02 27.0467 221.544 26.86C221.077 26.664 220.666 26.3933 220.312 26.048C219.957 25.7027 219.677 25.292 219.472 24.816C219.266 24.3307 219.164 23.8033 219.164 23.234C219.164 22.6833 219.266 22.1747 219.472 21.708C219.677 21.2413 219.957 20.84 220.312 20.504C220.666 20.168 221.077 19.9067 221.544 19.72C222.02 19.5333 222.519 19.44 223.042 19.44ZM223.042 20.112C222.696 20.112 222.379 20.1867 222.09 20.336C221.81 20.4853 221.567 20.7 221.362 20.98C221.166 21.2507 221.012 21.582 220.9 21.974C220.797 22.3567 220.746 22.7813 220.746 23.248C220.746 23.7333 220.797 24.172 220.9 24.564C221.012 24.956 221.166 25.292 221.362 25.572C221.567 25.8427 221.81 26.0527 222.09 26.202C222.37 26.3513 222.687 26.426 223.042 26.426C223.396 26.426 223.718 26.3513 224.008 26.202C224.297 26.0527 224.544 25.838 224.75 25.558C224.955 25.278 225.114 24.942 225.226 24.55C225.338 24.158 225.394 23.724 225.394 23.248C225.394 22.7813 225.338 22.3567 225.226 21.974C225.114 21.5913 224.955 21.2647 224.75 20.994C224.544 20.714 224.297 20.4993 224.008 20.35C223.718 20.1913 223.396 20.112 223.042 20.112Z" fill="#898686"/>
<line x1="236" y1="21.5" x2="337" y2="21.5" stroke="#898686"/>
</svg>
