<svg width="254" height="222" viewBox="0 0 254 222" fill="none" xmlns="http://www.w3.org/2000/svg">
<path d="M128.959 221.994H177.592C181.996 221.994 184.713 217.186 182.44 213.417L182.396 213.341C179.248 208.116 178.635 201.545 181.441 196.128C183.892 191.395 187.875 187.488 192.891 185.091C227.162 168.726 251.466 150.443 253.992 113.14C254.232 109.606 251.452 106.564 247.909 106.564H128.963H6.10535C2.5624 106.564 -0.216902 109.606 0.0228464 113.14C2.54908 150.438 26.848 168.726 61.1231 185.091C66.1357 187.484 70.1226 191.395 72.5734 196.128C75.3793 201.545 74.7666 208.116 71.6188 213.341L71.5744 213.417C69.3012 217.191 72.0184 221.994 76.4226 221.994H128.959Z" fill="#E6E6E6"/>
<path d="M159.832 195.356H121.175C118.724 195.356 116.735 193.371 116.735 190.916C116.735 188.461 118.724 186.476 121.175 186.476H159.832C162.283 186.476 164.272 188.461 164.272 190.916C164.272 193.371 162.283 195.356 159.832 195.356Z" fill="white"/>
<path d="M108.268 195.356H93.2354C90.7846 195.356 88.7956 193.371 88.7956 190.916C88.7956 188.461 90.7846 186.476 93.2354 186.476H108.268C110.719 186.476 112.708 188.461 112.708 190.916C112.708 193.371 110.719 195.356 108.268 195.356Z" fill="white"/>
<path d="M159.832 208.675H93.2354C90.7846 208.675 88.7956 206.69 88.7956 204.235C88.7956 201.78 90.7846 199.795 93.2354 199.795H159.832C162.283 199.795 164.272 201.78 164.272 204.235C164.272 206.69 162.283 208.675 159.832 208.675Z" fill="white"/>
<path d="M182.031 0.00537109C159.961 0.00537109 142.073 17.8933 142.073 39.9634C142.073 43.0846 142.468 46.1081 143.143 49.025C145.394 51.3382 148.83 52.1329 151.841 50.7388L153.581 49.9352C158.425 47.6931 164.023 50.9253 164.503 56.2397L164.676 58.1488C165.013 61.8604 167.952 64.804 171.669 65.137L173.578 65.3101C178.892 65.7896 182.124 71.3927 179.882 76.232L179.079 77.9724C178.812 78.5451 178.728 79.149 178.612 79.7483C179.745 79.846 180.881 79.9215 182.035 79.9215C204.106 79.9215 221.994 62.0291 221.994 39.9634C221.989 17.8933 204.101 0.00537109 182.031 0.00537109Z" fill="#D13834"/>
<path d="M221.875 42.2456C220.685 63.2458 203.33 79.9216 182.033 79.9216C180.878 79.9216 179.733 79.8683 178.601 79.7706C178.037 82.692 179.107 85.7422 181.628 87.5181L183.2 88.628C187.56 91.7003 187.56 98.1691 183.196 101.237L181.628 102.343C180.203 103.346 179.258 104.776 178.765 106.343C178.827 106.414 178.88 106.489 178.942 106.56H238.387C244.731 99.4877 248.62 90.1686 248.62 79.9216C248.629 62.4866 237.445 47.7021 221.875 42.2456Z" fill="#436B1C"/>
<path d="M175.753 38.1254C174.617 38.1254 173.48 37.6903 172.615 36.8245L160.054 24.2688C158.318 22.5328 158.318 19.7269 160.054 17.9909C161.79 16.255 164.596 16.255 166.332 17.9909L178.892 30.5466C180.628 32.2826 180.628 35.0885 178.892 36.8245C178.027 37.6903 176.89 38.1254 175.753 38.1254Z" fill="#ED3F32"/>
<path d="M200.87 63.2367C199.734 63.2367 198.597 62.8016 197.731 61.9358L185.171 49.3801C183.435 47.6442 183.435 44.8382 185.171 43.1023C186.907 41.3663 189.713 41.3663 191.449 43.1023L204.009 55.658C205.741 57.3939 205.745 60.1999 204.009 61.9358C203.139 62.806 202.007 63.2367 200.87 63.2367Z" fill="#ED3F32"/>
<path d="M188.31 38.1254C187.173 38.1254 186.037 37.6903 185.171 36.8245C183.435 35.0885 183.435 32.2826 185.171 30.5466L197.731 17.9909C199.467 16.255 202.273 16.255 204.009 17.9909C205.745 19.7269 205.741 22.5328 204.009 24.2688L191.449 36.8245C190.583 37.6903 189.447 38.1254 188.31 38.1254Z" fill="#ED3F32"/>
<path d="M165.413 61.0168C164.277 61.0168 163.14 60.5817 162.274 59.7159C160.538 57.98 160.538 55.174 162.274 53.4381L172.615 43.1023C174.351 41.3663 177.156 41.3663 178.892 43.1023C180.628 44.8382 180.628 47.6442 178.892 49.3801L168.552 59.7159C167.686 60.5861 166.55 61.0168 165.413 61.0168Z" fill="#ED3F32"/>
<path d="M235.308 79.9216H217.549C215.094 79.9216 213.11 77.937 213.11 75.4818C213.11 73.0266 215.094 71.042 217.549 71.042H235.308C237.764 71.042 239.748 73.0266 239.748 75.4818C239.748 77.937 237.764 79.9216 235.308 79.9216Z" fill="#659C35"/>
<path d="M208.67 106.56C206.215 106.56 204.23 104.575 204.23 102.12V84.3612C204.23 81.906 206.215 79.9214 208.67 79.9214C211.125 79.9214 213.11 81.906 213.11 84.3612V102.12C213.11 104.575 211.125 106.56 208.67 106.56Z" fill="#659C35"/>
<path d="M104.163 65.6341C108.478 66.9793 110.845 71.9119 108.842 76.2363L108.039 77.9767C106.471 81.3598 107.55 85.3778 110.596 87.5222L112.168 88.6322C116.527 91.7045 116.527 98.1733 112.163 101.241L110.596 102.347C109.1 103.399 108.096 104.908 107.626 106.569H128.954H178.662C179.128 104.908 180.136 103.403 181.632 102.347L183.2 101.241C187.56 98.1688 187.564 91.7045 183.204 88.6322L181.632 87.5222C178.587 85.3778 177.512 81.3598 179.075 77.9767L179.879 76.2363C182.121 71.3925 178.889 65.7939 173.574 65.3144L171.665 65.1413C167.953 64.8038 165.01 61.8647 164.672 58.153L164.499 56.2439C164.02 50.9295 158.417 47.6974 153.577 49.9395L151.841 50.7386C148.458 52.3059 144.44 51.227 142.296 48.1813L141.19 46.6141C138.118 42.2497 131.649 42.2497 128.577 46.6141L127.471 48.1813C125.327 51.227 121.309 52.3059 117.926 50.7386L116.186 49.9306C111.342 47.6885 105.743 50.9251 105.264 56.2351L105.091 58.1442C104.913 60.1066 104.025 62.3042 103.346 63.7383C102.991 64.4975 103.368 65.3855 104.163 65.6341Z" fill="#88C057"/>
<path d="M55.6973 45.624L81.2704 9.32872C85.4882 3.33946 93.8439 1.89209 99.8287 6.11432C105.818 10.3321 107.265 18.6878 103.043 24.6726L77.47 60.9678C73.2522 66.9571 64.8965 68.4045 58.9117 64.1822C52.9224 59.9644 51.475 51.6132 55.6973 45.624Z" fill="#A46F3E"/>
<path d="M112.163 88.6232L110.596 87.5177C107.55 85.3733 106.471 81.3553 108.038 77.9722L108.842 76.2318C111.084 71.388 107.847 65.7894 102.537 65.3099L100.628 65.1368C96.9166 64.7994 93.973 61.8602 93.6401 58.1486L93.4669 56.2395C93.0895 52.075 89.5599 49.2291 85.7239 49.2557L77.4748 60.9634C73.257 66.9527 64.9014 68.4 58.9165 64.1778C54.4457 61.0256 52.5099 55.5735 53.571 50.5166C51.5243 51.5511 49.0957 51.7509 46.8936 50.7341L45.1532 49.9261C40.3094 47.684 34.7108 50.9206 34.2313 56.2306L34.0582 58.1397C33.7208 61.8514 30.7816 64.7949 27.07 65.1279L25.1609 65.3011C19.8464 65.7806 16.6143 71.3836 18.8564 76.2229L19.66 77.9633C21.2272 81.3464 20.1483 85.3644 17.1026 87.5089L15.5354 88.6144C11.1755 91.6867 11.1755 98.1555 15.5354 101.228L17.1026 102.333C18.5989 103.386 19.6022 104.895 20.0684 106.551H107.63C108.096 104.891 109.104 103.386 110.596 102.333L112.163 101.228C116.527 98.1643 116.527 91.6956 112.163 88.6232Z" fill="#FBD490"/>
<path d="M130.974 77.7015C129.838 77.7015 128.701 77.2664 127.835 76.4006C126.1 74.6647 126.1 71.8587 127.835 70.1228L134.495 63.4631C136.231 61.7271 139.037 61.7271 140.773 63.4631C142.509 65.1991 142.509 68.005 140.773 69.7409L134.113 76.4006C133.248 77.2664 132.111 77.7015 130.974 77.7015Z" fill="#436B1C"/>
<path d="M155.393 88.8009C154.257 88.8009 153.12 88.3658 152.254 87.5001L147.815 83.0603C146.079 81.3243 146.079 78.5184 147.815 76.7824C149.55 75.0465 152.356 75.0465 154.092 76.7824L158.532 81.2222C160.268 82.9582 160.268 85.7641 158.532 87.5001C157.666 88.3658 156.53 88.8009 155.393 88.8009Z" fill="#436B1C"/>
<path d="M133.194 97.6808C132.058 97.6808 130.921 97.2457 130.055 96.3799C128.319 94.644 128.319 91.8381 130.055 90.1021L134.495 85.6623C136.231 83.9264 139.037 83.9264 140.773 85.6623C142.509 87.3983 142.509 90.2042 140.773 91.9402L136.333 96.3799C135.467 97.2457 134.331 97.6808 133.194 97.6808Z" fill="#436B1C"/>
</svg>
