<svg width="24" height="24" viewBox="0 0 24 24" fill="none" xmlns="http://www.w3.org/2000/svg">
<path d="M12 2C6.477 2 2 6.477 2 12C2 17.523 6.477 22 12 22C17.523 22 22 17.523 22 12C22 6.477 17.523 2 12 2ZM10 16C7.791 16 6 14.209 6 12C6 9.791 7.791 8 10 8C11.042 8 11.982 8.408 12.694 9.061L11.601 10.095C11.167 9.729 10.613 9.5 10 9.5C8.619 9.5 7.5 10.619 7.5 12C7.5 13.381 8.619 14.5 10 14.5C11.209 14.5 12.218 13.641 12.45 12.5H10V11H13.859C13.942 11.321 14 11.653 14 12C14 14.209 12.209 16 10 16ZM18 12V13.5H17V12H15.5V11H17V9.5H18V11H19.5V12H18ZM20 12C20 16.418 16.418 20 12 20C7.582 20 4 16.418 4 12C4 7.582 7.582 4 12 4C16.418 4 20 7.582 20 12Z" fill="#333333"/>
</svg>
