<svg width="24" height="24" viewBox="0 0 24 24" fill="none" xmlns="http://www.w3.org/2000/svg">
<path d="M12 2C6.477 2 2 6.477 2 12C2 17.523 6.477 22 12 22C17.523 22 22 17.523 22 12C22 6.477 17.523 2 12 2ZM12 4C16.418 4 20 7.582 20 12C20 16.418 16.418 20 12 20C11.2644 20 10.5555 19.893 9.87891 19.707C10.0917 19.2783 10.2826 18.8265 10.3867 18.4258C10.5017 17.9858 10.9727 16.1914 10.9727 16.1914C11.2787 16.7754 12.173 17.2715 13.125 17.2715C15.958 17.2715 18 14.6657 18 11.4277C18 8.32273 15.467 6 12.207 6C8.15203 6 6 8.72155 6 11.6855C6 13.0635 6.73325 14.7792 7.90625 15.3262C8.08425 15.4092 8.1797 15.3732 8.2207 15.2012C8.2527 15.0702 8.41142 14.4318 8.48242 14.1348C8.50542 14.0408 8.49497 13.9582 8.41797 13.8652C8.02997 13.3942 7.71875 12.5297 7.71875 11.7227C7.71875 9.64966 9.28794 7.64453 11.9609 7.64453C14.2689 7.64453 15.8848 9.2178 15.8848 11.4668C15.8848 14.0078 14.6016 15.7676 12.9316 15.7676C12.0096 15.7676 11.3171 15.0063 11.5391 14.0703C11.8041 12.9533 12.3184 11.7474 12.3184 10.9414C12.3184 10.2204 11.9329 9.61914 11.1309 9.61914C10.1879 9.61914 9.42969 10.5934 9.42969 11.9004C9.42969 12.7324 9.71094 13.2949 9.71094 13.2949C9.71094 13.2949 8.78038 17.2318 8.60938 17.9648C8.52463 18.3266 8.49634 18.7551 8.49414 19.1836C5.83577 17.8831 4 15.1586 4 12C4 7.582 7.582 4 12 4Z" fill="#333333"/>
</svg>
