<svg width="24" height="24" viewBox="0 0 24 24" fill="none" xmlns="http://www.w3.org/2000/svg">
<mask id="path-1-inside-1" fill="white">
<path d="M12 2C6.489 2 2 6.489 2 12C2 17.511 6.489 22 12 22C17.511 22 22 17.511 22 12C22 6.489 17.511 2 12 2ZM12 4C16.4301 4 20 7.56988 20 12C20 16.4301 16.4301 20 12 20C7.56988 20 4 16.4301 4 12C4 7.56988 7.56988 4 12 4ZM11 6V12.4141L15.293 16.707L16.707 15.293L13 11.5859V6H11Z"/>
</mask>
<path d="M12 2C6.489 2 2 6.489 2 12C2 17.511 6.489 22 12 22C17.511 22 22 17.511 22 12C22 6.489 17.511 2 12 2ZM12 4C16.4301 4 20 7.56988 20 12C20 16.4301 16.4301 20 12 20C7.56988 20 4 16.4301 4 12C4 7.56988 7.56988 4 12 4ZM11 6V12.4141L15.293 16.707L16.707 15.293L13 11.5859V6H11Z" fill="#628F22"/>
<path d="M11 6V4H9V6H11ZM11 12.4141H9V13.2425L9.58579 13.8283L11 12.4141ZM15.293 16.707L13.8788 18.1212L15.293 19.5355L16.7072 18.1212L15.293 16.707ZM16.707 15.293L18.1212 16.7072L19.5355 15.293L18.1212 13.8788L16.707 15.293ZM13 11.5859H11V12.4144L11.5858 13.0002L13 11.5859ZM13 6H15V4H13V6ZM12 0C5.38443 0 0 5.38443 0 12H4C4 7.59357 7.59357 4 12 4V0ZM0 12C0 18.6156 5.38443 24 12 24V20C7.59357 20 4 16.4064 4 12H0ZM12 24C18.6156 24 24 18.6156 24 12H20C20 16.4064 16.4064 20 12 20V24ZM24 12C24 5.38443 18.6156 0 12 0V4C16.4064 4 20 7.59357 20 12H24ZM12 6C15.3256 6 18 8.67445 18 12H22C22 6.46531 17.5347 2 12 2V6ZM18 12C18 15.3256 15.3256 18 12 18V22C17.5347 22 22 17.5347 22 12H18ZM12 18C8.67445 18 6 15.3256 6 12H2C2 17.5347 6.46531 22 12 22V18ZM6 12C6 8.67445 8.67445 6 12 6V2C6.46531 2 2 6.46531 2 12H6ZM9 6V12.4141H13V6H9ZM9.58579 13.8283L13.8788 18.1212L16.7072 15.2928L12.4142 10.9998L9.58579 13.8283ZM16.7072 18.1212L18.1212 16.7072L15.2928 13.8788L13.8788 15.2928L16.7072 18.1212ZM18.1212 13.8788L14.4142 10.1717L11.5858 13.0002L15.2928 16.7072L18.1212 13.8788ZM15 11.5859V6H11V11.5859H15ZM13 4H11V8H13V4Z" fill="#628F22" mask="url(#path-1-inside-1)"/>
</svg>
