<svg width="123" height="123" viewBox="0 0 123 123" fill="none" xmlns="http://www.w3.org/2000/svg">
<g filter="url(#filter0_d)">
<circle cx="57.5" cy="57.5" r="41.5" fill="white"/>
</g>
<g clip-path="url(#clip0)">
<path d="M57.5 31.5142C42.6043 31.5142 30.514 43.6044 30.514 58.5001C30.514 73.3958 42.6043 85.486 57.5 85.486C72.3957 85.486 84.4859 73.3958 84.4859 58.5001C84.575 43.6935 72.6629 31.6255 57.8562 31.5142C57.7449 31.5142 57.6113 31.5142 57.5 31.5142ZM57.5 82.9032C44.0293 82.9032 33.0969 71.9708 33.0969 58.5001C33.0969 45.0294 44.0293 34.097 57.5 34.097C70.9707 34.097 81.9031 45.0294 81.9031 58.5001C81.8808 71.9708 70.9707 82.881 57.5 82.9032Z" fill="#9CE59C"/>
<path d="M57.5 34.0967C44.0293 34.0967 33.0969 45.0291 33.0969 58.4998C33.0969 71.9705 44.0293 82.9029 57.5 82.9029C70.9707 82.9029 81.9031 71.9705 81.9031 58.4998C81.9922 45.1182 71.2156 34.1857 57.8117 34.0967C57.7226 34.0967 57.6113 34.0967 57.5 34.0967ZM57.5 80.2979C45.4543 80.2979 35.7019 70.5233 35.7019 58.4998C35.7019 46.4541 45.4766 36.7018 57.5 36.7018C69.5457 36.7018 79.298 46.4764 79.298 58.4998C79.298 70.5455 69.5457 80.2979 57.5 80.2979Z" fill="#6DCC6D"/>
<path d="M35.7242 59.7021C36.0582 66.0479 39.1531 71.926 44.2074 75.7779H70.8148C75.8468 71.9037 78.9418 66.0256 79.298 59.7021H35.7242Z" fill="#FFCD29"/>
<path d="M55.7855 42.8693C55.8078 44.1385 56.4535 45.3408 57.5 46.0756C58.5465 45.3408 59.1922 44.1607 59.2144 42.8693C59.1922 41.6002 58.5465 40.3979 57.5 39.6631C56.4535 40.3979 55.8078 41.6002 55.7855 42.8693Z" fill="#FFCD29"/>
<path d="M59.2367 46.1426C58.1902 46.8551 57.5445 48.0575 57.5 49.3266C59.4371 50.1504 61.7082 49.2598 62.532 47.3004C62.7324 46.8329 62.8438 46.3207 62.8438 45.8086C61.6637 45.3411 60.3055 45.4524 59.2367 46.1426Z" fill="#FFCD29"/>
<path d="M59.2367 50.1947C58.1902 50.9072 57.5445 52.1095 57.5 53.3787C59.4371 54.2025 61.7082 53.3119 62.532 51.3525C62.7324 50.8849 62.8438 50.3728 62.8438 49.8607C61.6637 49.3709 60.3055 49.5045 59.2367 50.1947Z" fill="#FFCD29"/>
<path d="M59.2367 54.2251C58.1902 54.9376 57.5445 56.14 57.5 57.4091C59.4371 58.2329 61.7082 57.3423 62.532 55.383C62.7324 54.9154 62.8438 54.4033 62.8438 53.8912C61.6637 53.4236 60.3055 53.5349 59.2367 54.2251Z" fill="#FFCD29"/>
<path d="M55.7632 46.1426C56.8097 46.8551 57.4554 48.0575 57.4999 49.3266C55.5628 50.1504 53.2917 49.2598 52.4679 47.3004C52.2675 46.8329 52.1562 46.3207 52.1562 45.8086C53.3363 45.3411 54.6945 45.4524 55.7632 46.1426Z" fill="#FFCD29"/>
<path d="M55.7632 50.1947C56.8097 50.9072 57.4554 52.1095 57.4999 53.3787C55.5628 54.2025 53.2917 53.3119 52.4679 51.3525C52.2675 50.8849 52.1562 50.3728 52.1562 49.8607C53.3363 49.3709 54.6945 49.5045 55.7632 50.1947Z" fill="#FFCD29"/>
<path d="M55.7632 54.2251C56.8097 54.9376 57.4554 56.14 57.4999 57.4091C55.5628 58.2329 53.2917 57.3423 52.4679 55.383C52.2675 54.9154 52.1562 54.4033 52.1562 53.8912C53.3363 53.4236 54.6945 53.5349 55.7632 54.2251Z" fill="#FFCD29"/>
<path d="M37.7504 82.1015H37.3496V81.7007C37.3496 81.389 37.1047 81.144 36.7929 81.144C36.4812 81.144 36.2363 81.389 36.2363 81.7007V82.1015H35.8355C35.5238 82.1015 35.2789 82.3464 35.2789 82.6581C35.2789 82.9698 35.5238 83.2147 35.8355 83.2147H36.2363V83.6155C36.2363 83.9272 36.4812 84.1722 36.7929 84.1722C37.1047 84.1722 37.3496 83.9272 37.3496 83.6155V83.2147H37.7504C38.0621 83.2147 38.307 82.9698 38.307 82.6581C38.307 82.3464 38.0621 82.1015 37.7504 82.1015Z" fill="#F45D64"/>
<path d="M79.7211 37.2142C79.7211 37.1696 79.6988 37.1474 79.6988 37.1028C79.6765 37.0806 79.6765 37.036 79.6543 37.0138C79.632 36.9915 79.6097 36.947 79.5875 36.9247C79.3648 36.7243 79.0308 36.7243 78.8082 36.9247C78.7859 36.947 78.7636 36.9692 78.7414 37.0138C78.6968 37.0806 78.6746 37.1474 78.6523 37.2142C78.6301 37.281 78.6301 37.37 78.6523 37.4368C78.6523 37.4813 78.6746 37.5036 78.6746 37.5481C78.6969 37.5927 78.6969 37.6149 78.7191 37.6372C78.7414 37.6595 78.7636 37.704 78.7859 37.7263C79.0086 37.9489 79.3426 37.9489 79.5652 37.7263C79.5875 37.704 79.6097 37.6817 79.632 37.6372C79.6543 37.6149 79.6765 37.5704 79.6765 37.5481C79.6988 37.5259 79.6988 37.4813 79.6988 37.4368C79.7433 37.3478 79.7433 37.281 79.7211 37.2142Z" fill="#F45D64"/>
<path d="M42.6488 86.3318C42.6488 86.2873 42.6265 86.265 42.6265 86.2205C42.6043 86.1982 42.6043 86.1537 42.582 86.1315C42.5597 86.1092 42.5375 86.0647 42.5152 86.0424C42.2926 85.842 41.9586 85.842 41.7359 86.0424C41.7136 86.0647 41.6914 86.0869 41.6691 86.1315C41.6246 86.1982 41.6023 86.265 41.5801 86.3318C41.5578 86.3986 41.5578 86.4877 41.5801 86.5545C41.5801 86.599 41.6023 86.6213 41.6023 86.6658C41.6246 86.7104 41.6246 86.7326 41.6469 86.7549C41.6691 86.7772 41.6914 86.8217 41.7136 86.844C41.9363 87.0666 42.2703 87.0666 42.4929 86.844C42.5152 86.8217 42.5375 86.7994 42.5597 86.7549C42.582 86.7326 42.6043 86.6881 42.6043 86.6658C42.6265 86.6436 42.6265 86.599 42.6265 86.5545C42.6711 86.4877 42.6711 86.3986 42.6488 86.3318Z" fill="#6DCC6D"/>
<path d="M79.1421 31.8258C78.2292 31.6477 77.539 30.9352 77.3609 30.0445C77.3609 30.0223 77.3386 30 77.3164 30C77.2941 30 77.2941 30.0223 77.2718 30.0445C77.0937 30.9574 76.3812 31.6477 75.4906 31.8258C75.4683 31.8258 75.446 31.848 75.446 31.8703C75.446 31.8926 75.4683 31.8926 75.4906 31.9148C76.4035 32.093 77.0937 32.8055 77.2718 33.6961C77.2718 33.7184 77.2941 33.7406 77.3164 33.7406C77.3386 33.7406 77.3386 33.7184 77.3609 33.6961C77.539 32.7832 78.2515 32.093 79.1421 31.9148C79.1644 31.9148 79.1867 31.8926 79.1867 31.8703C79.1867 31.8258 79.1644 31.8258 79.1421 31.8258Z" fill="#FFCD29"/>
<path d="M57.5 86.0427C42.2926 86.0427 29.9574 73.7075 29.9574 58.5001C29.9574 43.2927 42.2926 30.9575 57.5 30.9575C72.7074 30.9575 85.0426 43.2927 85.0426 58.5001C85.0203 73.7075 72.7074 86.0204 57.5 86.0427ZM57.5 32.0708C42.916 32.0708 31.0707 43.9161 31.0707 58.5001C31.0707 73.0841 42.916 84.9294 57.5 84.9294C72.084 84.9294 83.9293 73.0841 83.9293 58.5001C84.0183 44.0052 72.3511 32.1821 57.8562 32.0708C57.7226 32.0708 57.6113 32.0708 57.5 32.0708ZM57.5 83.4599C43.7176 83.4599 32.5402 72.2825 32.5402 58.5001C32.5402 44.7177 43.7176 33.5403 57.5 33.5403C71.2824 33.5403 82.4597 44.7177 82.4597 58.5001C82.4375 72.2825 71.2824 83.4376 57.5 83.4599ZM57.5 34.6536C44.341 34.6536 33.6535 45.3411 33.6535 58.5001C33.6535 71.6591 44.341 82.3466 57.5 82.3466C70.659 82.3466 81.3465 71.6591 81.3465 58.5001C81.4355 45.4079 70.9039 34.7427 57.8117 34.6536C57.7004 34.6536 57.6113 34.6536 57.5 34.6536Z" fill="#231F20"/>
<path d="M57.5 83.4596C43.7176 83.4596 32.5402 72.2822 32.5402 58.4998C32.5402 44.7174 43.7176 33.54 57.5 33.54C71.2824 33.54 82.4598 44.7174 82.4598 58.4998C82.4375 72.2822 71.2824 83.4373 57.5 83.4596ZM57.5 34.6533C44.341 34.6533 33.6535 45.3408 33.6535 58.4998C33.6535 71.6588 44.341 82.3463 57.5 82.3463C70.659 82.3463 81.3465 71.6588 81.3465 58.4998C81.4355 45.4076 70.9039 34.7424 57.8117 34.6533C57.7004 34.6533 57.6113 34.6533 57.5 34.6533ZM57.5 80.8545C45.1426 80.8545 35.1453 70.835 35.1453 58.4998C35.1453 46.1646 45.1426 36.1451 57.5 36.1451C69.8574 36.1451 79.8547 46.1646 79.8547 58.4998C79.8547 70.835 69.8351 80.8545 57.5 80.8545ZM57.5 37.2584C45.766 37.2584 36.2586 46.7658 36.2586 58.4998C36.2586 70.2338 45.766 79.7412 57.5 79.7412C69.234 79.7412 78.7414 70.2338 78.7414 58.4998C78.7414 46.7658 69.234 37.2584 57.5 37.2584Z" fill="#231F20"/>
<path d="M57.4999 60.2588C57.1882 60.2588 56.9433 60.0139 56.9433 59.7021V46.0088C56.9433 45.6971 57.1882 45.4521 57.4999 45.4521C57.8117 45.4521 58.0566 45.6971 58.0566 46.0088V59.7021C58.0566 60.0139 57.8117 60.2588 57.4999 60.2588Z" fill="#231F20"/>
<path d="M57.5 46.6323C57.3886 46.6323 57.2773 46.5878 57.166 46.521C55.9636 45.6972 55.2511 44.339 55.2289 42.8694C55.2511 41.4222 55.9859 40.064 57.166 39.2179C57.3664 39.0843 57.6336 39.0843 57.834 39.2179C59.0363 40.0417 59.7488 41.3999 59.7711 42.8694C59.7488 44.3167 59.0363 45.6749 57.834 46.521C57.7226 46.5878 57.6113 46.6323 57.5 46.6323ZM57.5 40.3979C56.1195 41.5335 55.9414 43.5819 57.0992 44.9624C57.2328 45.1183 57.3664 45.2519 57.5 45.3632C58.8804 44.2276 59.0586 42.1792 57.9008 40.7987C57.7894 40.6429 57.6558 40.5093 57.5 40.3979Z" fill="#231F20"/>
<path d="M59.0363 50.1727C58.4351 50.1727 57.8562 50.0614 57.2996 49.861C57.0769 49.772 56.9211 49.5493 56.9433 49.3044C56.9656 46.8774 58.9472 44.9403 61.3742 44.9626C61.9531 44.9626 62.5097 45.0739 63.0219 45.2966C63.2445 45.3856 63.4004 45.6083 63.3781 45.8532C63.3336 47.3005 62.5988 48.6587 61.3965 49.4825C60.7062 49.9501 59.8824 50.1727 59.0363 50.1727ZM58.1012 48.9481C59.8156 49.4602 61.6191 48.5028 62.1312 46.7884C62.1758 46.6102 62.2203 46.4099 62.2426 46.2317C60.5281 45.7196 58.7246 46.677 58.2125 48.3915C58.1679 48.5696 58.1234 48.7477 58.1012 48.9481Z" fill="#231F20"/>
<path d="M59.0363 54.225C58.4351 54.225 57.8562 54.1137 57.2996 53.9133C57.0769 53.8242 56.9211 53.6016 56.9433 53.3566C56.9656 50.9297 58.9472 48.9926 61.3742 49.0148C61.9531 49.0148 62.5097 49.1262 63.0219 49.3488C63.2445 49.4379 63.4004 49.6605 63.3781 49.9055C63.3336 51.3527 62.5988 52.7109 61.3965 53.5348C60.7062 53.9801 59.8824 54.225 59.0363 54.225ZM58.1012 52.9781C59.8156 53.4902 61.6191 52.5328 62.1312 50.8184C62.1758 50.6402 62.2203 50.4398 62.2426 50.2617C60.5281 49.7496 58.7246 50.707 58.2125 52.4215C58.1679 52.5996 58.1234 52.7777 58.1012 52.9781Z" fill="#231F20"/>
<path d="M59.0363 58.2553C58.4351 58.2553 57.8562 58.1439 57.2996 57.9435C57.0769 57.8545 56.9211 57.6318 56.9433 57.3869C56.9656 54.96 58.9472 53.0228 61.3742 53.0451C61.9531 53.0451 62.5097 53.1564 63.0441 53.3791C63.2668 53.4682 63.4226 53.6908 63.4004 53.9357C63.3558 55.383 62.6211 56.7412 61.4187 57.565C60.7062 58.0103 59.8824 58.2553 59.0363 58.2553ZM58.1012 57.0084C59.8156 57.5205 61.6191 56.5631 62.1312 54.8486C62.1758 54.6705 62.2203 54.4701 62.2426 54.292C60.5281 53.7799 58.7246 54.7373 58.2125 56.4518C58.1679 56.6521 58.1234 56.8303 58.1012 57.0084Z" fill="#231F20"/>
<path d="M55.9637 50.1726C55.1176 50.1726 54.2937 49.9277 53.5812 49.4824C52.3789 48.6586 51.6441 47.3226 51.5996 45.8531C51.5773 45.6082 51.7332 45.3855 51.9558 45.2964C54.1824 44.3613 56.7652 45.4078 57.7004 47.6343C57.923 48.1687 58.0344 48.7254 58.0344 49.282C58.0566 49.5269 57.9008 49.7496 57.6781 49.8386C57.1437 50.0613 56.5426 50.1726 55.9637 50.1726ZM52.7574 46.2093C52.9578 47.9906 54.5609 49.2597 56.3422 49.0593C56.5426 49.0371 56.7207 48.9925 56.8988 48.948C56.6984 47.1668 55.0953 45.8976 53.314 46.098C53.1359 46.1203 52.9355 46.1648 52.7574 46.2093Z" fill="#231F20"/>
<path d="M55.9637 54.2249C55.1176 54.2249 54.2937 53.9799 53.5812 53.5346C52.3789 52.7108 51.6441 51.3749 51.5996 49.9053C51.5773 49.6604 51.7332 49.4378 51.9558 49.3487C54.1824 48.4135 56.7652 49.46 57.7004 51.6866C57.923 52.221 58.0344 52.7776 58.0344 53.3565C58.0566 53.6014 57.9008 53.8241 57.6781 53.9131C57.1437 54.1135 56.5426 54.2026 55.9637 54.2249ZM52.7574 50.2616C52.9578 52.0428 54.5609 53.312 56.3422 53.1116C56.5426 53.0893 56.7207 53.0448 56.8988 53.0003C56.6984 51.219 55.0953 49.9499 53.314 50.1503C53.1359 50.1503 52.9355 50.1948 52.7574 50.2616Z" fill="#231F20"/>
<path d="M55.9637 58.2551C55.1176 58.2551 54.2937 58.0102 53.5812 57.5649C52.3789 56.7411 51.6441 55.4051 51.5996 53.9356C51.5773 53.6907 51.7332 53.468 51.9558 53.379C54.1824 52.4438 56.7652 53.4903 57.7004 55.7169C57.923 56.2512 58.0344 56.8079 58.0344 57.3645C58.0566 57.6094 57.9008 57.8321 57.6781 57.9212C57.1437 58.1438 56.5426 58.2551 55.9637 58.2551ZM52.7574 54.2919C52.9578 56.0731 54.5609 57.3422 56.3422 57.1419C56.5426 57.1196 56.7207 57.0751 56.8988 57.0305C56.6984 55.2493 55.0953 53.9801 53.314 54.1805C53.1359 54.2028 52.9355 54.2473 52.7574 54.2919Z" fill="#231F20"/>
<path d="M68.8555 52.1768H66.8516C66.5398 52.1768 66.2949 51.9318 66.2949 51.6201C66.2949 51.3084 66.5398 51.0635 66.8516 51.0635H68.8555C69.1672 51.0635 69.4121 51.3084 69.4121 51.6201C69.4121 51.9318 69.1672 52.1768 68.8555 52.1768Z" fill="#231F20"/>
<path d="M48.1484 52.1768H46.1445C45.8328 52.1768 45.5878 51.9318 45.5878 51.6201C45.5878 51.3084 45.8328 51.0635 46.1445 51.0635H48.1484C48.4601 51.0635 48.705 51.3084 48.705 51.6201C48.705 51.9318 48.4601 52.1768 48.1484 52.1768Z" fill="#231F20"/>
<path d="M49.2172 69.1875H51.1988C51.4437 69.1875 51.6441 68.9871 51.6441 68.7422C51.6441 68.4973 51.4437 68.2969 51.1988 68.2969H48.3933C48.1707 68.2969 47.9926 68.475 47.9926 68.6977V73.1063C47.9926 73.3957 48.2152 73.6406 48.5269 73.6629C48.8164 73.6629 49.0613 73.4402 49.0836 73.1285V73.1063V71.7703C49.0836 71.5477 49.2617 71.3695 49.4844 71.3695H50.8648C51.1097 71.3695 51.3101 71.1691 51.3101 70.9242C51.3101 70.6793 51.1097 70.4789 50.8648 70.4789H49.2394C49.1504 70.4789 49.0836 70.4121 49.0836 70.323V69.3656C49.0613 69.2543 49.1281 69.1875 49.2172 69.1875Z" fill="black"/>
<path d="M57.9453 73.2398V68.6977C57.9453 68.475 58.1234 68.2969 58.3461 68.2969H61.4633C61.7082 68.2969 61.9086 68.4973 61.9086 68.7422C61.9086 68.9871 61.7082 69.1875 61.4633 69.1875H59.4371C59.2145 69.1875 59.0363 69.3656 59.0363 69.5883V69.9668C59.0363 70.1895 59.2145 70.3676 59.4371 70.3676H61.2629C61.5078 70.3676 61.7082 70.568 61.7082 70.8129C61.7082 71.0578 61.5078 71.2582 61.2629 71.2582H59.4371C59.2145 71.2582 59.0363 71.4363 59.0363 71.659V72.3047C59.0363 72.5273 59.2145 72.7055 59.4371 72.7055H61.5746C61.8195 72.7055 62.0199 72.9059 62.0199 73.1508C62.0199 73.3957 61.8195 73.5961 61.5746 73.5961H58.3684C58.1234 73.6406 57.9453 73.4625 57.9453 73.2398Z" fill="black"/>
<path d="M62.9329 73.2398V68.6977C62.9329 68.475 63.111 68.2969 63.3336 68.2969H66.4508C66.6958 68.2969 66.8961 68.4973 66.8961 68.7422C66.8961 68.9871 66.6958 69.1875 66.4508 69.1875H64.4247C64.202 69.1875 64.0239 69.3656 64.0239 69.5883V69.9668C64.0239 70.1895 64.202 70.3676 64.4247 70.3676H66.2504C66.4954 70.3676 66.6958 70.568 66.6958 70.8129C66.6958 71.0578 66.4954 71.2582 66.2504 71.2582H64.4247C64.202 71.2582 64.0239 71.4363 64.0239 71.659V72.3047C64.0239 72.5273 64.202 72.7055 64.4247 72.7055H66.5622C66.8071 72.7055 67.0075 72.9059 67.0075 73.1508C67.0075 73.3957 66.8071 73.5961 66.5622 73.5961H63.3559C63.111 73.6406 62.9329 73.4625 62.9329 73.2398Z" fill="black"/>
<path d="M56.7206 72.5943C56.5425 72.2826 56.3421 71.9932 56.0972 71.726L55.919 71.5256C55.83 71.4365 55.83 71.3029 55.919 71.2139C55.9413 71.1916 55.9636 71.1693 55.9858 71.1693C56.5648 70.9689 56.9655 70.4123 56.921 69.7889C56.921 69.4994 56.8542 69.1877 56.6761 68.9428C56.5425 68.6979 56.3198 68.5197 56.0526 68.4307C55.6519 68.3193 55.2288 68.2748 54.8058 68.2971H52.9355C52.7128 68.2971 52.5347 68.4752 52.5347 68.6979V73.1065C52.5347 73.3959 52.7796 73.6408 53.069 73.6408C53.3585 73.6408 53.6034 73.3959 53.6034 73.1065V71.6369C53.6034 71.5256 53.6925 71.4365 53.8038 71.4143C53.9819 71.4143 54.1601 71.4365 54.3382 71.4811C54.4718 71.5256 54.5831 71.6147 54.6722 71.7037C54.8726 71.9486 55.073 72.2158 55.2511 72.483L55.8745 73.3959C56.0526 73.6408 56.3866 73.7076 56.6538 73.5295C56.8987 73.3736 56.9655 73.0397 56.8097 72.7947L56.7206 72.5943ZM55.7187 70.2564C55.6519 70.3678 55.5405 70.4346 55.4069 70.4791C55.0952 70.5459 54.7612 70.5682 54.4272 70.5459H53.8261C53.7147 70.5459 53.6257 70.4568 53.6257 70.3455V69.3658C53.6257 69.2545 53.7147 69.1654 53.8261 69.1654H54.4718C54.9171 69.1654 55.162 69.1654 55.2511 69.1877C55.4069 69.21 55.5628 69.2768 55.6519 69.3881C55.7632 69.5217 55.8077 69.6553 55.7855 69.8334C55.83 70.0115 55.7855 70.1451 55.7187 70.2564Z" fill="black"/>
<path d="M45.2762 64.6677C45.2762 64.4228 45.4766 64.2224 45.7215 64.2224H47.191C47.4137 64.2224 47.5918 64.4005 47.5918 64.6232V66.1595C47.5918 66.2931 47.525 66.4044 47.4359 66.4935C47.191 66.6716 46.9016 66.8275 46.6121 66.9388C46.1891 67.0946 45.7437 67.1837 45.2984 67.1837C44.7863 67.206 44.2742 67.0724 43.8289 66.8275C43.4281 66.6048 43.0941 66.2486 42.8938 65.8255C42.6934 65.3802 42.582 64.8904 42.582 64.4005C42.582 63.8884 42.6934 63.3763 42.9383 62.9087C43.1609 62.4857 43.5172 62.1294 43.9625 61.9068C44.3633 61.7064 44.8086 61.6173 45.2539 61.6396C45.8105 61.6173 46.3449 61.7509 46.8125 62.0626C46.9684 62.1739 47.1242 62.3298 47.2355 62.4857C47.4137 62.7306 47.3469 63.0868 47.102 63.2427C47.0352 63.2872 46.9684 63.3095 46.9016 63.3318C46.6789 63.3763 46.4563 63.265 46.3227 63.0868C46.2559 62.9755 46.1668 62.8864 46.0555 62.7974C45.8328 62.6415 45.5434 62.5525 45.2762 62.5747C44.8531 62.5525 44.4523 62.7083 44.1406 63.02C43.8512 63.3095 43.7176 63.7548 43.7176 64.356C43.7176 65.0017 43.8512 65.4693 44.1406 65.781C44.4301 66.0927 44.8309 66.2708 45.2539 66.2486C45.4766 66.2486 45.7215 66.204 45.9441 66.115C46.0777 66.0704 46.1891 66.0036 46.3227 65.9368C46.4563 65.8478 46.5453 65.7142 46.5453 65.5583C46.5453 65.3134 46.3449 65.113 46.1 65.113H45.766C45.4766 65.1353 45.2762 64.9349 45.2762 64.6677Z" fill="black"/>
<path d="M48.6382 66.6938V62.3298C48.6382 62.0403 48.8831 61.7954 49.1726 61.7954C49.462 61.7954 49.7069 62.0403 49.7069 62.3298V65.8032C49.7069 66.0259 49.8851 66.204 50.1077 66.204H51.9335C52.1784 66.204 52.3788 66.4044 52.3788 66.6493C52.3788 66.8942 52.1784 67.0946 51.9335 67.0946H49.039C48.8163 67.0946 48.6382 66.9165 48.6382 66.6938Z" fill="black"/>
<path d="M53.7148 61.751C54.0042 61.751 54.2492 61.9959 54.2492 62.2853V64.6455C54.2492 64.935 54.2492 65.2467 54.2937 65.5361C54.3382 65.7365 54.4495 65.9369 54.6277 66.0705C54.8281 66.2041 55.0953 66.2932 55.3402 66.2709C55.5851 66.2932 55.83 66.2264 56.0304 66.0928C56.1863 65.9814 56.2753 65.8256 56.3199 65.6252C56.3644 65.3135 56.3644 65.024 56.3644 64.7123V62.2853C56.3644 61.9959 56.6093 61.751 56.8988 61.751C57.1882 61.751 57.4331 61.9959 57.4331 62.2853V64.5564C57.4554 65.0018 57.4109 65.4693 57.3441 65.9146C57.2995 66.1596 57.1882 66.3822 57.0101 66.5826C56.832 66.783 56.6316 66.9166 56.3867 67.0279C56.0527 67.1393 55.6964 67.206 55.3624 67.1838C54.9617 67.206 54.5609 67.1393 54.2046 67.0057C53.9597 66.8943 53.737 66.7385 53.5812 66.5381C53.4253 66.36 53.3363 66.1596 53.2695 65.9369C53.1804 65.4916 53.1581 65.024 53.1581 64.5787V62.2853C53.1804 61.9736 53.4031 61.751 53.7148 61.751Z" fill="black"/>
<path d="M59.7933 66.5601V63.0644C59.7933 62.8417 59.6151 62.6636 59.3925 62.6636H58.6577C58.4128 62.6636 58.2124 62.4632 58.2124 62.2183C58.2124 61.9733 58.4128 61.7729 58.6577 61.7729H61.9976C62.2425 61.7729 62.4429 61.9733 62.4429 62.2183C62.4429 62.4632 62.2425 62.6636 61.9976 62.6636H61.2628C61.0401 62.6636 60.862 62.8417 60.862 63.0644V66.5601C60.862 66.8495 60.6171 67.0944 60.3276 67.0944C60.0159 67.0944 59.7933 66.8495 59.7933 66.5601Z" fill="black"/>
<path d="M63.1555 66.6939V62.1518C63.1555 61.9291 63.3336 61.751 63.5563 61.751H66.6735C66.9184 61.751 67.1188 61.9514 67.1188 62.1963C67.1188 62.4412 66.9184 62.6416 66.6735 62.6416H64.625C64.4024 62.6416 64.2243 62.8197 64.2243 63.0424V63.4209C64.2243 63.6436 64.4024 63.8217 64.625 63.8217H66.4508C66.6958 63.8217 66.8961 64.0221 66.8961 64.267C66.8961 64.5119 66.6958 64.7123 66.4508 64.7123H64.625C64.4024 64.7123 64.2243 64.8904 64.2243 65.1131V65.7588C64.2243 65.9814 64.4024 66.1596 64.625 66.1596H66.7626C67.0075 66.1596 67.2079 66.36 67.2079 66.6049C67.2079 66.8498 67.0075 67.0502 66.7626 67.0502H63.5563C63.3336 67.0947 63.1555 66.9166 63.1555 66.6939Z" fill="black"/>
<path d="M68.1429 66.5822V62.3963C68.1429 62.0178 68.4547 61.7283 68.8109 61.7283C69.0558 61.7283 69.2562 61.8396 69.3898 62.04L71.1933 64.9568C71.2156 65.0014 71.2824 65.0236 71.3492 65.0014C71.3937 64.9791 71.3937 64.9346 71.3937 64.9123V62.2182C71.3937 61.951 71.6164 61.7061 71.9058 61.7061C72.173 61.7061 72.4179 61.9287 72.4179 62.2182V66.3818C72.4179 66.7604 72.1062 67.0721 71.7277 67.0721C71.4828 67.0721 71.2601 66.9385 71.1265 66.7381L69.3676 63.8881C69.3453 63.8436 69.2785 63.8213 69.2117 63.8436C69.1894 63.8658 69.1672 63.8881 69.1672 63.9326V66.5377C69.1672 66.8049 68.9445 67.0498 68.6551 67.0498C68.3656 67.0943 68.1429 66.8717 68.1429 66.5822Z" fill="black"/>
<path d="M70.7926 76.3346H44.2074C44.0738 76.3346 43.9625 76.29 43.8734 76.2232C38.7078 72.26 35.5461 66.226 35.1898 59.7244C35.1676 59.4127 35.4125 59.1455 35.7242 59.1455H35.7465H79.298C79.6097 59.1455 79.8547 59.3904 79.8547 59.7021V59.7244C79.4984 66.226 76.3367 72.26 71.1711 76.2232C71.0375 76.29 70.9261 76.3346 70.7926 76.3346ZM44.3855 75.2213H70.6144C75.2679 71.5697 78.207 66.1592 78.6746 60.2588H36.3254C36.8152 66.1592 39.732 71.5697 44.3855 75.2213Z" fill="#231F20"/>
</g>
<defs>
<filter id="filter0_d" x="0" y="0" width="123" height="123" filterUnits="userSpaceOnUse" color-interpolation-filters="sRGB">
<feFlood flood-opacity="0" result="BackgroundImageFix"/>
<feColorMatrix in="SourceAlpha" type="matrix" values="0 0 0 0 0 0 0 0 0 0 0 0 0 0 0 0 0 0 127 0"/>
<feOffset dx="4" dy="4"/>
<feGaussianBlur stdDeviation="10"/>
<feColorMatrix type="matrix" values="0 0 0 0 0 0 0 0 0 0 0 0 0 0 0 0 0 0 0.15 0"/>
<feBlend mode="normal" in2="BackgroundImageFix" result="effect1_dropShadow"/>
<feBlend mode="normal" in="SourceGraphic" in2="effect1_dropShadow" result="shape"/>
</filter>
<clipPath id="clip0">
<rect width="57" height="57" fill="white" transform="translate(29 30)"/>
</clipPath>
</defs>
</svg>
