<svg width="123" height="123" viewBox="0 0 123 123" fill="none" xmlns="http://www.w3.org/2000/svg">
<g filter="url(#filter0_d)">
<circle cx="57.5" cy="57.5" r="41.5" fill="white"/>
</g>
<g clip-path="url(#clip0)">
<path d="M62.5476 40.089C61.4346 39.1915 60.0376 38.633 58.5123 38.5695C58.4153 38.565 58.3182 38.562 58.2204 38.562C58.1226 38.562 58.0255 38.565 57.9286 38.5693C56.4031 38.6328 55.0062 39.1914 53.8932 40.0889C47.894 44.4581 44.42 57.0593 44.42 62.7128C44.42 70.3345 50.5987 76.5132 58.2204 76.5132C65.8421 76.5132 72.0208 70.3345 72.0208 62.7128C72.0208 57.0593 68.5468 44.4581 62.5476 40.089Z" fill="#F0915A"/>
<path d="M57.9286 38.5693C56.4031 38.6328 55.0062 39.1914 53.8932 40.0889C47.894 44.4581 44.42 57.0593 44.42 62.7128C44.42 66.5236 47.5093 69.613 51.3202 69.613C55.1311 69.613 58.2204 66.5236 58.2204 62.7128L58.2204 38.562C58.1226 38.562 58.0255 38.565 57.9286 38.5693Z" fill="#FAB991"/>
<path d="M47.8701 63.5752C47.3938 63.5752 47.0076 63.189 47.0076 62.7126C47.0076 60.4395 47.7275 56.1874 49.3356 51.8119C50.9952 47.2969 53.2116 43.7864 55.4166 42.1805C55.8019 41.9 56.3412 41.985 56.6216 42.3699C56.9021 42.7551 56.8172 43.2945 56.4322 43.575C54.496 44.9851 52.4995 48.2043 50.9547 52.4071C49.4197 56.5834 48.7326 60.5923 48.7326 62.7126C48.7326 63.189 48.3464 63.5752 47.8701 63.5752Z" fill="#FFD7AF"/>
<path fill-rule="evenodd" clip-rule="evenodd" d="M84.1842 57.5247C84.1942 42.7882 72.2559 30.8337 57.5194 30.8238C42.7828 30.8138 30.8285 42.7521 30.8185 57.4886C30.8085 72.2251 42.7467 84.1796 57.4834 84.1895C72.2199 84.1995 84.1743 72.2612 84.1842 57.5247ZM71.2308 76.4955C62.783 82.6191 51.1714 82.4065 42.9427 75.8639C42.4959 75.5086 42.4619 74.8412 42.866 74.4378L74.4523 42.894C74.5275 42.8189 74.6119 42.7589 74.7017 42.714C74.7017 42.7141 74.7017 42.7141 74.7017 42.7141C75.0639 42.5331 75.5141 42.5966 75.8082 42.8937C75.8326 42.9184 75.856 42.9448 75.8782 42.9727C83.1742 52.1746 82.5659 65.5869 74.0569 74.0846C73.1673 74.9728 72.2237 75.7734 71.2374 76.4889C71.2352 76.4911 71.233 76.4933 71.2308 76.4955ZM72.4076 39.7492C72.4521 40.04 72.3633 40.3493 72.1368 40.5755L40.5505 72.1193C40.1466 72.5227 39.4793 72.4878 39.1246 72.0406C31.8284 62.8388 32.4367 49.4264 40.9458 40.9287C49.2125 32.6733 62.1076 31.881 71.2641 38.5438C71.2655 38.5452 71.267 38.5467 71.2684 38.5481C71.5353 38.7425 71.7996 38.9423 72.06 39.1494C72.1327 39.2072 72.1944 39.2732 72.2451 39.345C72.3313 39.4671 72.3856 39.6058 72.4075 39.7491C72.4076 39.7491 72.4076 39.7492 72.4076 39.7492Z" fill="#FF636E"/>
</g>
<defs>
<filter id="filter0_d" x="0" y="0" width="123" height="123" filterUnits="userSpaceOnUse" color-interpolation-filters="sRGB">
<feFlood flood-opacity="0" result="BackgroundImageFix"/>
<feColorMatrix in="SourceAlpha" type="matrix" values="0 0 0 0 0 0 0 0 0 0 0 0 0 0 0 0 0 0 127 0"/>
<feOffset dx="4" dy="4"/>
<feGaussianBlur stdDeviation="10"/>
<feColorMatrix type="matrix" values="0 0 0 0 0 0 0 0 0 0 0 0 0 0 0 0 0 0 0.15 0"/>
<feBlend mode="normal" in2="BackgroundImageFix" result="effect1_dropShadow"/>
<feBlend mode="normal" in="SourceGraphic" in2="effect1_dropShadow" result="shape"/>
</filter>
<clipPath id="clip0">
<rect width="54.9764" height="54.9764" fill="white" transform="matrix(-1 -0.000675364 -0.000675364 1 85.0135 30.0371)"/>
</clipPath>
</defs>
</svg>
