<svg width="415" height="76" viewBox="0 0 415 76" fill="none" xmlns="http://www.w3.org/2000/svg">
<g filter="url(#filter0_d)">
<path d="M16 34C16 24.0589 24.0589 16 34 16H219.238V52H34C24.0589 52 16 43.9411 16 34Z" fill="#4267B2"/>
<g clip-path="url(#clip0)">
<path d="M48.2358 26H34.0015C33.514 26.0002 33.1189 26.3956 33.119 26.8832V41.1176C33.1193 41.605 33.5146 42.0001 34.0022 42H48.2358C48.7235 42.0001 49.1189 41.6049 49.119 41.1172C49.119 41.1171 49.119 41.1169 49.119 41.1168V26.8824C49.1188 26.395 48.7234 25.9999 48.2358 26Z" fill="#4267B2"/>
<path d="M44.1659 42.0001V35.8126H46.2518L46.5643 33.3907H44.1659V31.8483C44.1659 31.1487 44.3601 30.672 45.3633 30.672H46.6346V28.5117C46.4135 28.4823 45.6545 28.4165 44.7715 28.4165C42.9277 28.4165 41.6659 29.5415 41.6659 31.6084V33.3907H39.5878V35.8126H41.6659V42.0001H44.1659Z" fill="white"/>
</g>
<path d="M65.5956 35.8418C65.4725 36.8945 65.0829 37.708 64.4266 38.2822C63.7749 38.8519 62.9068 39.1367 61.8221 39.1367C60.6464 39.1367 59.703 38.7152 58.9921 37.8721C58.2857 37.029 57.9325 35.901 57.9325 34.4883V33.5312C57.9325 32.6061 58.0966 31.7926 58.4247 31.0908C58.7574 30.389 59.2268 29.8512 59.8329 29.4775C60.439 29.0993 61.1408 28.9102 61.9384 28.9102C62.9956 28.9102 63.8433 29.2064 64.4813 29.7988C65.1193 30.3867 65.4908 31.2025 65.5956 32.2461H64.2762C64.1623 31.4531 63.9139 30.8789 63.5311 30.5234C63.1529 30.168 62.6219 29.9902 61.9384 29.9902C61.0998 29.9902 60.4413 30.3001 59.9628 30.9199C59.4888 31.5397 59.2518 32.4215 59.2518 33.5654V34.5293C59.2518 35.6094 59.4774 36.4684 59.9286 37.1064C60.3798 37.7445 61.0109 38.0635 61.8221 38.0635C62.5513 38.0635 63.1096 37.8994 63.4969 37.5713C63.8889 37.2386 64.1486 36.6621 64.2762 35.8418H65.5956ZM67.1102 35.2334C67.1102 34.5088 67.2515 33.8571 67.5341 33.2783C67.8212 32.6995 68.2177 32.2529 68.7235 31.9385C69.2339 31.624 69.815 31.4668 70.4667 31.4668C71.4738 31.4668 72.2873 31.8154 72.9071 32.5127C73.5315 33.21 73.8436 34.1374 73.8436 35.2949V35.3838C73.8436 36.1038 73.7046 36.751 73.4266 37.3252C73.1532 37.8949 72.759 38.3392 72.244 38.6582C71.7336 38.9772 71.1457 39.1367 70.4803 39.1367C69.4777 39.1367 68.6643 38.7881 68.0399 38.0908C67.4201 37.3936 67.1102 36.4707 67.1102 35.3223V35.2334ZM68.3817 35.3838C68.3817 36.2041 68.5708 36.8626 68.9491 37.3594C69.3319 37.8561 69.8423 38.1045 70.4803 38.1045C71.1229 38.1045 71.6333 37.8538 72.0116 37.3525C72.3899 36.8467 72.579 36.1403 72.579 35.2334C72.579 34.4222 72.3853 33.766 71.9979 33.2646C71.6151 32.7588 71.1047 32.5059 70.4667 32.5059C69.8423 32.5059 69.3387 32.7542 68.9559 33.251C68.5731 33.7477 68.3817 34.4587 68.3817 35.3838ZM76.8759 31.6035L76.9169 32.5332C77.482 31.8223 78.2203 31.4668 79.1317 31.4668C80.6949 31.4668 81.4833 32.3486 81.4969 34.1123V39H80.2323V34.1055C80.2277 33.5723 80.1047 33.1781 79.8632 32.9229C79.6262 32.6676 79.2548 32.54 78.7489 32.54C78.3387 32.54 77.9787 32.6494 77.6688 32.8682C77.3589 33.0869 77.1174 33.374 76.9442 33.7295V39H75.6796V31.6035H76.8759ZM86.7235 39.1367C85.7209 39.1367 84.9052 38.8086 84.2762 38.1523C83.6473 37.4915 83.3329 36.6097 83.3329 35.5068V35.2744C83.3329 34.5407 83.4719 33.8867 83.7499 33.3125C84.0324 32.7337 84.4244 32.2826 84.9257 31.959C85.4315 31.6309 85.9784 31.4668 86.5663 31.4668C87.5279 31.4668 88.2753 31.7835 88.8085 32.417C89.3417 33.0505 89.6083 33.9574 89.6083 35.1377V35.6641H84.5975C84.6158 36.3932 84.8277 36.9834 85.2333 37.4346C85.6434 37.8812 86.163 38.1045 86.7919 38.1045C87.2385 38.1045 87.6167 38.0133 87.9266 37.8311C88.2365 37.6488 88.5077 37.4072 88.7401 37.1064L89.5126 37.708C88.8928 38.6605 87.9631 39.1367 86.7235 39.1367ZM86.5663 32.5059C86.0559 32.5059 85.6275 32.6927 85.2811 33.0664C84.9348 33.4355 84.7206 33.9551 84.6385 34.625H88.3436V34.5293C88.3072 33.8867 88.134 33.39 87.8241 33.0391C87.5142 32.6836 87.0949 32.5059 86.5663 32.5059ZM94.2948 38.1045C94.746 38.1045 95.1402 37.9678 95.4774 37.6943C95.8147 37.4209 96.0015 37.0791 96.038 36.6689H97.2343C97.2115 37.0928 97.0656 37.4961 96.7968 37.8789C96.5279 38.2617 96.1678 38.5671 95.7167 38.7949C95.2701 39.0228 94.7961 39.1367 94.2948 39.1367C93.2876 39.1367 92.4856 38.8018 91.8885 38.1318C91.2961 37.4574 90.9999 36.5368 90.9999 35.3701V35.1582C90.9999 34.4382 91.132 33.7979 91.3964 33.2373C91.6607 32.6768 92.0389 32.2415 92.5311 31.9316C93.0279 31.6217 93.6135 31.4668 94.288 31.4668C95.1174 31.4668 95.8055 31.7152 96.3524 32.2119C96.9038 32.7087 97.1978 33.3535 97.2343 34.1465H96.038C96.0015 33.668 95.8192 33.276 95.4911 32.9707C95.1675 32.6608 94.7665 32.5059 94.288 32.5059C93.6454 32.5059 93.1464 32.7383 92.7909 33.2031C92.44 33.6634 92.2645 34.3311 92.2645 35.2061V35.4453C92.2645 36.2975 92.44 36.9538 92.7909 37.4141C93.1418 37.8743 93.6431 38.1045 94.2948 38.1045ZM100.622 29.8125V31.6035H102.003V32.5811H100.622V37.168C100.622 37.4642 100.683 37.6875 100.807 37.8379C100.93 37.9837 101.139 38.0566 101.435 38.0566C101.581 38.0566 101.782 38.0293 102.037 37.9746V39C101.704 39.0911 101.381 39.1367 101.066 39.1367C100.501 39.1367 100.075 38.9658 99.788 38.624C99.5009 38.2822 99.3573 37.7969 99.3573 37.168V32.5811H98.0106V31.6035H99.3573V29.8125H100.622ZM108.303 39C108.23 38.8542 108.17 38.5944 108.125 38.2207C107.537 38.8314 106.835 39.1367 106.019 39.1367C105.29 39.1367 104.691 38.9316 104.222 38.5215C103.757 38.1068 103.524 37.5827 103.524 36.9492C103.524 36.179 103.816 35.582 104.399 35.1582C104.987 34.7298 105.812 34.5156 106.874 34.5156H108.104V33.9346C108.104 33.4925 107.972 33.1416 107.708 32.8818C107.444 32.6175 107.054 32.4854 106.539 32.4854C106.088 32.4854 105.71 32.5993 105.404 32.8271C105.099 33.055 104.946 33.3307 104.946 33.6543H103.675C103.675 33.2852 103.805 32.9297 104.064 32.5879C104.329 32.2415 104.684 31.9681 105.131 31.7676C105.582 31.5671 106.076 31.4668 106.614 31.4668C107.466 31.4668 108.134 31.681 108.617 32.1094C109.1 32.5332 109.351 33.1188 109.369 33.8662V37.2705C109.369 37.9495 109.456 38.4896 109.629 38.8906V39H108.303ZM106.204 38.0361C106.6 38.0361 106.976 37.9336 107.332 37.7285C107.687 37.5234 107.945 37.2568 108.104 36.9287V35.4111H107.113C105.564 35.4111 104.789 35.8646 104.789 36.7715C104.789 37.168 104.921 37.4779 105.185 37.7012C105.45 37.9245 105.789 38.0361 106.204 38.0361ZM118.291 38.1045C118.742 38.1045 119.136 37.9678 119.474 37.6943C119.811 37.4209 119.998 37.0791 120.034 36.6689H121.23C121.208 37.0928 121.062 37.4961 120.793 37.8789C120.524 38.2617 120.164 38.5671 119.713 38.7949C119.266 39.0228 118.792 39.1367 118.291 39.1367C117.284 39.1367 116.482 38.8018 115.885 38.1318C115.292 37.4574 114.996 36.5368 114.996 35.3701V35.1582C114.996 34.4382 115.128 33.7979 115.392 33.2373C115.657 32.6768 116.035 32.2415 116.527 31.9316C117.024 31.6217 117.61 31.4668 118.284 31.4668C119.113 31.4668 119.802 31.7152 120.349 32.2119C120.9 32.7087 121.194 33.3535 121.23 34.1465H120.034C119.998 33.668 119.815 33.276 119.487 32.9707C119.164 32.6608 118.763 32.5059 118.284 32.5059C117.641 32.5059 117.142 32.7383 116.787 33.2031C116.436 33.6634 116.261 34.3311 116.261 35.2061V35.4453C116.261 36.2975 116.436 36.9538 116.787 37.4141C117.138 37.8743 117.639 38.1045 118.291 38.1045ZM122.567 35.2334C122.567 34.5088 122.709 33.8571 122.991 33.2783C123.278 32.6995 123.675 32.2529 124.181 31.9385C124.691 31.624 125.272 31.4668 125.924 31.4668C126.931 31.4668 127.744 31.8154 128.364 32.5127C128.988 33.21 129.301 34.1374 129.301 35.2949V35.3838C129.301 36.1038 129.162 36.751 128.884 37.3252C128.61 37.8949 128.216 38.3392 127.701 38.6582C127.191 38.9772 126.603 39.1367 125.937 39.1367C124.935 39.1367 124.121 38.7881 123.497 38.0908C122.877 37.3936 122.567 36.4707 122.567 35.3223V35.2334ZM123.839 35.3838C123.839 36.2041 124.028 36.8626 124.406 37.3594C124.789 37.8561 125.299 38.1045 125.937 38.1045C126.58 38.1045 127.09 37.8538 127.469 37.3525C127.847 36.8467 128.036 36.1403 128.036 35.2334C128.036 34.4222 127.842 33.766 127.455 33.2646C127.072 32.7588 126.562 32.5059 125.924 32.5059C125.299 32.5059 124.796 32.7542 124.413 33.251C124.03 33.7477 123.839 34.4587 123.839 35.3838ZM132.333 31.6035L132.374 32.5332C132.939 31.8223 133.677 31.4668 134.589 31.4668C136.152 31.4668 136.94 32.3486 136.954 34.1123V39H135.689V34.1055C135.685 33.5723 135.562 33.1781 135.32 32.9229C135.083 32.6676 134.712 32.54 134.206 32.54C133.796 32.54 133.436 32.6494 133.126 32.8682C132.816 33.0869 132.574 33.374 132.401 33.7295V39H131.137V31.6035H132.333ZM143.456 39V32.5811H142.287V31.6035H143.456V30.8447C143.456 30.0518 143.668 29.4388 144.092 29.0059C144.516 28.5729 145.115 28.3564 145.89 28.3564C146.181 28.3564 146.471 28.3952 146.758 28.4727L146.689 29.498C146.475 29.457 146.247 29.4365 146.006 29.4365C145.596 29.4365 145.279 29.5573 145.056 29.7988C144.832 30.0358 144.721 30.3776 144.721 30.8242V31.6035H146.3V32.5811H144.721V39H143.456ZM152.517 39C152.445 38.8542 152.385 38.5944 152.34 38.2207C151.752 38.8314 151.05 39.1367 150.234 39.1367C149.505 39.1367 148.906 38.9316 148.436 38.5215C147.972 38.1068 147.739 37.5827 147.739 36.9492C147.739 36.179 148.031 35.582 148.614 35.1582C149.202 34.7298 150.027 34.5156 151.089 34.5156H152.319V33.9346C152.319 33.4925 152.187 33.1416 151.923 32.8818C151.658 32.6175 151.269 32.4854 150.754 32.4854C150.303 32.4854 149.924 32.5993 149.619 32.8271C149.314 33.055 149.161 33.3307 149.161 33.6543H147.89C147.89 33.2852 148.019 32.9297 148.279 32.5879C148.543 32.2415 148.899 31.9681 149.346 31.7676C149.797 31.5671 150.291 31.4668 150.829 31.4668C151.681 31.4668 152.349 31.681 152.832 32.1094C153.315 32.5332 153.566 33.1188 153.584 33.8662V37.2705C153.584 37.9495 153.67 38.4896 153.844 38.8906V39H152.517ZM150.419 38.0361C150.815 38.0361 151.191 37.9336 151.547 37.7285C151.902 37.5234 152.16 37.2568 152.319 36.9287V35.4111H151.328C149.779 35.4111 149.004 35.8646 149.004 36.7715C149.004 37.168 149.136 37.4779 149.4 37.7012C149.665 37.9245 150.004 38.0361 150.419 38.0361ZM158.783 38.1045C159.234 38.1045 159.628 37.9678 159.966 37.6943C160.303 37.4209 160.49 37.0791 160.526 36.6689H161.723C161.7 37.0928 161.554 37.4961 161.285 37.8789C161.016 38.2617 160.656 38.5671 160.205 38.7949C159.758 39.0228 159.284 39.1367 158.783 39.1367C157.776 39.1367 156.974 38.8018 156.377 38.1318C155.784 37.4574 155.488 36.5368 155.488 35.3701V35.1582C155.488 34.4382 155.62 33.7979 155.885 33.2373C156.149 32.6768 156.527 32.2415 157.019 31.9316C157.516 31.6217 158.102 31.4668 158.776 31.4668C159.606 31.4668 160.294 31.7152 160.841 32.2119C161.392 32.7087 161.686 33.3535 161.723 34.1465H160.526C160.49 33.668 160.307 33.276 159.979 32.9707C159.656 32.6608 159.255 32.5059 158.776 32.5059C158.134 32.5059 157.635 32.7383 157.279 33.2031C156.928 33.6634 156.753 34.3311 156.753 35.2061V35.4453C156.753 36.2975 156.928 36.9538 157.279 37.4141C157.63 37.8743 158.131 38.1045 158.783 38.1045ZM166.464 39.1367C165.461 39.1367 164.645 38.8086 164.016 38.1523C163.388 37.4915 163.073 36.6097 163.073 35.5068V35.2744C163.073 34.5407 163.212 33.8867 163.49 33.3125C163.773 32.7337 164.165 32.2826 164.666 31.959C165.172 31.6309 165.719 31.4668 166.307 31.4668C167.268 31.4668 168.016 31.7835 168.549 32.417C169.082 33.0505 169.349 33.9574 169.349 35.1377V35.6641H164.338C164.356 36.3932 164.568 36.9834 164.974 37.4346C165.384 37.8812 165.903 38.1045 166.532 38.1045C166.979 38.1045 167.357 38.0133 167.667 37.8311C167.977 37.6488 168.248 37.4072 168.48 37.1064L169.253 37.708C168.633 38.6605 167.703 39.1367 166.464 39.1367ZM166.307 32.5059C165.796 32.5059 165.368 32.6927 165.021 33.0664C164.675 33.4355 164.461 33.9551 164.379 34.625H168.084V34.5293C168.047 33.8867 167.874 33.39 167.564 33.0391C167.254 32.6836 166.835 32.5059 166.307 32.5059ZM177.33 35.3838C177.33 36.514 177.07 37.4232 176.551 38.1113C176.031 38.7949 175.334 39.1367 174.459 39.1367C173.525 39.1367 172.802 38.8063 172.292 38.1455L172.23 39H171.068V28.5H172.333V32.417C172.843 31.7835 173.547 31.4668 174.445 31.4668C175.343 31.4668 176.047 31.8063 176.557 32.4854C177.072 33.1644 177.33 34.0941 177.33 35.2744V35.3838ZM176.065 35.2402C176.065 34.3789 175.899 33.7135 175.566 33.2441C175.234 32.7747 174.755 32.54 174.131 32.54C173.297 32.54 172.697 32.9274 172.333 33.7021V36.9014C172.72 37.6761 173.324 38.0635 174.144 38.0635C174.751 38.0635 175.222 37.8288 175.559 37.3594C175.897 36.89 176.065 36.1836 176.065 35.2402ZM178.845 35.2334C178.845 34.5088 178.986 33.8571 179.268 33.2783C179.556 32.6995 179.952 32.2529 180.458 31.9385C180.968 31.624 181.549 31.4668 182.201 31.4668C183.208 31.4668 184.022 31.8154 184.641 32.5127C185.266 33.21 185.578 34.1374 185.578 35.2949V35.3838C185.578 36.1038 185.439 36.751 185.161 37.3252C184.888 37.8949 184.493 38.3392 183.978 38.6582C183.468 38.9772 182.88 39.1367 182.215 39.1367C181.212 39.1367 180.399 38.7881 179.774 38.0908C179.155 37.3936 178.845 36.4707 178.845 35.3223V35.2334ZM180.116 35.3838C180.116 36.2041 180.305 36.8626 180.683 37.3594C181.066 37.8561 181.577 38.1045 182.215 38.1045C182.857 38.1045 183.368 37.8538 183.746 37.3525C184.124 36.8467 184.313 36.1403 184.313 35.2334C184.313 34.4222 184.12 33.766 183.732 33.2646C183.349 32.7588 182.839 32.5059 182.201 32.5059C181.577 32.5059 181.073 32.7542 180.69 33.251C180.307 33.7477 180.116 34.4587 180.116 35.3838ZM187.079 35.2334C187.079 34.5088 187.22 33.8571 187.503 33.2783C187.79 32.6995 188.186 32.2529 188.692 31.9385C189.203 31.624 189.784 31.4668 190.435 31.4668C191.443 31.4668 192.256 31.8154 192.876 32.5127C193.5 33.21 193.812 34.1374 193.812 35.2949V35.3838C193.812 36.1038 193.673 36.751 193.395 37.3252C193.122 37.8949 192.728 38.3392 192.213 38.6582C191.702 38.9772 191.114 39.1367 190.449 39.1367C189.446 39.1367 188.633 38.7881 188.009 38.0908C187.389 37.3936 187.079 36.4707 187.079 35.3223V35.2334ZM188.35 35.3838C188.35 36.2041 188.54 36.8626 188.918 37.3594C189.301 37.8561 189.811 38.1045 190.449 38.1045C191.092 38.1045 191.602 37.8538 191.98 37.3525C192.359 36.8467 192.548 36.1403 192.548 35.2334C192.548 34.4222 192.354 33.766 191.967 33.2646C191.584 32.7588 191.073 32.5059 190.435 32.5059C189.811 32.5059 189.307 32.7542 188.925 33.251C188.542 33.7477 188.35 34.4587 188.35 35.3838ZM197.713 35.5752L196.92 36.4023V39H195.655V28.5H196.92V34.8506L197.597 34.0371L199.9 31.6035H201.438L198.56 34.6934L201.773 39H200.29L197.713 35.5752Z" fill="white"/>
</g>
<g filter="url(#filter1_d)">
<path d="M390.84 34C390.84 24.0589 382.781 16 372.84 16H216.84V52H372.84C382.781 52 390.84 43.9411 390.84 34Z" fill="white"/>
<path d="M257.316 35.8418C257.193 36.8945 256.803 37.708 256.147 38.2822C255.496 38.8519 254.627 39.1367 253.543 39.1367C252.367 39.1367 251.424 38.7152 250.713 37.8721C250.006 37.029 249.653 35.901 249.653 34.4883V33.5312C249.653 32.6061 249.817 31.7926 250.145 31.0908C250.478 30.389 250.947 29.8512 251.553 29.4775C252.16 29.0993 252.861 28.9102 253.659 28.9102C254.716 28.9102 255.564 29.2064 256.202 29.7988C256.84 30.3867 257.211 31.2025 257.316 32.2461H255.997C255.883 31.4531 255.635 30.8789 255.252 30.5234C254.873 30.168 254.343 29.9902 253.659 29.9902C252.82 29.9902 252.162 30.3001 251.683 30.9199C251.209 31.5397 250.972 32.4215 250.972 33.5654V34.5293C250.972 35.6094 251.198 36.4684 251.649 37.1064C252.1 37.7445 252.732 38.0635 253.543 38.0635C254.272 38.0635 254.83 37.8994 255.218 37.5713C255.609 37.2386 255.869 36.6621 255.997 35.8418H257.316ZM258.831 35.2334C258.831 34.5088 258.972 33.8571 259.255 33.2783C259.542 32.6995 259.938 32.2529 260.444 31.9385C260.955 31.624 261.536 31.4668 262.187 31.4668C263.194 31.4668 264.008 31.8154 264.628 32.5127C265.252 33.21 265.564 34.1374 265.564 35.2949V35.3838C265.564 36.1038 265.425 36.751 265.147 37.3252C264.874 37.8949 264.48 38.3392 263.965 38.6582C263.454 38.9772 262.866 39.1367 262.201 39.1367C261.198 39.1367 260.385 38.7881 259.76 38.0908C259.141 37.3936 258.831 36.4707 258.831 35.3223V35.2334ZM260.102 35.3838C260.102 36.2041 260.291 36.8626 260.67 37.3594C261.052 37.8561 261.563 38.1045 262.201 38.1045C262.844 38.1045 263.354 37.8538 263.732 37.3525C264.11 36.8467 264.3 36.1403 264.3 35.2334C264.3 34.4222 264.106 33.766 263.719 33.2646C263.336 32.7588 262.825 32.5059 262.187 32.5059C261.563 32.5059 261.059 32.7542 260.677 33.251C260.294 33.7477 260.102 34.4587 260.102 35.3838ZM268.596 31.6035L268.637 32.5332C269.203 31.8223 269.941 31.4668 270.852 31.4668C272.415 31.4668 273.204 32.3486 273.218 34.1123V39H271.953V34.1055C271.948 33.5723 271.825 33.1781 271.584 32.9229C271.347 32.6676 270.975 32.54 270.469 32.54C270.059 32.54 269.699 32.6494 269.389 32.8682C269.08 33.0869 268.838 33.374 268.665 33.7295V39H267.4V31.6035H268.596ZM278.444 39.1367C277.441 39.1367 276.626 38.8086 275.997 38.1523C275.368 37.4915 275.053 36.6097 275.053 35.5068V35.2744C275.053 34.5407 275.192 33.8867 275.47 33.3125C275.753 32.7337 276.145 32.2826 276.646 31.959C277.152 31.6309 277.699 31.4668 278.287 31.4668C279.248 31.4668 279.996 31.7835 280.529 32.417C281.062 33.0505 281.329 33.9574 281.329 35.1377V35.6641H276.318C276.336 36.3932 276.548 36.9834 276.954 37.4346C277.364 37.8812 277.884 38.1045 278.512 38.1045C278.959 38.1045 279.337 38.0133 279.647 37.8311C279.957 37.6488 280.228 37.4072 280.461 37.1064L281.233 37.708C280.613 38.6605 279.684 39.1367 278.444 39.1367ZM278.287 32.5059C277.776 32.5059 277.348 32.6927 277.002 33.0664C276.655 33.4355 276.441 33.9551 276.359 34.625H280.064V34.5293C280.028 33.8867 279.855 33.39 279.545 33.0391C279.235 32.6836 278.816 32.5059 278.287 32.5059ZM286.015 38.1045C286.467 38.1045 286.861 37.9678 287.198 37.6943C287.535 37.4209 287.722 37.0791 287.759 36.6689H288.955C288.932 37.0928 288.786 37.4961 288.517 37.8789C288.248 38.2617 287.888 38.5671 287.437 38.7949C286.991 39.0228 286.517 39.1367 286.015 39.1367C285.008 39.1367 284.206 38.8018 283.609 38.1318C283.017 37.4574 282.72 36.5368 282.72 35.3701V35.1582C282.72 34.4382 282.853 33.7979 283.117 33.2373C283.381 32.6768 283.76 32.2415 284.252 31.9316C284.748 31.6217 285.334 31.4668 286.009 31.4668C286.838 31.4668 287.526 31.7152 288.073 32.2119C288.624 32.7087 288.918 33.3535 288.955 34.1465H287.759C287.722 33.668 287.54 33.276 287.212 32.9707C286.888 32.6608 286.487 32.5059 286.009 32.5059C285.366 32.5059 284.867 32.7383 284.511 33.2031C284.161 33.6634 283.985 34.3311 283.985 35.2061V35.4453C283.985 36.2975 284.161 36.9538 284.511 37.4141C284.862 37.8743 285.364 38.1045 286.015 38.1045ZM292.343 29.8125V31.6035H293.723V32.5811H292.343V37.168C292.343 37.4642 292.404 37.6875 292.527 37.8379C292.65 37.9837 292.86 38.0566 293.156 38.0566C293.302 38.0566 293.502 38.0293 293.758 37.9746V39C293.425 39.0911 293.101 39.1367 292.787 39.1367C292.222 39.1367 291.796 38.9658 291.509 38.624C291.221 38.2822 291.078 37.7969 291.078 37.168V32.5811H289.731V31.6035H291.078V29.8125H292.343ZM300.023 39C299.95 38.8542 299.891 38.5944 299.845 38.2207C299.258 38.8314 298.556 39.1367 297.74 39.1367C297.011 39.1367 296.412 38.9316 295.942 38.5215C295.477 38.1068 295.245 37.5827 295.245 36.9492C295.245 36.179 295.537 35.582 296.12 35.1582C296.708 34.7298 297.533 34.5156 298.594 34.5156H299.825V33.9346C299.825 33.4925 299.693 33.1416 299.428 32.8818C299.164 32.6175 298.774 32.4854 298.26 32.4854C297.808 32.4854 297.43 32.5993 297.125 32.8271C296.819 33.055 296.667 33.3307 296.667 33.6543H295.395C295.395 33.2852 295.525 32.9297 295.785 32.5879C296.049 32.2415 296.405 31.9681 296.851 31.7676C297.302 31.5671 297.797 31.4668 298.335 31.4668C299.187 31.4668 299.855 31.681 300.338 32.1094C300.821 32.5332 301.071 33.1188 301.09 33.8662V37.2705C301.09 37.9495 301.176 38.4896 301.349 38.8906V39H300.023ZM297.925 38.0361C298.321 38.0361 298.697 37.9336 299.052 37.7285C299.408 37.5234 299.665 37.2568 299.825 36.9287V35.4111H298.834C297.284 35.4111 296.51 35.8646 296.51 36.7715C296.51 37.168 296.642 37.4779 296.906 37.7012C297.17 37.9245 297.51 38.0361 297.925 38.0361ZM310.011 38.1045C310.463 38.1045 310.857 37.9678 311.194 37.6943C311.531 37.4209 311.718 37.0791 311.755 36.6689H312.951C312.928 37.0928 312.782 37.4961 312.513 37.8789C312.245 38.2617 311.885 38.5671 311.433 38.7949C310.987 39.0228 310.513 39.1367 310.011 39.1367C309.004 39.1367 308.202 38.8018 307.605 38.1318C307.013 37.4574 306.717 36.5368 306.717 35.3701V35.1582C306.717 34.4382 306.849 33.7979 307.113 33.2373C307.377 32.6768 307.756 32.2415 308.248 31.9316C308.745 31.6217 309.33 31.4668 310.005 31.4668C310.834 31.4668 311.522 31.7152 312.069 32.2119C312.621 32.7087 312.914 33.3535 312.951 34.1465H311.755C311.718 33.668 311.536 33.276 311.208 32.9707C310.884 32.6608 310.483 32.5059 310.005 32.5059C309.362 32.5059 308.863 32.7383 308.508 33.2031C308.157 33.6634 307.981 34.3311 307.981 35.2061V35.4453C307.981 36.2975 308.157 36.9538 308.508 37.4141C308.858 37.8743 309.36 38.1045 310.011 38.1045ZM314.288 35.2334C314.288 34.5088 314.429 33.8571 314.712 33.2783C314.999 32.6995 315.395 32.2529 315.901 31.9385C316.412 31.624 316.993 31.4668 317.644 31.4668C318.651 31.4668 319.465 31.8154 320.085 32.5127C320.709 33.21 321.021 34.1374 321.021 35.2949V35.3838C321.021 36.1038 320.882 36.751 320.604 37.3252C320.331 37.8949 319.937 38.3392 319.422 38.6582C318.911 38.9772 318.323 39.1367 317.658 39.1367C316.655 39.1367 315.842 38.7881 315.218 38.0908C314.598 37.3936 314.288 36.4707 314.288 35.3223V35.2334ZM315.559 35.3838C315.559 36.2041 315.748 36.8626 316.127 37.3594C316.51 37.8561 317.02 38.1045 317.658 38.1045C318.301 38.1045 318.811 37.8538 319.189 37.3525C319.567 36.8467 319.757 36.1403 319.757 35.2334C319.757 34.4222 319.563 33.766 319.176 33.2646C318.793 32.7588 318.282 32.5059 317.644 32.5059C317.02 32.5059 316.516 32.7542 316.134 33.251C315.751 33.7477 315.559 34.4587 315.559 35.3838ZM324.053 31.6035L324.094 32.5332C324.66 31.8223 325.398 31.4668 326.309 31.4668C327.872 31.4668 328.661 32.3486 328.675 34.1123V39H327.41V34.1055C327.405 33.5723 327.282 33.1781 327.041 32.9229C326.804 32.6676 326.432 32.54 325.927 32.54C325.516 32.54 325.156 32.6494 324.846 32.8682C324.537 33.0869 324.295 33.374 324.122 33.7295V39H322.857V31.6035H324.053ZM345.824 37.6943C345.487 38.1774 345.015 38.5397 344.409 38.7812C343.807 39.0182 343.106 39.1367 342.303 39.1367C341.492 39.1367 340.772 38.9476 340.143 38.5693C339.514 38.1865 339.027 37.6442 338.68 36.9424C338.339 36.2406 338.163 35.4271 338.154 34.502V33.6338C338.154 32.1344 338.503 30.9723 339.2 30.1475C339.902 29.3226 340.886 28.9102 342.153 28.9102C343.192 28.9102 344.028 29.1768 344.662 29.71C345.295 30.2386 345.683 30.9906 345.824 31.9658H344.511C344.265 30.6488 343.482 29.9902 342.16 29.9902C341.28 29.9902 340.613 30.3001 340.157 30.9199C339.706 31.5352 339.478 32.4284 339.473 33.5996V34.4131C339.473 35.5296 339.729 36.4183 340.239 37.0791C340.749 37.7354 341.44 38.0635 342.31 38.0635C342.802 38.0635 343.233 38.0088 343.602 37.8994C343.971 37.79 344.277 37.6055 344.518 37.3457V35.1104H342.215V34.0439H345.824V37.6943ZM347.735 35.2334C347.735 34.5088 347.876 33.8571 348.159 33.2783C348.446 32.6995 348.843 32.2529 349.348 31.9385C349.859 31.624 350.44 31.4668 351.092 31.4668C352.099 31.4668 352.912 31.8154 353.532 32.5127C354.156 33.21 354.469 34.1374 354.469 35.2949V35.3838C354.469 36.1038 354.33 36.751 354.052 37.3252C353.778 37.8949 353.384 38.3392 352.869 38.6582C352.358 38.9772 351.771 39.1367 351.105 39.1367C350.103 39.1367 349.289 38.7881 348.665 38.0908C348.045 37.3936 347.735 36.4707 347.735 35.3223V35.2334ZM349.007 35.3838C349.007 36.2041 349.196 36.8626 349.574 37.3594C349.957 37.8561 350.467 38.1045 351.105 38.1045C351.748 38.1045 352.258 37.8538 352.636 37.3525C353.015 36.8467 353.204 36.1403 353.204 35.2334C353.204 34.4222 353.01 33.766 352.623 33.2646C352.24 32.7588 351.73 32.5059 351.092 32.5059C350.467 32.5059 349.964 32.7542 349.581 33.251C349.198 33.7477 349.007 34.4587 349.007 35.3838ZM355.969 35.2334C355.969 34.5088 356.111 33.8571 356.393 33.2783C356.68 32.6995 357.077 32.2529 357.583 31.9385C358.093 31.624 358.674 31.4668 359.326 31.4668C360.333 31.4668 361.147 31.8154 361.766 32.5127C362.391 33.21 362.703 34.1374 362.703 35.2949V35.3838C362.703 36.1038 362.564 36.751 362.286 37.3252C362.012 37.8949 361.618 38.3392 361.103 38.6582C360.593 38.9772 360.005 39.1367 359.34 39.1367C358.337 39.1367 357.524 38.7881 356.899 38.0908C356.279 37.3936 355.969 36.4707 355.969 35.3223V35.2334ZM357.241 35.3838C357.241 36.2041 357.43 36.8626 357.808 37.3594C358.191 37.8561 358.702 38.1045 359.34 38.1045C359.982 38.1045 360.493 37.8538 360.871 37.3525C361.249 36.8467 361.438 36.1403 361.438 35.2334C361.438 34.4222 361.245 33.766 360.857 33.2646C360.474 32.7588 359.964 32.5059 359.326 32.5059C358.702 32.5059 358.198 32.7542 357.815 33.251C357.432 33.7477 357.241 34.4587 357.241 35.3838ZM364.238 35.2402C364.238 34.0872 364.505 33.1712 365.038 32.4922C365.571 31.8086 366.277 31.4668 367.157 31.4668C368.059 31.4668 368.763 31.7858 369.269 32.4238L369.331 31.6035H370.486V38.8223C370.486 39.7793 370.201 40.5335 369.632 41.085C369.066 41.6364 368.305 41.9121 367.348 41.9121C366.815 41.9121 366.293 41.7982 365.783 41.5703C365.273 41.3424 364.883 41.0303 364.614 40.6338L365.27 39.875C365.813 40.5449 366.476 40.8799 367.26 40.8799C367.875 40.8799 368.353 40.7067 368.695 40.3604C369.041 40.014 369.215 39.5264 369.215 38.8975V38.2617C368.709 38.8451 368.018 39.1367 367.143 39.1367C366.277 39.1367 365.576 38.7881 365.038 38.0908C364.505 37.3936 364.238 36.4434 364.238 35.2402ZM365.51 35.3838C365.51 36.2178 365.68 36.874 366.022 37.3525C366.364 37.8265 366.843 38.0635 367.458 38.0635C368.255 38.0635 368.841 37.7012 369.215 36.9766V33.5996C368.827 32.8932 368.246 32.54 367.471 32.54C366.856 32.54 366.375 32.7793 366.029 33.2578C365.683 33.7363 365.51 34.445 365.51 35.3838ZM374.024 39H372.76V28.5H374.024V39ZM379.374 39.1367C378.371 39.1367 377.555 38.8086 376.927 38.1523C376.298 37.4915 375.983 36.6097 375.983 35.5068V35.2744C375.983 34.5407 376.122 33.8867 376.4 33.3125C376.683 32.7337 377.075 32.2826 377.576 31.959C378.082 31.6309 378.629 31.4668 379.217 31.4668C380.178 31.4668 380.926 31.7835 381.459 32.417C381.992 33.0505 382.259 33.9574 382.259 35.1377V35.6641H377.248C377.266 36.3932 377.478 36.9834 377.884 37.4346C378.294 37.8812 378.813 38.1045 379.442 38.1045C379.889 38.1045 380.267 38.0133 380.577 37.8311C380.887 37.6488 381.158 37.4072 381.39 37.1064L382.163 37.708C381.543 38.6605 380.613 39.1367 379.374 39.1367ZM379.217 32.5059C378.706 32.5059 378.278 32.6927 377.931 33.0664C377.585 33.4355 377.371 33.9551 377.289 34.625H380.994V34.5293C380.957 33.8867 380.784 33.39 380.474 33.0391C380.164 32.6836 379.745 32.5059 379.217 32.5059Z" fill="#333333"/>
<g clip-path="url(#clip1)">
<path d="M240.236 32.6092L233.709 32.6089C233.421 32.6089 233.188 32.8424 233.188 33.1306V35.2155C233.188 35.5036 233.421 35.7372 233.709 35.7372H237.384C236.982 36.7816 236.231 37.6563 235.273 38.212L236.84 40.9248C239.353 39.471 240.84 36.9201 240.84 34.0645C240.84 33.6579 240.81 33.3673 240.75 33.04C240.704 32.7913 240.488 32.6092 240.236 32.6092Z" fill="#167EE6"/>
<path d="M232.84 38.8695C231.041 38.8695 229.471 37.8868 228.628 36.4326L225.915 37.9962C227.295 40.3887 229.881 41.9999 232.84 41.9999C234.291 41.9999 235.66 41.6092 236.84 40.9283V40.9246L235.272 38.2117C234.556 38.6275 233.726 38.8695 232.84 38.8695Z" fill="#12B347"/>
<path d="M236.84 40.9284V40.9247L235.273 38.2119C234.556 38.6276 233.726 38.8696 232.84 38.8696V42.0001C234.291 42.0001 235.66 41.6094 236.84 40.9284Z" fill="#0F993E"/>
<path d="M227.97 34.0002C227.97 33.1137 228.212 32.2842 228.628 31.5675L225.915 30.0039C225.23 31.1797 224.84 32.5453 224.84 34.0002C224.84 35.4551 225.23 36.8206 225.915 37.9965L228.628 36.4329C228.212 35.7161 227.97 34.8867 227.97 34.0002Z" fill="#FFD500"/>
<path d="M232.84 29.1304C234.012 29.1304 235.09 29.5472 235.931 30.2404C236.139 30.4114 236.441 30.3991 236.631 30.2089L238.108 28.7317C238.324 28.516 238.308 28.1628 238.078 27.9629C236.668 26.7398 234.834 26 232.84 26C229.881 26 227.295 27.6112 225.915 30.0037L228.628 31.5673C229.471 30.1131 231.041 29.1304 232.84 29.1304Z" fill="#FF4B26"/>
<path d="M235.931 30.2404C236.139 30.4114 236.441 30.3991 236.631 30.2089L238.108 28.7317C238.324 28.516 238.308 28.1628 238.078 27.9629C236.668 26.7398 234.834 26 232.84 26V29.1304C234.012 29.1304 235.09 29.5472 235.931 30.2404Z" fill="#D93F21"/>
</g>
</g>
<defs>
<filter id="filter0_d" x="0" y="0" width="243.238" height="76" filterUnits="userSpaceOnUse" color-interpolation-filters="sRGB">
<feFlood flood-opacity="0" result="BackgroundImageFix"/>
<feColorMatrix in="SourceAlpha" type="matrix" values="0 0 0 0 0 0 0 0 0 0 0 0 0 0 0 0 0 0 127 0"/>
<feOffset dx="4" dy="4"/>
<feGaussianBlur stdDeviation="10"/>
<feColorMatrix type="matrix" values="0 0 0 0 0 0 0 0 0 0 0 0 0 0 0 0 0 0 0.15 0"/>
<feBlend mode="normal" in2="BackgroundImageFix" result="effect1_dropShadow"/>
<feBlend mode="normal" in="SourceGraphic" in2="effect1_dropShadow" result="shape"/>
</filter>
<filter id="filter1_d" x="200.84" y="0" width="214" height="76" filterUnits="userSpaceOnUse" color-interpolation-filters="sRGB">
<feFlood flood-opacity="0" result="BackgroundImageFix"/>
<feColorMatrix in="SourceAlpha" type="matrix" values="0 0 0 0 0 0 0 0 0 0 0 0 0 0 0 0 0 0 127 0"/>
<feOffset dx="4" dy="4"/>
<feGaussianBlur stdDeviation="10"/>
<feColorMatrix type="matrix" values="0 0 0 0 0 0 0 0 0 0 0 0 0 0 0 0 0 0 0.15 0"/>
<feBlend mode="normal" in2="BackgroundImageFix" result="effect1_dropShadow"/>
<feBlend mode="normal" in="SourceGraphic" in2="effect1_dropShadow" result="shape"/>
</filter>
<clipPath id="clip0">
<rect width="16" height="16" fill="white" transform="translate(33.119 26)"/>
</clipPath>
<clipPath id="clip1">
<rect width="16" height="16" fill="white" transform="translate(224.84 26)"/>
</clipPath>
</defs>
</svg>
