<svg width="56" height="56" viewBox="0 0 56 56" fill="none" xmlns="http://www.w3.org/2000/svg">
<g clip-path="url(#clip0)">
<path d="M38.6076 23.105C38.6076 15.8111 32.3891 9.89844 24.7179 9.89844C17.0471 9.89844 10.8281 15.8111 10.8281 23.105C10.8281 30.3986 17.0471 36.3112 24.7179 36.3112C32.3891 36.3112 38.6076 30.3986 38.6076 23.105Z" fill="#FCDD3F"/>
<path d="M38.6076 23.105C38.6076 30.4011 32.3857 36.3108 24.7191 36.3108V9.89844C32.3908 9.89929 38.6076 15.8115 38.6076 23.105Z" fill="#FECF00"/>
<path d="M46.3241 44.4071C46.052 44.2606 39.5604 40.8118 33.3029 42.7844C29.9627 43.8363 27.4501 46.1926 25.8129 48.2036C25.8129 54.7306 25.8232 54.3128 25.789 54.4777C29.3522 55.9184 33.5405 56.5657 37.2614 55.3937C43.5188 53.4211 46.871 46.871 47.0111 46.5937C47.4102 45.7991 47.1064 44.8305 46.3241 44.4071Z" fill="#84B721"/>
<path d="M47.1171 45.3893L25.8129 51.2973C25.8129 54.5008 25.8223 54.3166 25.789 54.4777C29.3522 55.9184 33.5405 56.5657 37.2614 55.3937C43.5188 53.4211 46.871 46.871 47.0112 46.5937C47.206 46.2058 47.2333 45.776 47.1171 45.3893Z" fill="#53A000"/>
<path d="M23.6254 48.14C21.9856 46.143 19.4918 43.8252 16.1866 42.7844C9.92917 40.8118 3.43759 44.2593 3.16544 44.4071C2.38315 44.8305 2.07938 45.7991 2.47842 46.5938C2.61856 46.871 5.97073 53.4211 12.2282 55.3937C15.911 56.5529 20.069 55.9368 23.6536 54.4961C23.613 54.3214 23.6254 54.7294 23.6254 48.14Z" fill="#A2D147"/>
<path d="M23.6254 51.3178L2.36693 45.4069C2.25756 45.7892 2.28576 46.2109 2.47844 46.5933C2.61858 46.8706 5.97075 53.4211 12.2282 55.3937C15.9111 56.5529 20.069 55.9368 23.6536 54.4961C23.6147 54.3273 23.6254 54.5051 23.6254 51.3178Z" fill="#7DBF06"/>
<path d="M26.3598 40.5486V54.2474C26.3598 55.1549 25.6249 55.8915 24.7191 55.8915C23.8134 55.8915 23.0785 55.1549 23.0785 54.2474V40.5486H26.3598Z" fill="#84B721"/>
<path d="M26.3598 40.5486V54.2474C26.3598 55.1549 25.6249 55.8915 24.7191 55.8915V40.5486H26.3598Z" fill="#53A000"/>
<path d="M24.7191 6.57532C23.813 6.57532 23.0785 5.8396 23.0785 4.9317V1.64362C23.0785 0.736145 23.813 0 24.7191 0C25.6253 0 26.3598 0.736145 26.3598 1.64362V4.9317C26.3598 5.8396 25.6253 6.57532 24.7191 6.57532Z" fill="#FFB736"/>
<path d="M26.3598 1.64362V4.9317C26.3598 5.83917 25.6249 6.57532 24.7191 6.57532V0C25.6249 0 26.3598 0.736572 26.3598 1.64362Z" fill="#FF941F"/>
<path d="M9.63736 11.8715L7.31741 9.54682C6.67654 8.90509 6.67654 7.86389 7.31741 7.22217C7.95785 6.58044 8.99692 6.58044 9.63736 7.22217L11.9577 9.54682C12.5986 10.189 12.5986 11.2297 11.9577 11.8715C11.3169 12.5136 10.2782 12.5136 9.63736 11.8715Z" fill="#FFB736"/>
<path d="M5.03122 26.3017H1.74997C0.843781 26.3017 0.109344 25.566 0.109344 24.6581C0.109344 23.7502 0.843781 23.014 1.74997 23.014H5.03122C5.93741 23.014 6.67184 23.7502 6.67184 24.6581C6.67184 25.566 5.93741 26.3017 5.03122 26.3017Z" fill="#FFB736"/>
<path d="M47.6883 26.3017H44.4071C43.5009 26.3017 42.7664 25.566 42.7664 24.6581C42.7664 23.7502 43.5009 23.014 44.4071 23.014H47.6883C48.5941 23.014 49.3289 23.7502 49.3289 24.6581C49.3289 25.566 48.5941 26.3017 47.6883 26.3017Z" fill="#FF941F"/>
<path d="M37.1524 13.8441C36.5116 13.2023 36.5116 12.1616 37.1524 11.5194L39.4724 9.19476C40.1133 8.55304 41.1519 8.55304 41.7928 9.19476C42.4336 9.83691 42.4336 10.8777 41.7928 11.5194L39.4724 13.8441C38.8315 14.4862 37.7929 14.4862 37.1524 13.8441Z" fill="#FF941F"/>
<path d="M29.1604 20.2079C28.5199 19.5657 27.4809 19.5657 26.8404 20.2079L24.7191 22.333L22.5979 20.2079C21.957 19.5657 20.9184 19.5657 20.2775 20.2079C19.6366 20.8496 19.6366 21.8908 20.2775 22.5325L23.0781 25.3387C23.0781 34.6954 23.0648 34.0823 23.1084 34.3104H26.329C26.3726 34.0836 26.3593 34.6988 26.3593 25.3387L29.1604 22.5325C29.8012 21.8908 29.8012 20.8496 29.1604 20.2079Z" fill="#FFB736"/>
<path d="M29.1608 22.533L26.3598 25.3383C26.3598 34.7018 26.373 34.0865 26.329 34.3104H24.7191V22.3334L26.84 20.2075C27.4809 19.5662 28.5199 19.5662 29.1608 20.2075C29.8008 20.8496 29.8008 21.8908 29.1608 22.533Z" fill="#FF941F"/>
<path d="M16.516 33.7627V37.261C16.516 39.3759 18.2331 41.0964 20.3441 41.0964H29.0941C31.2052 41.0964 32.9223 39.3759 32.9223 37.261V33.7627H16.516Z" fill="#E2F0F7"/>
<path d="M32.9223 33.7627V37.261C32.9223 39.3759 31.2052 41.0964 29.0941 41.0964H24.7191V33.7627H32.9223Z" fill="#C3DBE2"/>
</g>
<defs>
<clipPath id="clip0">
<rect width="56" height="56" fill="white"/>
</clipPath>
</defs>
</svg>
