<svg width="123" height="123" viewBox="0 0 123 123" fill="none" xmlns="http://www.w3.org/2000/svg">
<g filter="url(#filter0_d)">
<circle cx="57.5" cy="57.5" r="41.5" fill="white"/>
</g>
<g clip-path="url(#clip0)">
<path d="M78.7001 35.7666H37.3001C36.4532 35.7666 35.7667 36.4531 35.7667 37.2999V48.0333C35.7667 48.8801 36.4532 49.5666 37.3001 49.5666H78.7001C79.5469 49.5666 80.2334 48.8801 80.2334 48.0333V37.2999C80.2334 36.4531 79.5469 35.7666 78.7001 35.7666Z" fill="#60A917"/>
<path d="M78.6999 35.7666H76.3999C77.2457 35.7691 77.9307 36.4541 77.9332 37.2999V48.0333C77.9307 48.8791 77.2457 49.5641 76.3999 49.5666H78.6999C79.5457 49.5641 80.2307 48.8791 80.2332 48.0333V37.2999C80.2307 36.4541 79.5457 35.7691 78.6999 35.7666Z" fill="#549414"/>
<path d="M77.1666 64.8998H38.8333C38.8333 58.972 43.6388 54.1665 49.5666 54.1665H55.7V57.2332H60.3V54.1665H66.4333C72.3612 54.1665 77.1666 58.972 77.1666 64.8998Z" fill="#FF9801"/>
<path d="M53.4 54.1665H55.7V57.2332H53.4V54.1665Z" fill="#F57C00"/>
<path d="M66.4334 54.1665H64.1334C70.0613 54.1665 74.8668 58.972 74.8668 64.8998H77.1668C77.1668 58.972 72.3613 54.1665 66.4334 54.1665Z" fill="#F57C00"/>
<path d="M80.2333 67.9666C80.2319 68.7797 79.9095 69.5595 79.3363 70.1362C79.0652 70.4098 78.7419 70.6262 78.3857 70.7726C78.0026 70.9454 77.5869 71.0343 77.1667 71.0332H38.8333C38.4131 71.0343 37.9974 70.9454 37.6143 70.7726C36.4927 70.2909 35.766 69.1872 35.7667 67.9666C35.7656 67.1529 36.0884 66.3723 36.6637 65.797C37.2391 65.2217 38.0197 64.8989 38.8333 64.8999H77.1667C78.8603 64.8999 80.2333 66.2729 80.2333 67.9666Z" fill="#A0522D"/>
<path d="M77.1666 64.8999H74.8666C76.1077 64.8989 77.227 65.6461 77.7021 66.7927C78.1772 67.9393 77.9143 69.2591 77.0362 70.1362C76.7651 70.4098 76.4419 70.6262 76.0856 70.7726C75.7025 70.9454 75.2869 71.0343 74.8666 71.0333L77.1666 71.0332C77.5869 71.0343 78.0025 70.9454 78.3856 70.7726C78.7419 70.6262 79.0651 70.4098 79.3362 70.1362C80.2143 69.2591 80.4772 67.9393 80.0021 66.7927C79.527 65.6461 78.4077 64.8989 77.1666 64.8999Z" fill="#783E22"/>
<path d="M77.1666 73.0571V74.0998C77.1666 77.4871 74.4207 80.2331 71.0333 80.2331H44.9666C41.5793 80.2331 38.8333 77.4871 38.8333 74.0998V73.0571C40.1101 74.6627 42.0414 75.6087 44.0926 75.6331H44.2C47.6423 75.6331 47.6423 74.0998 51.0923 74.0998C54.5423 74.0998 54.5423 75.6331 57.9923 75.6331C60.2463 75.6331 61.0283 74.9815 62.2626 74.5291L64.3556 76.6221C64.657 76.9211 65.143 76.9211 65.4443 76.6221L67.5373 74.5291C68.764 74.9815 69.546 75.6331 71.8 75.6331H71.9073C73.9585 75.6087 75.8899 74.6627 77.1666 73.0571Z" fill="#FF9801"/>
<path d="M74.8014 74.947C74.3813 77.9764 71.7917 80.2323 68.7333 80.2331H71.0333C74.4206 80.2331 77.1666 77.4871 77.1666 74.0998V73.0571C76.5276 73.8542 75.7198 74.4996 74.8014 74.947Z" fill="#F57C00"/>
<path d="M78.3856 70.7725C78.1237 71.6027 77.7104 72.3773 77.1666 73.0571C75.8898 74.6627 73.9584 75.6087 71.9072 75.6331H71.7999C69.5459 75.6331 68.7639 74.9815 67.5372 74.5291L71.0332 71.0331H77.1666C77.5868 71.0342 78.0025 70.9453 78.3856 70.7725Z" fill="#60A917"/>
<path d="M77.1667 71.0331H75.9899C75.73 71.7653 75.3504 72.4492 74.8667 73.0571C73.7949 74.3992 72.2573 75.2887 70.5596 75.5488C70.9706 75.606 71.3851 75.6342 71.8 75.6331H71.9074C73.9586 75.6087 75.8899 74.6627 77.1667 73.0571C77.7106 72.3773 78.1238 71.6027 78.3857 70.7725C78.0026 70.9453 77.587 71.0342 77.1667 71.0331Z" fill="#549414"/>
<path d="M62.2627 74.5291C61.0283 74.9815 60.2463 75.6331 57.9923 75.6331C54.5423 75.6331 54.5423 74.0998 51.0923 74.0998C47.6423 74.0998 47.6423 75.6331 44.2 75.6331H44.0927C42.0414 75.6087 40.1101 74.6627 38.8333 73.0571C38.2895 72.3773 37.8762 71.6027 37.6143 70.7725C37.9974 70.9453 38.413 71.0342 38.8333 71.0331H58.7667L62.2627 74.5291Z" fill="#60A917"/>
<path d="M58.7667 71.0332H56.4667L59.9627 74.5292C58.9698 75.0225 57.9112 75.3706 56.8193 75.5627C57.2084 75.6113 57.6002 75.6349 57.9923 75.6332C60.2463 75.6332 61.0283 74.9815 62.2627 74.5292L58.7667 71.0332Z" fill="#549414"/>
<path d="M71.0334 71.0332L65.4444 76.6222C65.1431 76.9212 64.657 76.9212 64.3557 76.6222L58.7667 71.0332H71.0334Z" fill="#FFDC00"/>
<path d="M55.7 49.5669H60.3V57.2336H55.7V49.5669Z" fill="#FFE0B2"/>
<path d="M45.2519 38.1211C45.0631 38.0456 44.852 38.0481 44.6651 38.1282C44.4782 38.2083 44.3307 38.3593 44.2552 38.5481L41.9 44.4361L39.5456 38.5481C39.3881 38.1548 38.9415 37.9636 38.5481 38.1211C38.1548 38.2786 37.9636 38.7252 38.1211 39.1185L41.1878 46.7852C41.3039 47.0768 41.5861 47.2681 41.9 47.2681C42.2139 47.2681 42.4961 47.0768 42.6122 46.7852L45.6789 39.1185C45.7547 38.9297 45.7523 38.7184 45.6722 38.5313C45.5921 38.3442 45.4409 38.1966 45.2519 38.1211Z" fill="#F5F5F5"/>
<path d="M51.8667 39.6002C52.2901 39.6002 52.6333 39.257 52.6333 38.8336C52.6333 38.4101 52.2901 38.0669 51.8667 38.0669H47.2667C46.8432 38.0669 46.5 38.4101 46.5 38.8336V46.5002C46.5 46.9236 46.8432 47.2669 47.2667 47.2669H51.8667C52.2901 47.2669 52.6333 46.9236 52.6333 46.5002C52.6333 46.0768 52.2901 45.7336 51.8667 45.7336H48.0333V43.4336H51.8667C52.2901 43.4336 52.6333 43.0903 52.6333 42.6669C52.6333 42.2435 52.2901 41.9002 51.8667 41.9002H48.0333V39.6002H51.8667Z" fill="#F5F5F5"/>
<path d="M61.8334 42.6669H58.7667C58.3433 42.6669 58 43.0102 58 43.4336C58 43.857 58.3433 44.2002 58.7667 44.2002H59.5334C59.5334 45.0471 58.8469 45.7336 58 45.7336H57.2334C56.3865 45.7336 55.7 45.0471 55.7 44.2002V41.1336C55.7 40.2867 56.3865 39.6002 57.2334 39.6002H58C58.6465 39.5966 59.2238 40.0042 59.4368 40.6145C59.5817 41.0036 60.01 41.2067 60.4029 41.0725C60.7959 40.9383 61.0106 40.5158 60.8873 40.1193C60.4629 38.888 59.3024 38.0631 58 38.0669H57.2334C55.5397 38.0669 54.1667 39.4399 54.1667 41.1336V44.2002C54.1667 45.8939 55.5397 47.2669 57.2334 47.2669H58C59.6937 47.2669 61.0667 45.8939 61.0667 44.2002H61.8334C62.2568 44.2002 62.6 43.857 62.6 43.4336C62.6 43.0102 62.2568 42.6669 61.8334 42.6669Z" fill="#F5F5F5"/>
<path d="M70.2131 46.2165L67.1464 38.5498C67.0307 38.2572 66.748 38.0649 66.4334 38.0649C66.1187 38.0649 65.836 38.2572 65.7204 38.5498L62.6537 46.2165C62.5524 46.4712 62.5946 46.7607 62.7646 46.9758C62.9345 47.1909 63.2063 47.2991 63.4776 47.2595C63.7488 47.2199 63.9784 47.0385 64.0797 46.7838L64.8081 44.9668H68.0587L68.7871 46.7838C68.9033 47.0757 69.1859 47.2671 69.5001 47.2668C69.5972 47.2676 69.6936 47.2494 69.7837 47.2131C70.1743 47.0532 70.3652 46.6102 70.2131 46.2165ZM65.4214 43.4335L66.4334 40.8958L67.4454 43.4335H65.4214Z" fill="#F5F5F5"/>
<path d="M77.1667 38.0669C76.7432 38.0669 76.4 38.4101 76.4 38.8336V44.0684L72.4279 38.395C72.2361 38.1212 71.8889 38.0033 71.57 38.1036C71.2511 38.2039 71.0339 38.4992 71.0333 38.8336V46.5002C71.0333 46.9236 71.3766 47.2669 71.8 47.2669C72.2234 47.2669 72.5667 46.9236 72.5667 46.5002V41.2654L76.5388 46.9388C76.6819 47.1441 76.9163 47.2666 77.1667 47.2669C77.5901 47.2669 77.9333 46.9236 77.9333 46.5002V38.8336C77.9333 38.4101 77.5901 38.0669 77.1667 38.0669Z" fill="#F5F5F5"/>
<path d="M42.537 62.6001C42.2785 62.6 42.0374 62.4696 41.8959 62.2532C41.7543 62.0369 41.7313 61.7638 41.8348 61.5268C43.1782 58.4541 46.213 56.468 49.5666 56.4668C49.99 56.4668 50.3333 56.81 50.3333 57.2335C50.3333 57.6569 49.99 58.0001 49.5666 58.0001C46.8227 58.0011 44.3395 59.6261 43.2401 62.1401C43.1181 62.4197 42.842 62.6003 42.537 62.6001Z" fill="#F5F5F5"/>
<path d="M78.7 35H37.3C36.0297 35 35 36.0297 35 37.3V48.0333C35 49.3036 36.0297 50.3333 37.3 50.3333H54.9333V53.4H49.5667C43.4837 53.395 38.4535 58.1373 38.1004 64.21C36.5176 64.5132 35.2958 65.778 35.0475 67.3703C34.7992 68.9627 35.578 70.5394 36.9933 71.3101C37.2517 72.0234 37.6134 72.695 38.0667 73.3034V74.1C38.0713 77.9088 41.1578 80.9954 44.9667 81H71.0333C74.8424 80.9958 77.9291 77.909 77.9333 74.1V73.3065C78.3865 72.698 78.7481 72.0264 79.0067 71.3132C80.4245 70.5432 81.205 68.9649 80.9562 67.3708C80.7074 65.7767 79.4831 64.5113 77.8981 64.21C77.5312 58.1443 72.5101 53.41 66.4333 53.4H61.0667V50.3333H78.7C79.9703 50.3333 81 49.3036 81 48.0333V37.3C81 36.0297 79.9703 35 78.7 35V35ZM58.4493 71.8L60.9133 74.2648C60.0006 74.6924 58.9998 74.8986 57.9923 74.8667C56.9041 74.8973 55.8254 74.6565 54.8536 74.1659C53.6848 73.5906 52.3947 73.305 51.0923 73.3333C49.7896 73.3052 48.4993 73.5911 47.3303 74.1667C46.3612 74.6565 45.2854 74.897 44.2 74.8667H44.1011C42.279 74.8448 40.5637 74.0037 39.4306 72.5766C39.2378 72.3312 39.0638 72.0716 38.91 71.8H58.4493ZM77.0938 71.8C76.9387 72.0723 76.7631 72.3324 76.5687 72.5782C75.4373 74.0022 73.7259 74.8424 71.9073 74.8667H71.8C70.7952 74.8988 69.797 74.6931 68.8867 74.2664L71.3507 71.8H77.0938ZM64.9 76.0826L60.6174 71.8H69.1826L64.9 76.0826ZM71.0333 79.4667H44.9667C42.3151 79.4635 40.0633 77.5244 39.6667 74.9027C40.9465 75.8575 42.4961 76.3817 44.0927 76.4H44.2C45.5008 76.4283 46.7894 76.143 47.9567 75.5682C48.9274 75.0776 50.0051 74.8365 51.0923 74.8667C52.1806 74.8358 53.2593 75.0766 54.2311 75.5674C55.3999 76.1426 56.6899 76.4282 57.9923 76.4C59.2954 76.4285 60.5863 76.144 61.7567 75.5705C61.8632 75.5237 61.9782 75.48 62.0863 75.434L63.8159 77.1667C64.4147 77.7653 65.3853 77.7653 65.9841 77.1667L67.716 75.4348C67.8218 75.48 67.9329 75.5222 68.0364 75.5682C69.2061 76.1432 70.4969 76.4285 71.8 76.4H71.915C73.5091 76.3809 75.056 75.8567 76.3333 74.9027C75.9367 77.5244 73.6849 79.4635 71.0333 79.4667ZM79.4667 67.9667C79.4664 68.8889 78.9154 69.7218 78.0667 70.0827C78.0545 70.088 78.0414 70.0896 78.0299 70.0957C77.7559 70.2079 77.4628 70.266 77.1667 70.2667H38.8333C38.5377 70.2659 38.2451 70.2078 37.9716 70.0957C37.9586 70.0904 37.9453 70.0858 37.9317 70.0819C36.9272 69.653 36.3629 68.5767 36.5814 67.5065C36.8 66.4363 37.7411 65.6674 38.8333 65.6667H77.1667C78.4369 65.6667 79.4667 66.6964 79.4667 67.9667ZM66.4333 54.9333C71.638 54.9398 75.9639 58.9447 76.3709 64.1333H39.6291C40.0297 58.9415 44.3594 54.9331 49.5667 54.9333H54.9333V56.4667H54.1667C53.7432 56.4667 53.4 56.8099 53.4 57.2333C53.4 57.6568 53.7432 58 54.1667 58H61.8333C62.2568 58 62.6 57.6568 62.6 57.2333C62.6 56.8099 62.2568 56.4667 61.8333 56.4667H61.0667V54.9333H66.4333ZM59.5333 56.4667H56.4667V50.3333H59.5333V56.4667ZM79.4667 48.0333C79.4667 48.4568 79.1234 48.8 78.7 48.8H37.3C36.8766 48.8 36.5333 48.4568 36.5333 48.0333V37.3C36.5333 36.8766 36.8766 36.5333 37.3 36.5333H78.7C79.1234 36.5333 79.4667 36.8766 79.4667 37.3V48.0333Z" fill="black"/>
<path d="M48.0334 62.6002C48.4568 62.6002 48.8001 62.257 48.8001 61.8336C48.8001 61.4101 48.4568 61.0669 48.0334 61.0669C47.61 61.0669 47.2667 61.4101 47.2667 61.8336C47.2667 62.257 47.61 62.6002 48.0334 62.6002Z" fill="black"/>
<path d="M51.1 60.2999C51.5234 60.2999 51.8666 59.9567 51.8666 59.5333C51.8666 59.1098 51.5234 58.7666 51.1 58.7666C50.6766 58.7666 50.3333 59.1098 50.3333 59.5333C50.3333 59.9567 50.6766 60.2999 51.1 60.2999Z" fill="black"/>
<path d="M60.3 62.6002C60.7234 62.6002 61.0666 62.257 61.0666 61.8336C61.0666 61.4101 60.7234 61.0669 60.3 61.0669C59.8766 61.0669 59.5333 61.4101 59.5333 61.8336C59.5333 62.257 59.8766 62.6002 60.3 62.6002Z" fill="black"/>
<path d="M66.4333 58.0001C66.8567 58.0001 67.2 57.6569 67.2 57.2335C67.2 56.81 66.8567 56.4668 66.4333 56.4668C66.0099 56.4668 65.6666 56.81 65.6666 57.2335C65.6666 57.6569 66.0099 58.0001 66.4333 58.0001Z" fill="black"/>
<path d="M54.1666 62.6002C54.59 62.6002 54.9333 62.257 54.9333 61.8336C54.9333 61.4101 54.59 61.0669 54.1666 61.0669C53.7432 61.0669 53.4 61.4101 53.4 61.8336C53.4 62.257 53.7432 62.6002 54.1666 62.6002Z" fill="black"/>
<path d="M57.2333 60.2999C57.6568 60.2999 58 59.9567 58 59.5333C58 59.1098 57.6568 58.7666 57.2333 58.7666C56.8099 58.7666 56.4667 59.1098 56.4667 59.5333C56.4667 59.9567 56.8099 60.2999 57.2333 60.2999Z" fill="black"/>
<path d="M66.4333 62.6002C66.8567 62.6002 67.2 62.257 67.2 61.8336C67.2 61.4101 66.8567 61.0669 66.4333 61.0669C66.0099 61.0669 65.6666 61.4101 65.6666 61.8336C65.6666 62.257 66.0099 62.6002 66.4333 62.6002Z" fill="black"/>
<path d="M72.5666 62.6002C72.99 62.6002 73.3333 62.257 73.3333 61.8336C73.3333 61.4101 72.99 61.0669 72.5666 61.0669C72.1432 61.0669 71.7999 61.4101 71.7999 61.8336C71.7999 62.257 72.1432 62.6002 72.5666 62.6002Z" fill="black"/>
<path d="M69.4999 60.2999C69.9234 60.2999 70.2666 59.9567 70.2666 59.5333C70.2666 59.1098 69.9234 58.7666 69.4999 58.7666C69.0765 58.7666 68.7333 59.1098 68.7333 59.5333C68.7333 59.9567 69.0765 60.2999 69.4999 60.2999Z" fill="black"/>
<path d="M63.3668 60.2999C63.7902 60.2999 64.1334 59.9567 64.1334 59.5333C64.1334 59.1098 63.7902 58.7666 63.3668 58.7666C62.9433 58.7666 62.6001 59.1098 62.6001 59.5333C62.6001 59.9567 62.9433 60.2999 63.3668 60.2999Z" fill="black"/>
</g>
<defs>
<filter id="filter0_d" x="0" y="0" width="123" height="123" filterUnits="userSpaceOnUse" color-interpolation-filters="sRGB">
<feFlood flood-opacity="0" result="BackgroundImageFix"/>
<feColorMatrix in="SourceAlpha" type="matrix" values="0 0 0 0 0 0 0 0 0 0 0 0 0 0 0 0 0 0 127 0"/>
<feOffset dx="4" dy="4"/>
<feGaussianBlur stdDeviation="10"/>
<feColorMatrix type="matrix" values="0 0 0 0 0 0 0 0 0 0 0 0 0 0 0 0 0 0 0.15 0"/>
<feBlend mode="normal" in2="BackgroundImageFix" result="effect1_dropShadow"/>
<feBlend mode="normal" in="SourceGraphic" in2="effect1_dropShadow" result="shape"/>
</filter>
<clipPath id="clip0">
<rect width="46" height="46" fill="white" transform="translate(35 35)"/>
</clipPath>
</defs>
</svg>
