<svg width="123" height="123" viewBox="0 0 123 123" fill="none" xmlns="http://www.w3.org/2000/svg">
<g filter="url(#filter0_d)">
<circle cx="57.5" cy="57.5" r="41.5" fill="white"/>
</g>
<g clip-path="url(#clip0)">
<path d="M62.4514 44.0361C62.4435 44.029 62.4349 44.0219 62.427 44.0148C61.5225 43.1963 61.767 41.7675 62.7432 41.0342C63.1272 40.7456 63.3764 40.2874 63.3764 39.7733V38.9848C63.3764 38.1174 62.6667 37.4077 61.7993 37.4077H53.1255C52.2581 37.4077 51.5484 38.1174 51.5484 38.9848V39.7733C51.5484 40.2977 51.8086 40.7621 52.2068 41.0476C53.1192 41.7021 53.4874 42.9605 52.7604 43.8161C52.6918 43.8965 52.6153 43.9738 52.5317 44.0464C50.8695 45.4775 48.3943 47.0609 48.3943 50.8127V74.6413C48.3943 76.2807 49.7356 77.6228 51.3757 77.6228H63.5491C65.1884 77.6228 66.5305 76.2815 66.5305 74.6413V50.8127C66.5305 47.0491 64.0868 45.4712 62.4514 44.0361Z" fill="#DAE7EF"/>
<path d="M63.5498 78.0173H51.3757C49.5148 78.0173 48 76.5033 48 74.6424V50.813C48 47.2882 50.0557 45.5889 51.7069 44.2232C51.9032 44.0616 52.0933 43.9039 52.2746 43.7477C52.3417 43.6894 52.4039 43.6271 52.4607 43.5608C52.7485 43.2218 52.7722 42.8496 52.7406 42.5965C52.6831 42.1289 52.3976 41.6699 51.9766 41.3679C51.4617 40.9973 51.1541 40.4012 51.1541 39.7735V38.985C51.1541 37.8976 52.0389 37.0137 53.1255 37.0137H61.7993C62.8859 37.0137 63.7706 37.8976 63.7706 38.985V39.7735C63.7706 40.3886 63.4749 40.9776 62.9805 41.349C62.5531 41.6707 62.2834 42.1636 62.2606 42.6674C62.2417 43.0791 62.3946 43.4536 62.6919 43.7225L62.4514 44.0363L62.7116 43.7398C62.893 43.8999 63.0854 44.0608 63.2833 44.2272C64.9061 45.5905 66.9247 47.289 66.9247 50.813V74.6424C66.9247 76.5033 65.4108 78.0173 63.5498 78.0173ZM53.1255 37.8022C52.4733 37.8022 51.9427 38.3329 51.9427 38.985V39.7735C51.9427 40.1489 52.1272 40.5061 52.4363 40.7277C53.0332 41.1558 53.4393 41.819 53.5229 42.5003C53.5938 43.0791 53.429 43.6365 53.06 44.0718C52.978 44.1672 52.8881 44.2587 52.7895 44.3446C52.605 44.5039 52.4103 44.6648 52.21 44.8304C50.6069 46.1567 48.7893 47.6596 48.7893 50.813V74.6424C48.7893 76.0688 49.95 77.2287 51.3765 77.2287H63.5498C64.9763 77.2287 66.137 76.068 66.137 74.6424V50.813C66.137 47.6565 64.3518 46.1559 62.7763 44.8312C62.5744 44.6608 62.3781 44.496 62.192 44.3328L62.1809 44.3218L62.4475 44.0316L62.1715 44.3139C61.6889 43.877 61.4437 43.2817 61.4736 42.6304C61.5067 41.8939 61.8939 41.1795 62.5074 40.7182C62.8094 40.4911 62.9829 40.1457 62.9829 39.7727V38.9842C62.9829 38.3321 62.4522 37.8014 61.8001 37.8014H53.1255V37.8022Z" fill="#BBD7EA"/>
<path d="M62.8422 41H52.1412C51.234 41 50.4917 40.3637 50.4917 39.5861V38.4139C50.4917 37.6363 51.234 37 52.1412 37H62.8422C63.7494 37 64.4917 37.6363 64.4917 38.4139V39.5861C64.4917 40.3637 63.7494 41 62.8422 41Z" fill="#FAF5E5"/>
<path d="M51.1768 77H63.8074C65.2874 77 66.4917 75.8289 66.4917 74.3905V55.7599C63.5423 54.6262 61.2605 54.7463 57.7065 56.2197C55.936 56.9532 54.4175 57.3231 52.8712 57.3231C51.5057 57.3231 50.0953 57.0049 48.4917 56.4226V74.3905C48.4925 75.8289 49.6968 77 51.1768 77Z" fill="white"/>
<path fill-rule="evenodd" clip-rule="evenodd" d="M84.1844 57.5247C84.1943 42.7882 72.256 30.8337 57.5195 30.8238C42.7829 30.8138 30.8286 42.7521 30.8186 57.4886C30.8087 72.2251 42.7469 84.1796 57.4835 84.1895C72.22 84.1995 84.1744 72.2612 84.1844 57.5247ZM71.2309 76.4955C62.7831 82.6191 51.1715 82.4065 42.9429 75.8639C42.496 75.5086 42.4621 74.8412 42.8661 74.4378L74.4524 42.894C74.5276 42.8189 74.612 42.7589 74.7018 42.714C74.7018 42.7141 74.7018 42.7141 74.7019 42.7141C75.064 42.5331 75.5142 42.5966 75.8083 42.8937C75.8327 42.9184 75.8561 42.9448 75.8783 42.9727C83.1744 52.1746 82.566 65.5869 74.057 74.0846C73.1675 74.9728 72.2238 75.7734 71.2376 76.4889C71.2353 76.4911 71.2331 76.4933 71.2309 76.4955ZM72.4078 39.7492C72.4523 40.04 72.3635 40.3493 72.1369 40.5755L40.5506 72.1193C40.1467 72.5227 39.4794 72.4878 39.1247 72.0406C31.8285 62.8388 32.4368 49.4264 40.946 40.9287C49.2126 32.6733 62.1077 31.881 71.2642 38.5438C71.2657 38.5452 71.2671 38.5467 71.2685 38.5481C71.5355 38.7425 71.7997 38.9423 72.0601 39.1494C72.1328 39.2072 72.1945 39.2732 72.2452 39.345C72.3314 39.4671 72.3857 39.6058 72.4076 39.7491C72.4077 39.7491 72.4077 39.7492 72.4078 39.7492Z" fill="#FF636E"/>
</g>
<defs>
<filter id="filter0_d" x="0" y="0" width="123" height="123" filterUnits="userSpaceOnUse" color-interpolation-filters="sRGB">
<feFlood flood-opacity="0" result="BackgroundImageFix"/>
<feColorMatrix in="SourceAlpha" type="matrix" values="0 0 0 0 0 0 0 0 0 0 0 0 0 0 0 0 0 0 127 0"/>
<feOffset dx="4" dy="4"/>
<feGaussianBlur stdDeviation="10"/>
<feColorMatrix type="matrix" values="0 0 0 0 0 0 0 0 0 0 0 0 0 0 0 0 0 0 0.15 0"/>
<feBlend mode="normal" in2="BackgroundImageFix" result="effect1_dropShadow"/>
<feBlend mode="normal" in="SourceGraphic" in2="effect1_dropShadow" result="shape"/>
</filter>
<clipPath id="clip0">
<rect width="54.9764" height="54.9764" fill="white" transform="matrix(-1 -0.000675364 -0.000675364 1 85.0137 30.0371)"/>
</clipPath>
</defs>
</svg>
